<ttFont>
    <TTGlyph name=".notdef" xMin="56" yMin="0" xMax="456" yMax="512">
      <contour>
        <pt x="56" y="512" on="1"/>
        <pt x="456" y="512" on="1"/>
        <pt x="456" y="0" on="1"/>
        <pt x="56" y="0" on="1"/>
      </contour>
      <contour>
        <pt x="116" y="70" on="1"/>
        <pt x="396" y="70" on="1"/>
        <pt x="396" y="442" on="1"/>
        <pt x="116" y="442" on="1"/>
      </contour>
    </TTGlyph>
    <TTGlyph name="A" xMin="60" yMin="0" xMax="538" yMax="700">
      <contour>
        <pt x="149" y="0" on="1"/>
        <pt x="60" y="0" on="1"/>
        <pt x="60" y="440" on="1"/>
        <pt x="60" y="548" on="0"/>
        <pt x="199" y="700" on="0"/>
        <pt x="309" y="700" on="1"/>
        <pt x="538" y="700" on="1"/>
        <pt x="538" y="0" on="1"/>
        <pt x="444" y="0" on="1"/>
        <pt x="444" y="612" on="1"/>
        <pt x="309" y="612" on="1"/>
        <pt x="236" y="612" on="0"/>
        <pt x="149" y="526" on="0"/>
        <pt x="149" y="432" on="1"/>
        <pt x="149" y="347" on="1"/>
        <pt x="205" y="406" on="0"/>
        <pt x="309" y="406" on="1"/>
        <pt x="400" y="406" on="1"/>
        <pt x="400" y="318" on="1"/>
        <pt x="309" y="318" on="1"/>
        <pt x="251" y="318" on="0"/>
        <pt x="178" y="290" on="0"/>
        <pt x="149" y="256" on="1"/>
      </contour>
    </TTGlyph>
    <TTGlyph name="AE" xMin="60" yMin="0" xMax="838" yMax="700">
      <contour>
        <pt x="149" y="0" on="1"/>
        <pt x="60" y="0" on="1"/>
        <pt x="60" y="440" on="1"/>
        <pt x="60" y="548" on="0"/>
        <pt x="199" y="700" on="0"/>
        <pt x="309" y="700" on="1"/>
        <pt x="534" y="700" on="1"/>
        <pt x="534" y="665" on="1"/>
        <pt x="575" y="700" on="0"/>
        <pt x="640" y="700" on="1"/>
        <pt x="838" y="700" on="1"/>
        <pt x="838" y="612" on="1"/>
        <pt x="644" y="612" on="1"/>
        <pt x="534" y="612" on="0"/>
        <pt x="534" y="520" on="1"/>
        <pt x="534" y="406" on="1"/>
        <pt x="765" y="406" on="1"/>
        <pt x="765" y="318" on="1"/>
        <pt x="534" y="318" on="1"/>
        <pt x="534" y="88" on="1"/>
        <pt x="838" y="88" on="1"/>
        <pt x="838" y="0" on="1"/>
        <pt x="444" y="0" on="1"/>
        <pt x="444" y="612" on="1"/>
        <pt x="309" y="612" on="1"/>
        <pt x="236" y="612" on="0"/>
        <pt x="149" y="526" on="0"/>
        <pt x="149" y="432" on="1"/>
        <pt x="149" y="331" on="1"/>
        <pt x="205" y="390" on="0"/>
        <pt x="309" y="390" on="1"/>
        <pt x="410" y="390" on="1"/>
        <pt x="410" y="302" on="1"/>
        <pt x="309" y="302" on="1"/>
        <pt x="251" y="302" on="0"/>
        <pt x="178" y="274" on="0"/>
        <pt x="149" y="240" on="1"/>
      </contour>
    </TTGlyph>
    <TTGlyph name="Aacute" xMin="60" yMin="0" xMax="538" yMax="935">
      <component glyphName="A" x="0" y="0" flags="0x204"/>
      <component glyphName="acute" x="239" y="220" flags="0x4"/>
    </TTGlyph>
    <TTGlyph name="Acircumflex" xMin="60" yMin="0" xMax="538" yMax="920">
      <component glyphName="A" x="0" y="0" flags="0x204"/>
      <component glyphName="circumflex" x="132" y="220" flags="0x4"/>
    </TTGlyph>
    <TTGlyph name="Adieresis" xMin="60" yMin="0" xMax="538" yMax="900">
      <component glyphName="A" x="0" y="0" flags="0x204"/>
      <component glyphName="dieresis" x="173" y="220" flags="0x4"/>
    </TTGlyph>
    <TTGlyph name="Agrave" xMin="60" yMin="0" xMax="538" yMax="935">
      <component glyphName="A" x="0" y="0" flags="0x204"/>
      <component glyphName="grave" x="189" y="220" flags="0x4"/>
    </TTGlyph>
    <TTGlyph name="Aring" xMin="60" yMin="0" xMax="538" yMax="942">
      <component glyphName="A" x="0" y="0" flags="0x204"/>
      <component glyphName="ring" x="201" y="220" flags="0x4"/>
    </TTGlyph>
    <TTGlyph name="Atilde" xMin="60" yMin="0" xMax="538" yMax="896">
      <component glyphName="A" x="0" y="0" flags="0x204"/>
      <component glyphName="tilde" x="112" y="220" flags="0x4"/>
    </TTGlyph>
    <TTGlyph name="B" xMin="65" yMin="0" xMax="548" yMax="710">
      <contour>
        <pt x="158" y="0" on="1"/>
        <pt x="65" y="0" on="1"/>
        <pt x="65" y="477" on="1"/>
        <pt x="65" y="580" on="0"/>
        <pt x="198" y="710" on="0"/>
        <pt x="296" y="710" on="1"/>
        <pt x="404" y="710" on="0"/>
        <pt x="513" y="601" on="0"/>
        <pt x="513" y="522" on="1"/>
        <pt x="513" y="421" on="0"/>
        <pt x="419" y="377" on="1"/>
        <pt x="419" y="373" on="1"/>
        <pt x="548" y="336" on="0"/>
        <pt x="548" y="194" on="1"/>
        <pt x="548" y="0" on="0"/>
        <pt x="319" y="0" on="1"/>
        <pt x="194" y="0" on="1"/>
        <pt x="194" y="88" on="1"/>
        <pt x="318" y="88" on="1"/>
        <pt x="387" y="88" on="0"/>
        <pt x="451" y="144" on="0"/>
        <pt x="451" y="206" on="1"/>
        <pt x="451" y="260" on="0"/>
        <pt x="382" y="318" on="0"/>
        <pt x="323" y="318" on="1"/>
        <pt x="224" y="318" on="1"/>
        <pt x="224" y="401" on="1"/>
        <pt x="288" y="401" on="1"/>
        <pt x="342" y="401" on="0"/>
        <pt x="419" y="460" on="0"/>
        <pt x="419" y="510" on="1"/>
        <pt x="419" y="558" on="0"/>
        <pt x="360" y="622" on="0"/>
        <pt x="294" y="622" on="1"/>
        <pt x="234" y="622" on="0"/>
        <pt x="158" y="547" on="0"/>
        <pt x="158" y="475" on="1"/>
      </contour>
    </TTGlyph>
    <TTGlyph name="C" xMin="60" yMin="0" xMax="470" yMax="700">
      <contour>
        <pt x="60" y="350" on="1"/>
        <pt x="61" y="517" on="0"/>
        <pt x="244" y="700" on="0"/>
        <pt x="405" y="700" on="1"/>
        <pt x="470" y="700" on="1"/>
        <pt x="470" y="612" on="1"/>
        <pt x="393" y="612" on="1"/>
        <pt x="282" y="612" on="0"/>
        <pt x="163" y="465" on="0"/>
        <pt x="161" y="350" on="1"/>
        <pt x="163" y="235" on="0"/>
        <pt x="282" y="88" on="0"/>
        <pt x="393" y="88" on="1"/>
        <pt x="470" y="88" on="1"/>
        <pt x="470" y="0" on="1"/>
        <pt x="405" y="0" on="1"/>
        <pt x="244" y="0" on="0"/>
        <pt x="61" y="183" on="0"/>
      </contour>
    </TTGlyph>
    <TTGlyph name="Ccedilla" xMin="60" yMin="-228" xMax="491" yMax="700">
      <contour>
        <pt x="321" y="-101" on="1"/>
        <pt x="302" y="-80" on="1"/>
        <pt x="336" y="5" on="1"/>
        <pt x="206" y="24" on="0"/>
        <pt x="61" y="202" on="0"/>
        <pt x="60" y="350" on="1"/>
        <pt x="61" y="517" on="0"/>
        <pt x="244" y="700" on="0"/>
        <pt x="405" y="700" on="1"/>
        <pt x="470" y="700" on="1"/>
        <pt x="470" y="612" on="1"/>
        <pt x="393" y="612" on="1"/>
        <pt x="282" y="612" on="0"/>
        <pt x="163" y="465" on="0"/>
        <pt x="161" y="350" on="1"/>
        <pt x="163" y="235" on="0"/>
        <pt x="282" y="88" on="0"/>
        <pt x="393" y="88" on="1"/>
        <pt x="470" y="88" on="1"/>
        <pt x="470" y="0" on="1"/>
        <pt x="395" y="0" on="1"/>
        <pt x="371" y="-56" on="1"/>
        <pt x="388" y="-53" on="0"/>
        <pt x="403" y="-53" on="1"/>
        <pt x="453" y="-53" on="0"/>
        <pt x="491" y="-101" on="0"/>
        <pt x="491" y="-131" on="1"/>
        <pt x="491" y="-173" on="0"/>
        <pt x="426" y="-228" on="0"/>
        <pt x="368" y="-228" on="1"/>
        <pt x="320" y="-228" on="0"/>
        <pt x="264" y="-204" on="1"/>
        <pt x="283" y="-163" on="1"/>
        <pt x="320" y="-179" on="0"/>
        <pt x="353" y="-179" on="1"/>
        <pt x="411" y="-179" on="0"/>
        <pt x="411" y="-135" on="1"/>
        <pt x="411" y="-118" on="0"/>
        <pt x="385" y="-93" on="0"/>
        <pt x="361" y="-93" on="1"/>
        <pt x="339" y="-93" on="0"/>
      </contour>
    </TTGlyph>
    <TTGlyph name="D" xMin="70" yMin="0" xMax="551" yMax="700">
      <contour>
        <pt x="551" y="350" on="1"/>
        <pt x="550" y="183" on="0"/>
        <pt x="367" y="0" on="0"/>
        <pt x="206" y="0" on="1"/>
        <pt x="70" y="0" on="1"/>
        <pt x="70" y="700" on="1"/>
        <pt x="206" y="700" on="1"/>
        <pt x="367" y="700" on="0"/>
        <pt x="550" y="517" on="0"/>
      </contour>
      <contour>
        <pt x="218" y="88" on="1"/>
        <pt x="329" y="88" on="0"/>
        <pt x="448" y="235" on="0"/>
        <pt x="450" y="350" on="1"/>
        <pt x="448" y="465" on="0"/>
        <pt x="329" y="612" on="0"/>
        <pt x="218" y="612" on="1"/>
        <pt x="164" y="612" on="1"/>
        <pt x="164" y="88" on="1"/>
      </contour>
    </TTGlyph>
    <TTGlyph name="E" xMin="65" yMin="0" xMax="463" yMax="700">
      <contour>
        <pt x="463" y="0" on="1"/>
        <pt x="65" y="0" on="1"/>
        <pt x="65" y="533" on="1"/>
        <pt x="65" y="607" on="0"/>
        <pt x="112" y="652" on="1"/>
        <pt x="144" y="682" on="0"/>
        <pt x="224" y="700" on="0"/>
        <pt x="282" y="700" on="1"/>
        <pt x="463" y="700" on="1"/>
        <pt x="463" y="612" on="1"/>
        <pt x="269" y="612" on="1"/>
        <pt x="159" y="612" on="0"/>
        <pt x="159" y="520" on="1"/>
        <pt x="159" y="406" on="1"/>
        <pt x="390" y="406" on="1"/>
        <pt x="390" y="318" on="1"/>
        <pt x="159" y="318" on="1"/>
        <pt x="159" y="88" on="1"/>
        <pt x="463" y="88" on="1"/>
      </contour>
    </TTGlyph>
    <TTGlyph name="Eacute" xMin="65" yMin="0" xMax="463" yMax="935">
      <component glyphName="E" x="0" y="0" flags="0x204"/>
      <component glyphName="acute" x="217" y="220" flags="0x4"/>
    </TTGlyph>
    <TTGlyph name="Ecircumflex" xMin="65" yMin="0" xMax="463" yMax="920">
      <component glyphName="E" x="0" y="0" flags="0x204"/>
      <component glyphName="circumflex" x="111" y="220" flags="0x4"/>
    </TTGlyph>
    <TTGlyph name="Edieresis" xMin="65" yMin="0" xMax="463" yMax="900">
      <component glyphName="E" x="0" y="0" flags="0x204"/>
      <component glyphName="dieresis" x="111" y="220" flags="0x4"/>
    </TTGlyph>
    <TTGlyph name="Egrave" xMin="65" yMin="0" xMax="463" yMax="935">
      <component glyphName="E" x="0" y="0" flags="0x204"/>
      <component glyphName="grave" x="137" y="220" flags="0x4"/>
    </TTGlyph>
    <TTGlyph name="Eth" xMin="-6" yMin="0" xMax="551" yMax="700">
      <contour>
        <pt x="-6" y="318" on="1"/>
        <pt x="-6" y="406" on="1"/>
        <pt x="70" y="406" on="1"/>
        <pt x="70" y="700" on="1"/>
        <pt x="195" y="700" on="1"/>
        <pt x="267" y="700" on="0"/>
        <pt x="389" y="664" on="0"/>
        <pt x="492" y="587" on="0"/>
        <pt x="551" y="448" on="0"/>
        <pt x="551" y="354" on="1"/>
        <pt x="551" y="196" on="0"/>
        <pt x="354" y="0" on="0"/>
        <pt x="206" y="0" on="1"/>
        <pt x="70" y="0" on="1"/>
        <pt x="70" y="318" on="1"/>
      </contour>
      <contour>
        <pt x="198" y="612" on="1"/>
        <pt x="164" y="612" on="1"/>
        <pt x="164" y="406" on="1"/>
        <pt x="298" y="406" on="1"/>
        <pt x="298" y="318" on="1"/>
        <pt x="164" y="318" on="1"/>
        <pt x="164" y="88" on="1"/>
        <pt x="218" y="88" on="1"/>
        <pt x="314" y="88" on="0"/>
        <pt x="450" y="230" on="0"/>
        <pt x="450" y="356" on="1"/>
        <pt x="450" y="478" on="0"/>
        <pt x="317" y="612" on="0"/>
      </contour>
    </TTGlyph>
    <TTGlyph name="Euro" xMin="-10" yMin="0" xMax="490" yMax="700">
      <contour>
        <pt x="80" y="350" on="1"/>
        <pt x="80" y="371" on="0"/>
        <pt x="81" y="381" on="1"/>
        <pt x="10" y="381" on="1"/>
        <pt x="10" y="459" on="1"/>
        <pt x="92" y="459" on="1"/>
        <pt x="120" y="575" on="0"/>
        <pt x="293" y="700" on="0"/>
        <pt x="425" y="700" on="1"/>
        <pt x="490" y="700" on="1"/>
        <pt x="490" y="612" on="1"/>
        <pt x="413" y="612" on="1"/>
        <pt x="331" y="612" on="0"/>
        <pt x="222" y="530" on="0"/>
        <pt x="198" y="459" on="1"/>
        <pt x="420" y="459" on="1"/>
        <pt x="420" y="381" on="1"/>
        <pt x="182" y="381" on="1"/>
        <pt x="181" y="371" on="0"/>
        <pt x="181" y="350" on="1"/>
        <pt x="181" y="337" on="0"/>
        <pt x="182" y="331" on="1"/>
        <pt x="400" y="331" on="1"/>
        <pt x="400" y="253" on="1"/>
        <pt x="195" y="253" on="1"/>
        <pt x="217" y="177" on="0"/>
        <pt x="328" y="88" on="0"/>
        <pt x="413" y="88" on="1"/>
        <pt x="490" y="88" on="1"/>
        <pt x="490" y="0" on="1"/>
        <pt x="425" y="0" on="1"/>
        <pt x="289" y="0" on="0"/>
        <pt x="115" y="131" on="0"/>
        <pt x="90" y="253" on="1"/>
        <pt x="-10" y="253" on="1"/>
        <pt x="-10" y="331" on="1"/>
        <pt x="80" y="331" on="1"/>
      </contour>
    </TTGlyph>
    <TTGlyph name="F" xMin="65" yMin="0" xMax="388" yMax="700">
      <contour>
        <pt x="159" y="520" on="1"/>
        <pt x="159" y="386" on="1"/>
        <pt x="345" y="386" on="1"/>
        <pt x="345" y="298" on="1"/>
        <pt x="159" y="298" on="1"/>
        <pt x="159" y="0" on="1"/>
        <pt x="65" y="0" on="1"/>
        <pt x="65" y="533" on="1"/>
        <pt x="65" y="607" on="0"/>
        <pt x="112" y="652" on="1"/>
        <pt x="144" y="682" on="0"/>
        <pt x="224" y="700" on="0"/>
        <pt x="282" y="700" on="1"/>
        <pt x="388" y="700" on="1"/>
        <pt x="388" y="612" on="1"/>
        <pt x="269" y="612" on="1"/>
        <pt x="159" y="612" on="0"/>
      </contour>
    </TTGlyph>
    <TTGlyph name="G" xMin="60" yMin="0" xMax="559" yMax="700">
      <contour>
        <pt x="393" y="88" on="1"/>
        <pt x="465" y="88" on="1"/>
        <pt x="465" y="298" on="1"/>
        <pt x="362" y="298" on="1"/>
        <pt x="362" y="386" on="1"/>
        <pt x="559" y="386" on="1"/>
        <pt x="559" y="0" on="1"/>
        <pt x="405" y="0" on="1"/>
        <pt x="244" y="0" on="0"/>
        <pt x="61" y="183" on="0"/>
        <pt x="60" y="350" on="1"/>
        <pt x="61" y="517" on="0"/>
        <pt x="244" y="700" on="0"/>
        <pt x="405" y="700" on="1"/>
        <pt x="520" y="700" on="1"/>
        <pt x="520" y="612" on="1"/>
        <pt x="393" y="612" on="1"/>
        <pt x="282" y="612" on="0"/>
        <pt x="163" y="465" on="0"/>
        <pt x="161" y="350" on="1"/>
        <pt x="163" y="235" on="0"/>
        <pt x="282" y="88" on="0"/>
      </contour>
    </TTGlyph>
    <TTGlyph name="H" xMin="70" yMin="0" xMax="562" yMax="700">
      <contour>
        <pt x="164" y="0" on="1"/>
        <pt x="70" y="0" on="1"/>
        <pt x="70" y="700" on="1"/>
        <pt x="164" y="700" on="1"/>
        <pt x="164" y="406" on="1"/>
        <pt x="468" y="406" on="1"/>
        <pt x="468" y="700" on="1"/>
        <pt x="562" y="700" on="1"/>
        <pt x="562" y="0" on="1"/>
        <pt x="468" y="0" on="1"/>
        <pt x="468" y="318" on="1"/>
        <pt x="164" y="318" on="1"/>
      </contour>
    </TTGlyph>
    <TTGlyph name="I" xMin="70" yMin="0" xMax="164" yMax="700">
      <contour>
        <pt x="164" y="0" on="1"/>
        <pt x="70" y="0" on="1"/>
        <pt x="70" y="700" on="1"/>
        <pt x="164" y="700" on="1"/>
      </contour>
    </TTGlyph>
    <TTGlyph name="Iacute" xMin="67" yMin="0" xMax="247" yMax="935">
      <component glyphName="I" x="0" y="0" flags="0x204"/>
      <component glyphName="acute" x="32" y="220" flags="0x4"/>
    </TTGlyph>
    <TTGlyph name="Icircumflex" xMin="-42" yMin="0" xMax="279" yMax="920">
      <component glyphName="I" x="0" y="0" flags="0x204"/>
      <component glyphName="circumflex" x="-73" y="220" flags="0x4"/>
    </TTGlyph>
    <TTGlyph name="Idieresis" xMin="-28" yMin="0" xMax="264" yMax="900">
      <component glyphName="I" x="0" y="0" flags="0x204"/>
      <component glyphName="dieresis" x="-63" y="220" flags="0x4"/>
    </TTGlyph>
    <TTGlyph name="Igrave" xMin="-2" yMin="0" xMax="178" yMax="935">
      <component glyphName="I" x="0" y="0" flags="0x204"/>
      <component glyphName="grave" x="-37" y="220" flags="0x4"/>
    </TTGlyph>
    <TTGlyph name="J" xMin="35" yMin="0" xMax="318" yMax="700">
      <contour>
        <pt x="224" y="180" on="1"/>
        <pt x="224" y="612" on="1"/>
        <pt x="38" y="612" on="1"/>
        <pt x="38" y="700" on="1"/>
        <pt x="318" y="700" on="1"/>
        <pt x="318" y="167" on="1"/>
        <pt x="318" y="93" on="0"/>
        <pt x="271" y="48" on="1"/>
        <pt x="239" y="18" on="0"/>
        <pt x="159" y="0" on="0"/>
        <pt x="101" y="0" on="1"/>
        <pt x="35" y="0" on="1"/>
        <pt x="35" y="88" on="1"/>
        <pt x="114" y="88" on="1"/>
        <pt x="224" y="88" on="0"/>
      </contour>
    </TTGlyph>
    <TTGlyph name="K" xMin="70" yMin="0" xMax="498" yMax="700">
      <contour>
        <pt x="498" y="125" on="1"/>
        <pt x="498" y="0" on="1"/>
        <pt x="402" y="0" on="1"/>
        <pt x="402" y="125" on="1"/>
        <pt x="402" y="238" on="0"/>
        <pt x="303" y="331" on="0"/>
        <pt x="164" y="332" on="1"/>
        <pt x="164" y="0" on="1"/>
        <pt x="70" y="0" on="1"/>
        <pt x="70" y="700" on="1"/>
        <pt x="164" y="700" on="1"/>
        <pt x="164" y="415" on="1"/>
        <pt x="238" y="413" on="0"/>
        <pt x="252" y="411" on="1"/>
        <pt x="393" y="700" on="1"/>
        <pt x="495" y="700" on="1"/>
        <pt x="337" y="389" on="1"/>
        <pt x="498" y="330" on="0"/>
      </contour>
    </TTGlyph>
    <TTGlyph name="L" xMin="70" yMin="0" xMax="457" yMax="700">
      <contour>
        <pt x="457" y="88" on="1"/>
        <pt x="457" y="0" on="1"/>
        <pt x="311" y="0" on="1"/>
        <pt x="270" y="0" on="0"/>
        <pt x="223" y="3" on="0"/>
        <pt x="153" y="24" on="0"/>
        <pt x="129" y="45" on="1"/>
        <pt x="92" y="79" on="0"/>
        <pt x="70" y="174" on="0"/>
        <pt x="70" y="238" on="1"/>
        <pt x="70" y="700" on="1"/>
        <pt x="164" y="700" on="1"/>
        <pt x="164" y="240" on="1"/>
        <pt x="164" y="182" on="0"/>
        <pt x="177" y="149" on="1"/>
        <pt x="203" y="88" on="0"/>
        <pt x="286" y="88" on="1"/>
      </contour>
    </TTGlyph>
    <TTGlyph name="M" xMin="70" yMin="0" xMax="726" yMax="700">
      <contour>
        <pt x="395" y="217" on="1"/>
        <pt x="401" y="217" on="1"/>
        <pt x="483" y="526" on="1"/>
        <pt x="509" y="626" on="0"/>
        <pt x="617" y="700" on="0"/>
        <pt x="726" y="700" on="1"/>
        <pt x="726" y="0" on="1"/>
        <pt x="632" y="0" on="1"/>
        <pt x="632" y="594" on="1"/>
        <pt x="606" y="583" on="0"/>
        <pt x="579" y="543" on="0"/>
        <pt x="567" y="503" on="1"/>
        <pt x="442" y="74" on="1"/>
        <pt x="354" y="74" on="1"/>
        <pt x="228" y="503" on="1"/>
        <pt x="216" y="544" on="0"/>
        <pt x="190" y="583" on="0"/>
        <pt x="164" y="594" on="1"/>
        <pt x="164" y="0" on="1"/>
        <pt x="70" y="0" on="1"/>
        <pt x="70" y="700" on="1"/>
        <pt x="179" y="700" on="0"/>
        <pt x="286" y="625" on="0"/>
        <pt x="313" y="526" on="1"/>
      </contour>
    </TTGlyph>
    <TTGlyph name="N" xMin="70" yMin="0" xMax="563" yMax="700">
      <contour>
        <pt x="164" y="0" on="1"/>
        <pt x="70" y="0" on="1"/>
        <pt x="70" y="700" on="1"/>
        <pt x="317" y="700" on="1"/>
        <pt x="441" y="700" on="0"/>
        <pt x="563" y="589" on="0"/>
        <pt x="563" y="470" on="1"/>
        <pt x="563" y="0" on="1"/>
        <pt x="469" y="0" on="1"/>
        <pt x="469" y="483" on="1"/>
        <pt x="469" y="551" on="0"/>
        <pt x="386" y="612" on="0"/>
        <pt x="318" y="612" on="1"/>
        <pt x="164" y="612" on="1"/>
      </contour>
    </TTGlyph>
    <TTGlyph name="Ntilde" xMin="66" yMin="0" xMax="559" yMax="896">
      <component glyphName="N" x="-4" y="0" flags="0x4"/>
      <component glyphName="tilde" x="87" y="220" flags="0x4"/>
    </TTGlyph>
    <TTGlyph name="O" xMin="60" yMin="-10" xMax="718" yMax="710">
      <contour>
        <pt x="617" y="347" on="1"/>
        <pt x="616" y="403" on="0"/>
        <pt x="585" y="503" on="0"/>
        <pt x="526" y="578" on="0"/>
        <pt x="442" y="622" on="0"/>
        <pt x="389" y="622" on="1"/>
        <pt x="336" y="622" on="0"/>
        <pt x="252" y="578" on="0"/>
        <pt x="193" y="503" on="0"/>
        <pt x="162" y="403" on="0"/>
        <pt x="161" y="347" on="1"/>
        <pt x="162" y="290" on="0"/>
        <pt x="193" y="192" on="0"/>
        <pt x="252" y="120" on="0"/>
        <pt x="336" y="78" on="0"/>
        <pt x="389" y="78" on="1"/>
        <pt x="442" y="78" on="0"/>
        <pt x="526" y="120" on="0"/>
        <pt x="585" y="192" on="0"/>
        <pt x="616" y="290" on="0"/>
      </contour>
      <contour>
        <pt x="60" y="347" on="1"/>
        <pt x="61" y="430" on="0"/>
        <pt x="109" y="564" on="0"/>
        <pt x="195" y="659" on="0"/>
        <pt x="315" y="710" on="0"/>
        <pt x="389" y="710" on="1"/>
        <pt x="462" y="710" on="0"/>
        <pt x="583" y="659" on="0"/>
        <pt x="669" y="564" on="0"/>
        <pt x="717" y="430" on="0"/>
        <pt x="718" y="347" on="1"/>
        <pt x="717" y="264" on="0"/>
        <pt x="670" y="132" on="0"/>
        <pt x="584" y="40" on="0"/>
        <pt x="463" y="-10" on="0"/>
        <pt x="389" y="-10" on="1"/>
        <pt x="315" y="-10" on="0"/>
        <pt x="194" y="40" on="0"/>
        <pt x="108" y="132" on="0"/>
        <pt x="61" y="264" on="0"/>
      </contour>
    </TTGlyph>
    <TTGlyph name="OE" xMin="83" yMin="-10" xMax="1038" yMax="710">
      <contour>
        <pt x="640" y="347" on="1"/>
        <pt x="639" y="403" on="0"/>
        <pt x="608" y="503" on="0"/>
        <pt x="549" y="578" on="0"/>
        <pt x="465" y="622" on="0"/>
        <pt x="412" y="622" on="1"/>
        <pt x="359" y="622" on="0"/>
        <pt x="275" y="578" on="0"/>
        <pt x="216" y="503" on="0"/>
        <pt x="185" y="403" on="0"/>
        <pt x="184" y="347" on="1"/>
        <pt x="185" y="290" on="0"/>
        <pt x="216" y="192" on="0"/>
        <pt x="275" y="120" on="0"/>
        <pt x="359" y="78" on="0"/>
        <pt x="412" y="78" on="1"/>
        <pt x="465" y="78" on="0"/>
        <pt x="549" y="120" on="0"/>
        <pt x="608" y="192" on="0"/>
        <pt x="639" y="290" on="0"/>
      </contour>
      <contour>
        <pt x="1038" y="0" on="1"/>
        <pt x="640" y="0" on="1"/>
        <pt x="640" y="82" on="1"/>
        <pt x="557" y="-10" on="0"/>
        <pt x="412" y="-10" on="1"/>
        <pt x="264" y="-10" on="0"/>
        <pt x="84" y="181" on="0"/>
        <pt x="83" y="347" on="1"/>
        <pt x="84" y="513" on="0"/>
        <pt x="264" y="710" on="0"/>
        <pt x="412" y="710" on="1"/>
        <pt x="566" y="710" on="0"/>
        <pt x="652" y="600" on="1"/>
        <pt x="664" y="631" on="0"/>
        <pt x="687" y="652" on="1"/>
        <pt x="719" y="682" on="0"/>
        <pt x="799" y="700" on="0"/>
        <pt x="857" y="700" on="1"/>
        <pt x="1038" y="700" on="1"/>
        <pt x="1038" y="612" on="1"/>
        <pt x="844" y="612" on="1"/>
        <pt x="734" y="612" on="0"/>
        <pt x="734" y="520" on="1"/>
        <pt x="734" y="406" on="1"/>
        <pt x="965" y="406" on="1"/>
        <pt x="965" y="318" on="1"/>
        <pt x="734" y="318" on="1"/>
        <pt x="734" y="88" on="1"/>
        <pt x="1038" y="88" on="1"/>
      </contour>
    </TTGlyph>
    <TTGlyph name="Oacute" xMin="60" yMin="-10" xMax="718" yMax="935">
      <component glyphName="O" x="0" y="0" flags="0x204"/>
      <component glyphName="acute" x="294" y="220" flags="0x4"/>
    </TTGlyph>
    <TTGlyph name="Ocircumflex" xMin="60" yMin="-10" xMax="718" yMax="920">
      <component glyphName="O" x="0" y="0" flags="0x204"/>
      <component glyphName="circumflex" x="197" y="220" flags="0x4"/>
    </TTGlyph>
    <TTGlyph name="Odieresis" xMin="60" yMin="-10" xMax="718" yMax="900">
      <component glyphName="O" x="0" y="0" flags="0x204"/>
      <component glyphName="dieresis" x="208" y="220" flags="0x4"/>
    </TTGlyph>
    <TTGlyph name="Ograve" xMin="60" yMin="-10" xMax="718" yMax="935">
      <component glyphName="O" x="0" y="0" flags="0x204"/>
      <component glyphName="grave" x="224" y="220" flags="0x4"/>
    </TTGlyph>
    <TTGlyph name="Oslash" xMin="58" yMin="-10" xMax="769" yMax="710">
      <contour>
        <pt x="412" y="-10" on="1"/>
        <pt x="288" y="-10" on="0"/>
        <pt x="203" y="58" on="1"/>
        <pt x="154" y="0" on="1"/>
        <pt x="58" y="0" on="1"/>
        <pt x="153" y="111" on="1"/>
        <pt x="84" y="204" on="0"/>
        <pt x="83" y="347" on="1"/>
        <pt x="84" y="513" on="0"/>
        <pt x="264" y="710" on="0"/>
        <pt x="412" y="710" on="1"/>
        <pt x="538" y="710" on="0"/>
        <pt x="622" y="638" on="1"/>
        <pt x="674" y="700" on="1"/>
        <pt x="769" y="700" on="1"/>
        <pt x="672" y="584" on="1"/>
        <pt x="740" y="488" on="0"/>
        <pt x="741" y="347" on="1"/>
        <pt x="740" y="181" on="0"/>
        <pt x="560" y="-10" on="0"/>
      </contour>
      <contour>
        <pt x="184" y="347" on="1"/>
        <pt x="186" y="251" on="0"/>
        <pt x="225" y="184" on="1"/>
        <pt x="553" y="569" on="1"/>
        <pt x="495" y="622" on="0"/>
        <pt x="412" y="622" on="1"/>
        <pt x="306" y="622" on="0"/>
        <pt x="186" y="463" on="0"/>
      </contour>
      <contour>
        <pt x="412" y="78" on="1"/>
        <pt x="518" y="78" on="0"/>
        <pt x="638" y="232" on="0"/>
        <pt x="640" y="347" on="1"/>
        <pt x="638" y="440" on="0"/>
        <pt x="599" y="511" on="1"/>
        <pt x="272" y="127" on="1"/>
        <pt x="329" y="78" on="0"/>
      </contour>
    </TTGlyph>
    <TTGlyph name="Otilde" xMin="60" yMin="-10" xMax="718" yMax="896">
      <component glyphName="O" x="0" y="0" flags="0x204"/>
      <component glyphName="tilde" x="175" y="220" flags="0x4"/>
    </TTGlyph>
    <TTGlyph name="P" xMin="65" yMin="0" xMax="532" yMax="710">
      <contour>
        <pt x="159" y="0" on="1"/>
        <pt x="65" y="0" on="1"/>
        <pt x="65" y="460" on="1"/>
        <pt x="65" y="578" on="0"/>
        <pt x="192" y="710" on="0"/>
        <pt x="297" y="710" on="1"/>
        <pt x="409" y="710" on="0"/>
        <pt x="532" y="582" on="0"/>
        <pt x="532" y="483" on="1"/>
        <pt x="532" y="421" on="0"/>
        <pt x="487" y="329" on="0"/>
        <pt x="411" y="279" on="0"/>
        <pt x="325" y="255" on="0"/>
        <pt x="278" y="255" on="1"/>
        <pt x="203" y="255" on="1"/>
        <pt x="203" y="343" on="1"/>
        <pt x="289" y="343" on="1"/>
        <pt x="356" y="343" on="0"/>
        <pt x="433" y="424" on="0"/>
        <pt x="433" y="485" on="1"/>
        <pt x="433" y="545" on="0"/>
        <pt x="362" y="622" on="0"/>
        <pt x="296" y="622" on="1"/>
        <pt x="232" y="622" on="0"/>
        <pt x="159" y="535" on="0"/>
        <pt x="159" y="464" on="1"/>
      </contour>
    </TTGlyph>
    <TTGlyph name="Q" xMin="60" yMin="-149" xMax="722" yMax="710">
      <contour>
        <pt x="653" y="-60" on="1"/>
        <pt x="722" y="-60" on="1"/>
        <pt x="722" y="-149" on="1"/>
        <pt x="651" y="-149" on="1"/>
        <pt x="598" y="-149" on="0"/>
        <pt x="523" y="-106" on="0"/>
        <pt x="463" y="-53" on="0"/>
        <pt x="408" y="-10" on="0"/>
        <pt x="375" y="-10" on="1"/>
        <pt x="374" y="-9" on="1"/>
        <pt x="303" y="-7" on="0"/>
        <pt x="187" y="45" on="0"/>
        <pt x="106" y="137" on="0"/>
        <pt x="61" y="267" on="0"/>
        <pt x="60" y="347" on="1"/>
        <pt x="61" y="430" on="0"/>
        <pt x="109" y="564" on="0"/>
        <pt x="195" y="659" on="0"/>
        <pt x="315" y="710" on="0"/>
        <pt x="389" y="710" on="1"/>
        <pt x="462" y="710" on="0"/>
        <pt x="583" y="659" on="0"/>
        <pt x="669" y="564" on="0"/>
        <pt x="717" y="430" on="0"/>
        <pt x="718" y="347" on="1"/>
        <pt x="717" y="218" on="0"/>
        <pt x="609" y="45" on="0"/>
        <pt x="512" y="10" on="1"/>
        <pt x="543" y="-16" on="0"/>
        <pt x="608" y="-60" on="0"/>
      </contour>
      <contour>
        <pt x="617" y="347" on="1"/>
        <pt x="616" y="403" on="0"/>
        <pt x="585" y="503" on="0"/>
        <pt x="526" y="578" on="0"/>
        <pt x="442" y="622" on="0"/>
        <pt x="389" y="622" on="1"/>
        <pt x="336" y="622" on="0"/>
        <pt x="252" y="578" on="0"/>
        <pt x="193" y="503" on="0"/>
        <pt x="162" y="403" on="0"/>
        <pt x="161" y="347" on="1"/>
        <pt x="162" y="290" on="0"/>
        <pt x="193" y="192" on="0"/>
        <pt x="252" y="120" on="0"/>
        <pt x="336" y="78" on="0"/>
        <pt x="389" y="78" on="1"/>
        <pt x="442" y="78" on="0"/>
        <pt x="526" y="120" on="0"/>
        <pt x="585" y="192" on="0"/>
        <pt x="616" y="290" on="0"/>
      </contour>
    </TTGlyph>
    <TTGlyph name="R" xMin="65" yMin="0" xMax="524" yMax="710">
      <contour>
        <pt x="65" y="0" on="1"/>
        <pt x="65" y="455" on="1"/>
        <pt x="65" y="576" on="0"/>
        <pt x="184" y="710" on="0"/>
        <pt x="294" y="710" on="1"/>
        <pt x="405" y="710" on="0"/>
        <pt x="524" y="602" on="0"/>
        <pt x="524" y="504" on="1"/>
        <pt x="524" y="441" on="0"/>
        <pt x="464" y="361" on="0"/>
        <pt x="392" y="338" on="1"/>
        <pt x="392" y="334" on="1"/>
        <pt x="467" y="305" on="0"/>
        <pt x="518" y="198" on="0"/>
        <pt x="518" y="75" on="1"/>
        <pt x="518" y="0" on="1"/>
        <pt x="424" y="0" on="1"/>
        <pt x="424" y="128" on="1"/>
        <pt x="424" y="204" on="0"/>
        <pt x="338" y="289" on="0"/>
        <pt x="257" y="289" on="1"/>
        <pt x="203" y="289" on="1"/>
        <pt x="203" y="377" on="1"/>
        <pt x="260" y="377" on="1"/>
        <pt x="356" y="377" on="0"/>
        <pt x="430" y="455" on="0"/>
        <pt x="430" y="509" on="1"/>
        <pt x="430" y="560" on="0"/>
        <pt x="357" y="622" on="0"/>
        <pt x="297" y="622" on="1"/>
        <pt x="228" y="622" on="0"/>
        <pt x="159" y="544" on="0"/>
        <pt x="159" y="455" on="1"/>
        <pt x="159" y="0" on="1"/>
      </contour>
    </TTGlyph>
    <TTGlyph name="S" xMin="45" yMin="0" xMax="464" yMax="700">
      <contour>
        <pt x="423" y="700" on="1"/>
        <pt x="423" y="612" on="1"/>
        <pt x="246" y="612" on="1"/>
        <pt x="145" y="612" on="0"/>
        <pt x="145" y="530" on="1"/>
        <pt x="145" y="486" on="0"/>
        <pt x="234" y="425" on="0"/>
        <pt x="310" y="397" on="1"/>
        <pt x="344" y="384" on="0"/>
        <pt x="392" y="357" on="0"/>
        <pt x="440" y="313" on="0"/>
        <pt x="464" y="244" on="0"/>
        <pt x="464" y="199" on="1"/>
        <pt x="464" y="149" on="0"/>
        <pt x="422" y="70" on="0"/>
        <pt x="356" y="25" on="0"/>
        <pt x="287" y="2" on="0"/>
        <pt x="254" y="1" on="1"/>
        <pt x="240" y="0" on="0"/>
        <pt x="214" y="0" on="1"/>
        <pt x="58" y="0" on="1"/>
        <pt x="58" y="88" on="1"/>
        <pt x="211" y="88" on="1"/>
        <pt x="279" y="88" on="0"/>
        <pt x="365" y="145" on="0"/>
        <pt x="365" y="200" on="1"/>
        <pt x="365" y="227" on="0"/>
        <pt x="341" y="268" on="0"/>
        <pt x="296" y="298" on="0"/>
        <pt x="249" y="320" on="0"/>
        <pt x="216" y="332" on="1"/>
        <pt x="207" y="335" on="0"/>
        <pt x="202" y="337" on="1"/>
        <pt x="45" y="397" on="0"/>
        <pt x="45" y="533" on="1"/>
        <pt x="45" y="617" on="0"/>
        <pt x="153" y="700" on="0"/>
        <pt x="240" y="700" on="1"/>
      </contour>
    </TTGlyph>
    <TTGlyph name="T" xMin="25" yMin="0" xMax="465" yMax="700">
      <contour>
        <pt x="25" y="612" on="1"/>
        <pt x="25" y="700" on="1"/>
        <pt x="465" y="700" on="1"/>
        <pt x="465" y="612" on="1"/>
        <pt x="292" y="612" on="1"/>
        <pt x="292" y="0" on="1"/>
        <pt x="198" y="0" on="1"/>
        <pt x="198" y="612" on="1"/>
      </contour>
    </TTGlyph>
    <TTGlyph name="Thorn" xMin="45" yMin="0" xMax="513" yMax="700">
      <contour>
        <pt x="277" y="526" on="1"/>
        <pt x="139" y="526" on="1"/>
        <pt x="139" y="0" on="1"/>
        <pt x="45" y="0" on="1"/>
        <pt x="45" y="700" on="1"/>
        <pt x="139" y="700" on="1"/>
        <pt x="139" y="614" on="1"/>
        <pt x="278" y="614" on="1"/>
        <pt x="390" y="614" on="0"/>
        <pt x="513" y="486" on="0"/>
        <pt x="513" y="387" on="1"/>
        <pt x="513" y="325" on="0"/>
        <pt x="468" y="233" on="0"/>
        <pt x="392" y="183" on="0"/>
        <pt x="306" y="159" on="0"/>
        <pt x="259" y="159" on="1"/>
        <pt x="184" y="159" on="1"/>
        <pt x="184" y="247" on="1"/>
        <pt x="270" y="247" on="1"/>
        <pt x="337" y="247" on="0"/>
        <pt x="414" y="328" on="0"/>
        <pt x="414" y="389" on="1"/>
        <pt x="414" y="449" on="0"/>
        <pt x="343" y="526" on="0"/>
      </contour>
    </TTGlyph>
    <TTGlyph name="U" xMin="65" yMin="-10" xMax="558" yMax="700">
      <contour>
        <pt x="464" y="700" on="1"/>
        <pt x="558" y="700" on="1"/>
        <pt x="558" y="220" on="1"/>
        <pt x="558" y="101" on="0"/>
        <pt x="435" y="-10" on="0"/>
        <pt x="187" y="-10" on="0"/>
        <pt x="65" y="101" on="0"/>
        <pt x="65" y="220" on="1"/>
        <pt x="65" y="700" on="1"/>
        <pt x="159" y="700" on="1"/>
        <pt x="159" y="207" on="1"/>
        <pt x="159" y="139" on="0"/>
        <pt x="242" y="78" on="0"/>
        <pt x="310" y="78" on="1"/>
        <pt x="380" y="78" on="0"/>
        <pt x="464" y="139" on="0"/>
        <pt x="464" y="207" on="1"/>
      </contour>
    </TTGlyph>
    <TTGlyph name="Uacute" xMin="65" yMin="-10" xMax="558" yMax="935">
      <component glyphName="U" x="0" y="0" flags="0x204"/>
      <component glyphName="acute" x="206" y="220" flags="0x4"/>
    </TTGlyph>
    <TTGlyph name="Ucircumflex" xMin="65" yMin="-10" xMax="558" yMax="920">
      <component glyphName="U" x="0" y="0" flags="0x204"/>
      <component glyphName="circumflex" x="130" y="220" flags="0x4"/>
    </TTGlyph>
    <TTGlyph name="Udieresis" xMin="65" yMin="-10" xMax="558" yMax="900">
      <component glyphName="U" x="0" y="0" flags="0x204"/>
      <component glyphName="dieresis" x="140" y="220" flags="0x4"/>
    </TTGlyph>
    <TTGlyph name="Ugrave" xMin="65" yMin="-10" xMax="558" yMax="935">
      <component glyphName="U" x="0" y="0" flags="0x204"/>
      <component glyphName="grave" x="157" y="220" flags="0x4"/>
    </TTGlyph>
    <TTGlyph name="V" xMin="55" yMin="-20" xMax="548" yMax="700">
      <contour>
        <pt x="548" y="700" on="1"/>
        <pt x="548" y="363" on="1"/>
        <pt x="548" y="228" on="0"/>
        <pt x="424" y="29" on="0"/>
        <pt x="302" y="-20" on="1"/>
        <pt x="181" y="28" on="0"/>
        <pt x="55" y="222" on="0"/>
        <pt x="55" y="354" on="1"/>
        <pt x="55" y="700" on="1"/>
        <pt x="151" y="700" on="1"/>
        <pt x="151" y="366" on="1"/>
        <pt x="151" y="266" on="0"/>
        <pt x="217" y="130" on="0"/>
        <pt x="303" y="83" on="1"/>
        <pt x="387" y="131" on="0"/>
        <pt x="454" y="267" on="0"/>
        <pt x="454" y="366" on="1"/>
        <pt x="454" y="700" on="1"/>
      </contour>
    </TTGlyph>
    <TTGlyph name="W" xMin="55" yMin="-20" xMax="771" yMax="700">
      <contour>
        <pt x="576" y="90" on="1"/>
        <pt x="652" y="166" on="0"/>
        <pt x="661" y="328" on="1"/>
        <pt x="681" y="700" on="1"/>
        <pt x="771" y="700" on="1"/>
        <pt x="751" y="324" on="1"/>
        <pt x="744" y="192" on="0"/>
        <pt x="665" y="36" on="0"/>
        <pt x="574" y="-20" on="1"/>
        <pt x="494" y="37" on="0"/>
        <pt x="432" y="204" on="0"/>
        <pt x="415" y="347" on="1"/>
        <pt x="411" y="347" on="1"/>
        <pt x="403" y="198" on="0"/>
        <pt x="342" y="52" on="0"/>
        <pt x="252" y="-20" on="1"/>
        <pt x="161" y="36" on="0"/>
        <pt x="82" y="192" on="0"/>
        <pt x="75" y="324" on="1"/>
        <pt x="55" y="700" on="1"/>
        <pt x="145" y="700" on="1"/>
        <pt x="165" y="328" on="1"/>
        <pt x="174" y="166" on="0"/>
        <pt x="250" y="90" on="1"/>
        <pt x="299" y="132" on="0"/>
        <pt x="347" y="299" on="0"/>
        <pt x="368" y="480" on="1"/>
        <pt x="458" y="480" on="1"/>
        <pt x="486" y="324" on="0"/>
        <pt x="532" y="152" on="0"/>
        <pt x="557" y="106" on="0"/>
      </contour>
    </TTGlyph>
    <TTGlyph name="X" xMin="45" yMin="0" xMax="518" yMax="700">
      <contour>
        <pt x="45" y="688" on="1"/>
        <pt x="45" y="700" on="1"/>
        <pt x="139" y="700" on="1"/>
        <pt x="139" y="688" on="1"/>
        <pt x="139" y="488" on="0"/>
        <pt x="280" y="407" on="1"/>
        <pt x="359" y="451" on="0"/>
        <pt x="422" y="591" on="0"/>
        <pt x="422" y="688" on="1"/>
        <pt x="422" y="700" on="1"/>
        <pt x="518" y="700" on="1"/>
        <pt x="518" y="679" on="1"/>
        <pt x="518" y="471" on="0"/>
        <pt x="364" y="366" on="1"/>
        <pt x="518" y="259" on="0"/>
        <pt x="518" y="53" on="1"/>
        <pt x="518" y="0" on="1"/>
        <pt x="422" y="0" on="1"/>
        <pt x="422" y="44" on="1"/>
        <pt x="422" y="141" on="0"/>
        <pt x="359" y="281" on="0"/>
        <pt x="280" y="325" on="1"/>
        <pt x="139" y="244" on="0"/>
        <pt x="139" y="44" on="1"/>
        <pt x="139" y="0" on="1"/>
        <pt x="45" y="0" on="1"/>
        <pt x="45" y="44" on="1"/>
        <pt x="45" y="258" on="0"/>
        <pt x="199" y="366" on="1"/>
        <pt x="45" y="472" on="0"/>
      </contour>
    </TTGlyph>
    <TTGlyph name="Y" xMin="45" yMin="0" xMax="498" yMax="700">
      <contour>
        <pt x="498" y="700" on="1"/>
        <pt x="498" y="650" on="1"/>
        <pt x="498" y="528" on="0"/>
        <pt x="407" y="325" on="0"/>
        <pt x="320" y="272" on="1"/>
        <pt x="320" y="0" on="1"/>
        <pt x="226" y="0" on="1"/>
        <pt x="226" y="270" on="1"/>
        <pt x="139" y="322" on="0"/>
        <pt x="45" y="521" on="0"/>
        <pt x="45" y="641" on="1"/>
        <pt x="45" y="700" on="1"/>
        <pt x="141" y="700" on="1"/>
        <pt x="141" y="650" on="1"/>
        <pt x="141" y="547" on="0"/>
        <pt x="200" y="400" on="0"/>
        <pt x="273" y="353" on="1"/>
        <pt x="404" y="440" on="0"/>
        <pt x="404" y="650" on="1"/>
        <pt x="404" y="700" on="1"/>
      </contour>
    </TTGlyph>
    <TTGlyph name="Yacute" xMin="45" yMin="0" xMax="498" yMax="935">
      <component glyphName="Y" x="0" y="0" flags="0x204"/>
      <component glyphName="acute" x="176" y="220" flags="0x4"/>
    </TTGlyph>
    <TTGlyph name="Z" xMin="45" yMin="0" xMax="476" yMax="700">
      <contour>
        <pt x="45" y="0" on="1"/>
        <pt x="45" y="44" on="1"/>
        <pt x="45" y="147" on="0"/>
        <pt x="128" y="294" on="0"/>
        <pt x="204" y="366" on="1"/>
        <pt x="252" y="411" on="0"/>
        <pt x="305" y="468" on="0"/>
        <pt x="364" y="563" on="0"/>
        <pt x="375" y="612" on="1"/>
        <pt x="45" y="612" on="1"/>
        <pt x="45" y="700" on="1"/>
        <pt x="474" y="700" on="1"/>
        <pt x="474" y="590" on="0"/>
        <pt x="455" y="538" on="1"/>
        <pt x="412" y="420" on="0"/>
        <pt x="279" y="305" on="1"/>
        <pt x="216" y="252" on="0"/>
        <pt x="151" y="153" on="0"/>
        <pt x="143" y="88" on="1"/>
        <pt x="476" y="88" on="1"/>
        <pt x="476" y="0" on="1"/>
      </contour>
    </TTGlyph>
    <TTGlyph name="a" xMin="45" yMin="0" xMax="453" yMax="480">
      <contour>
        <pt x="327" y="282" on="1"/>
        <pt x="327" y="192" on="1"/>
        <pt x="289" y="221" on="0"/>
        <pt x="234" y="221" on="1"/>
        <pt x="187" y="221" on="0"/>
        <pt x="135" y="184" on="0"/>
        <pt x="135" y="150" on="1"/>
        <pt x="135" y="84" on="0"/>
        <pt x="233" y="84" on="1"/>
        <pt x="365" y="84" on="1"/>
        <pt x="365" y="275" on="1"/>
        <pt x="365" y="396" on="0"/>
        <pt x="247" y="396" on="1"/>
        <pt x="87" y="396" on="1"/>
        <pt x="87" y="480" on="1"/>
        <pt x="252" y="480" on="1"/>
        <pt x="349" y="480" on="0"/>
        <pt x="453" y="384" on="0"/>
        <pt x="453" y="294" on="1"/>
        <pt x="453" y="0" on="1"/>
        <pt x="230" y="0" on="1"/>
        <pt x="145" y="0" on="0"/>
        <pt x="45" y="76" on="0"/>
        <pt x="45" y="222" on="0"/>
        <pt x="151" y="298" on="0"/>
        <pt x="231" y="298" on="1"/>
        <pt x="276" y="298" on="0"/>
      </contour>
    </TTGlyph>
    <TTGlyph name="aacute" xMin="45" yMin="0" xMax="453" yMax="715">
      <component glyphName="a" x="0" y="0" flags="0x204"/>
      <component glyphName="acute" x="166" y="0" flags="0x4"/>
    </TTGlyph>
    <TTGlyph name="acircumflex" xMin="45" yMin="0" xMax="453" yMax="700">
      <component glyphName="a" x="0" y="0" flags="0x204"/>
      <component glyphName="circumflex" x="60" y="0" flags="0x4"/>
    </TTGlyph>
    <TTGlyph name="acute" xMin="35" yMin="525" xMax="215" yMax="715">
      <contour>
        <pt x="87" y="525" on="1"/>
        <pt x="35" y="567" on="1"/>
        <pt x="153" y="715" on="1"/>
        <pt x="215" y="653" on="1"/>
      </contour>
    </TTGlyph>
    <TTGlyph name="adieresis" xMin="45" yMin="0" xMax="453" yMax="680">
      <component glyphName="a" x="0" y="0" flags="0x204"/>
      <component glyphName="dieresis" x="60" y="0" flags="0x4"/>
    </TTGlyph>
    <TTGlyph name="ae" xMin="45" yMin="-10" xMax="786" yMax="490">
      <contour>
        <pt x="308" y="288" on="1"/>
        <pt x="309" y="204" on="1"/>
        <pt x="278" y="221" on="0"/>
        <pt x="234" y="221" on="1"/>
        <pt x="187" y="221" on="0"/>
        <pt x="135" y="184" on="0"/>
        <pt x="135" y="116" on="0"/>
        <pt x="188" y="78" on="0"/>
        <pt x="234" y="78" on="1"/>
        <pt x="311" y="78" on="0"/>
        <pt x="383" y="134" on="1"/>
        <pt x="366" y="179" on="0"/>
        <pt x="366" y="230" on="1"/>
        <pt x="366" y="232" on="0"/>
        <pt x="367" y="260" on="0"/>
        <pt x="367" y="275" on="1"/>
        <pt x="367" y="396" on="0"/>
        <pt x="247" y="396" on="1"/>
        <pt x="87" y="396" on="1"/>
        <pt x="87" y="480" on="1"/>
        <pt x="252" y="480" on="1"/>
        <pt x="370" y="480" on="0"/>
        <pt x="421" y="408" on="1"/>
        <pt x="488" y="490" on="0"/>
        <pt x="616" y="490" on="1"/>
        <pt x="786" y="490" on="0"/>
        <pt x="786" y="349" on="1"/>
        <pt x="786" y="182" on="0"/>
        <pt x="567" y="182" on="1"/>
        <pt x="526" y="182" on="1"/>
        <pt x="526" y="259" on="1"/>
        <pt x="574" y="259" on="1"/>
        <pt x="641" y="259" on="0"/>
        <pt x="693" y="300" on="0"/>
        <pt x="693" y="348" on="1"/>
        <pt x="693" y="379" on="0"/>
        <pt x="647" y="410" on="0"/>
        <pt x="611" y="410" on="1"/>
        <pt x="540" y="410" on="0"/>
        <pt x="459" y="310" on="0"/>
        <pt x="459" y="240" on="1"/>
        <pt x="459" y="166" on="0"/>
        <pt x="546" y="74" on="0"/>
        <pt x="616" y="74" on="1"/>
        <pt x="679" y="74" on="0"/>
        <pt x="719" y="105" on="1"/>
        <pt x="779" y="46" on="1"/>
        <pt x="710" y="-10" on="0"/>
        <pt x="616" y="-10" on="1"/>
        <pt x="491" y="-10" on="0"/>
        <pt x="423" y="69" on="1"/>
        <pt x="330" y="1" on="0"/>
        <pt x="231" y="1" on="1"/>
        <pt x="151" y="1" on="0"/>
        <pt x="45" y="78" on="0"/>
        <pt x="45" y="224" on="0"/>
        <pt x="150" y="298" on="0"/>
        <pt x="231" y="298" on="1"/>
        <pt x="272" y="298" on="0"/>
      </contour>
    </TTGlyph>
    <TTGlyph name="agrave" xMin="45" yMin="0" xMax="453" yMax="715">
      <component glyphName="a" x="0" y="0" flags="0x204"/>
      <component glyphName="grave" x="116" y="0" flags="0x4"/>
    </TTGlyph>
    <TTGlyph name="ampersand" xMin="55" yMin="-10" xMax="566" yMax="710">
      <contour>
        <pt x="295" y="710" on="1"/>
        <pt x="479" y="710" on="0"/>
        <pt x="487" y="543" on="1"/>
        <pt x="392" y="543" on="1"/>
        <pt x="383" y="621" on="0"/>
        <pt x="282" y="622" on="1"/>
        <pt x="172" y="622" on="0"/>
        <pt x="172" y="530" on="1"/>
        <pt x="172" y="463" on="0"/>
        <pt x="254" y="416" on="0"/>
        <pt x="307" y="416" on="1"/>
        <pt x="566" y="416" on="1"/>
        <pt x="566" y="328" on="1"/>
        <pt x="510" y="328" on="1"/>
        <pt x="510" y="199" on="1"/>
        <pt x="507" y="137" on="0"/>
        <pt x="468" y="59" on="0"/>
        <pt x="420" y="19" on="0"/>
        <pt x="354" y="-5" on="0"/>
        <pt x="308" y="-10" on="0"/>
        <pt x="283" y="-10" on="1"/>
        <pt x="162" y="-10" on="0"/>
        <pt x="101" y="60" on="1"/>
        <pt x="55" y="111" on="0"/>
        <pt x="55" y="199" on="1"/>
        <pt x="55" y="260" on="0"/>
        <pt x="120" y="354" on="0"/>
        <pt x="185" y="372" on="1"/>
        <pt x="185" y="376" on="1"/>
        <pt x="78" y="413" on="0"/>
        <pt x="78" y="543" on="1"/>
        <pt x="78" y="617" on="0"/>
        <pt x="125" y="662" on="1"/>
        <pt x="157" y="692" on="0"/>
        <pt x="237" y="710" on="0"/>
      </contour>
      <contour>
        <pt x="289" y="78" on="1"/>
        <pt x="341" y="78" on="0"/>
        <pt x="412" y="134" on="0"/>
        <pt x="416" y="206" on="1"/>
        <pt x="417" y="206" on="1"/>
        <pt x="417" y="328" on="1"/>
        <pt x="319" y="328" on="1"/>
        <pt x="232" y="328" on="0"/>
        <pt x="149" y="274" on="0"/>
        <pt x="149" y="206" on="1"/>
        <pt x="149" y="142" on="0"/>
        <pt x="221" y="78" on="0"/>
      </contour>
    </TTGlyph>
    <TTGlyph name="aring" xMin="45" yMin="0" xMax="453" yMax="722">
      <component glyphName="a" x="0" y="0" flags="0x204"/>
      <component glyphName="ring" x="117" y="0" flags="0x4"/>
    </TTGlyph>
    <TTGlyph name="asciicircum" xMin="45" yMin="326" xMax="533" yMax="700">
      <contour>
        <pt x="289" y="614" on="1"/>
        <pt x="129" y="326" on="1"/>
        <pt x="45" y="326" on="1"/>
        <pt x="251" y="700" on="1"/>
        <pt x="327" y="700" on="1"/>
        <pt x="533" y="326" on="1"/>
        <pt x="449" y="326" on="1"/>
      </contour>
    </TTGlyph>
    <TTGlyph name="asciitilde" xMin="75" yMin="164" xMax="537" yMax="316">
      <contour>
        <pt x="501" y="316" on="1"/>
        <pt x="537" y="254" on="1"/>
        <pt x="483" y="168" on="0"/>
        <pt x="411" y="168" on="1"/>
        <pt x="374" y="168" on="0"/>
        <pt x="312" y="200" on="1"/>
        <pt x="242" y="236" on="0"/>
        <pt x="199" y="236" on="1"/>
        <pt x="140" y="236" on="0"/>
        <pt x="111" y="164" on="1"/>
        <pt x="75" y="226" on="1"/>
        <pt x="115" y="312" on="0"/>
        <pt x="200" y="312" on="1"/>
        <pt x="239" y="312" on="0"/>
        <pt x="326" y="273" on="1"/>
        <pt x="393" y="244" on="0"/>
        <pt x="411" y="244" on="1"/>
        <pt x="440" y="244" on="0"/>
        <pt x="488" y="289" on="0"/>
      </contour>
    </TTGlyph>
    <TTGlyph name="asterisk" xMin="45" yMin="314" xMax="421" yMax="700">
      <contour>
        <pt x="83" y="374" on="1"/>
        <pt x="45" y="436" on="1"/>
        <pt x="177" y="507" on="1"/>
        <pt x="45" y="576" on="1"/>
        <pt x="83" y="638" on="1"/>
        <pt x="207" y="554" on="1"/>
        <pt x="195" y="700" on="1"/>
        <pt x="271" y="700" on="1"/>
        <pt x="259" y="554" on="1"/>
        <pt x="383" y="638" on="1"/>
        <pt x="421" y="576" on="1"/>
        <pt x="289" y="507" on="1"/>
        <pt x="421" y="436" on="1"/>
        <pt x="383" y="374" on="1"/>
        <pt x="259" y="454" on="1"/>
        <pt x="271" y="314" on="1"/>
        <pt x="195" y="314" on="1"/>
        <pt x="207" y="454" on="1"/>
      </contour>
    </TTGlyph>
    <TTGlyph name="at" xMin="55" yMin="-12" xMax="729" yMax="705">
      <contour>
        <pt x="623" y="137" on="1"/>
        <pt x="623" y="56" on="1"/>
        <pt x="534" y="-12" on="0"/>
        <pt x="420" y="-12" on="1"/>
        <pt x="268" y="-12" on="0"/>
        <pt x="55" y="197" on="0"/>
        <pt x="55" y="348" on="1"/>
        <pt x="55" y="458" on="0"/>
        <pt x="166" y="621" on="0"/>
        <pt x="251" y="666" on="1"/>
        <pt x="325" y="705" on="0"/>
        <pt x="415" y="705" on="1"/>
        <pt x="495" y="705" on="0"/>
        <pt x="561" y="674" on="1"/>
        <pt x="631" y="639" on="0"/>
        <pt x="729" y="504" on="0"/>
        <pt x="729" y="408" on="1"/>
        <pt x="729" y="311" on="0"/>
        <pt x="636" y="173" on="0"/>
        <pt x="574" y="173" on="1"/>
        <pt x="499" y="173" on="0"/>
        <pt x="499" y="270" on="1"/>
        <pt x="499" y="318" on="1"/>
        <pt x="499" y="451" on="0"/>
        <pt x="401" y="451" on="1"/>
        <pt x="357" y="451" on="0"/>
        <pt x="306" y="390" on="0"/>
        <pt x="306" y="346" on="1"/>
        <pt x="306" y="303" on="0"/>
        <pt x="364" y="249" on="0"/>
        <pt x="406" y="249" on="1"/>
        <pt x="443" y="249" on="0"/>
        <pt x="471" y="271" on="1"/>
        <pt x="471" y="193" on="1"/>
        <pt x="441" y="173" on="0"/>
        <pt x="398" y="173" on="1"/>
        <pt x="326" y="173" on="0"/>
        <pt x="227" y="269" on="0"/>
        <pt x="227" y="348" on="1"/>
        <pt x="227" y="457" on="0"/>
        <pt x="323" y="507" on="1"/>
        <pt x="359" y="527" on="0"/>
        <pt x="407" y="527" on="1"/>
        <pt x="493" y="527" on="0"/>
        <pt x="541" y="463" on="1"/>
        <pt x="578" y="414" on="0"/>
        <pt x="578" y="315" on="1"/>
        <pt x="578" y="275" on="1"/>
        <pt x="578" y="253" on="0"/>
        <pt x="592" y="253" on="1"/>
        <pt x="613" y="253" on="0"/>
        <pt x="649" y="343" on="0"/>
        <pt x="649" y="399" on="1"/>
        <pt x="649" y="535" on="0"/>
        <pt x="538" y="600" on="1"/>
        <pt x="539" y="600" on="1"/>
        <pt x="482" y="630" on="0"/>
        <pt x="407" y="630" on="1"/>
        <pt x="336" y="630" on="0"/>
        <pt x="272" y="594" on="1"/>
        <pt x="211" y="558" on="0"/>
        <pt x="134" y="426" on="0"/>
        <pt x="134" y="344" on="1"/>
        <pt x="134" y="223" on="0"/>
        <pt x="294" y="64" on="0"/>
        <pt x="416" y="64" on="1"/>
        <pt x="484" y="64" on="0"/>
        <pt x="570" y="97" on="0"/>
      </contour>
    </TTGlyph>
    <TTGlyph name="atilde" xMin="45" yMin="0" xMax="453" yMax="676">
      <component glyphName="a" x="0" y="0" flags="0x204"/>
      <component glyphName="tilde" x="37" y="0" flags="0x4"/>
    </TTGlyph>
    <TTGlyph name="b" xMin="60" yMin="-10" xMax="550" yMax="700">
      <contour>
        <pt x="60" y="700" on="1"/>
        <pt x="150" y="700" on="1"/>
        <pt x="150" y="240" on="1"/>
        <pt x="150" y="161" on="0"/>
        <pt x="231" y="74" on="0"/>
        <pt x="302" y="74" on="1"/>
        <pt x="376" y="74" on="0"/>
        <pt x="460" y="159" on="0"/>
        <pt x="460" y="240" on="1"/>
        <pt x="460" y="317" on="0"/>
        <pt x="369" y="406" on="0"/>
        <pt x="295" y="406" on="1"/>
        <pt x="232" y="406" on="0"/>
        <pt x="186" y="370" on="1"/>
        <pt x="186" y="460" on="1"/>
        <pt x="241" y="490" on="0"/>
        <pt x="305" y="490" on="1"/>
        <pt x="411" y="490" on="0"/>
        <pt x="550" y="353" on="0"/>
        <pt x="550" y="240" on="1"/>
        <pt x="550" y="121" on="0"/>
        <pt x="405" y="-10" on="0"/>
        <pt x="295" y="-10" on="1"/>
        <pt x="190" y="-10" on="0"/>
        <pt x="60" y="126" on="0"/>
        <pt x="60" y="240" on="1"/>
      </contour>
    </TTGlyph>
    <TTGlyph name="backslash" xMin="-30" yMin="-10" xMax="382" yMax="710">
      <contour>
        <pt x="-30" y="710" on="1"/>
        <pt x="58" y="710" on="1"/>
        <pt x="382" y="-10" on="1"/>
        <pt x="294" y="-10" on="1"/>
      </contour>
    </TTGlyph>
    <TTGlyph name="bar" xMin="75" yMin="0" xMax="145" yMax="700">
      <contour>
        <pt x="75" y="0" on="1"/>
        <pt x="75" y="700" on="1"/>
        <pt x="145" y="700" on="1"/>
        <pt x="145" y="0" on="1"/>
      </contour>
    </TTGlyph>
    <TTGlyph name="braceleft" xMin="75" yMin="-126" xMax="333" yMax="750">
      <contour>
        <pt x="75" y="282" on="1"/>
        <pt x="75" y="342" on="1"/>
        <pt x="113" y="346" on="0"/>
        <pt x="154" y="410" on="0"/>
        <pt x="154" y="455" on="1"/>
        <pt x="154" y="628" on="1"/>
        <pt x="154" y="686" on="0"/>
        <pt x="215" y="750" on="0"/>
        <pt x="266" y="750" on="1"/>
        <pt x="333" y="750" on="1"/>
        <pt x="333" y="704" on="1"/>
        <pt x="290" y="704" on="1"/>
        <pt x="276" y="704" on="0"/>
        <pt x="259" y="698" on="0"/>
        <pt x="242" y="661" on="0"/>
        <pt x="242" y="624" on="1"/>
        <pt x="242" y="438" on="1"/>
        <pt x="242" y="349" on="0"/>
        <pt x="163" y="312" on="1"/>
        <pt x="198" y="302" on="0"/>
        <pt x="242" y="236" on="0"/>
        <pt x="242" y="185" on="1"/>
        <pt x="242" y="0" on="1"/>
        <pt x="242" y="-28" on="0"/>
        <pt x="251" y="-63" on="0"/>
        <pt x="268" y="-77" on="0"/>
        <pt x="279" y="-80" on="0"/>
        <pt x="287" y="-80" on="1"/>
        <pt x="333" y="-80" on="1"/>
        <pt x="333" y="-126" on="1"/>
        <pt x="254" y="-126" on="1"/>
        <pt x="211" y="-126" on="0"/>
        <pt x="154" y="-54" on="0"/>
        <pt x="154" y="-4" on="1"/>
        <pt x="154" y="170" on="1"/>
        <pt x="154" y="213" on="0"/>
        <pt x="113" y="277" on="0"/>
      </contour>
    </TTGlyph>
    <TTGlyph name="braceright" xMin="45" yMin="-126" xMax="303" yMax="750">
      <contour>
        <pt x="303" y="342" on="1"/>
        <pt x="303" y="282" on="1"/>
        <pt x="265" y="278" on="0"/>
        <pt x="224" y="215" on="0"/>
        <pt x="224" y="173" on="1"/>
        <pt x="224" y="-4" on="1"/>
        <pt x="224" y="-54" on="0"/>
        <pt x="167" y="-126" on="0"/>
        <pt x="124" y="-126" on="1"/>
        <pt x="45" y="-126" on="1"/>
        <pt x="45" y="-80" on="1"/>
        <pt x="91" y="-80" on="1"/>
        <pt x="99" y="-80" on="0"/>
        <pt x="110" y="-77" on="0"/>
        <pt x="127" y="-63" on="0"/>
        <pt x="136" y="-28" on="0"/>
        <pt x="136" y="0" on="1"/>
        <pt x="136" y="181" on="1"/>
        <pt x="136" y="225" on="0"/>
        <pt x="168" y="290" on="0"/>
        <pt x="215" y="312" on="1"/>
        <pt x="136" y="336" on="0"/>
        <pt x="136" y="447" on="1"/>
        <pt x="136" y="624" on="1"/>
        <pt x="136" y="652" on="0"/>
        <pt x="127" y="687" on="0"/>
        <pt x="110" y="701" on="0"/>
        <pt x="99" y="704" on="0"/>
        <pt x="91" y="704" on="1"/>
        <pt x="45" y="704" on="1"/>
        <pt x="45" y="750" on="1"/>
        <pt x="124" y="750" on="1"/>
        <pt x="167" y="750" on="0"/>
        <pt x="224" y="678" on="0"/>
        <pt x="224" y="628" on="1"/>
        <pt x="224" y="454" on="1"/>
        <pt x="224" y="411" on="0"/>
        <pt x="265" y="347" on="0"/>
      </contour>
    </TTGlyph>
    <TTGlyph name="bracketleft" xMin="75" yMin="-126" xMax="249" yMax="750">
      <contour>
        <pt x="249" y="-126" on="1"/>
        <pt x="75" y="-126" on="1"/>
        <pt x="75" y="750" on="1"/>
        <pt x="249" y="750" on="1"/>
        <pt x="249" y="690" on="1"/>
        <pt x="165" y="690" on="1"/>
        <pt x="165" y="-66" on="1"/>
        <pt x="249" y="-66" on="1"/>
      </contour>
    </TTGlyph>
    <TTGlyph name="bracketright" xMin="45" yMin="-126" xMax="219" yMax="750">
      <contour>
        <pt x="219" y="-126" on="1"/>
        <pt x="45" y="-126" on="1"/>
        <pt x="45" y="-66" on="1"/>
        <pt x="129" y="-66" on="1"/>
        <pt x="129" y="690" on="1"/>
        <pt x="45" y="690" on="1"/>
        <pt x="45" y="750" on="1"/>
        <pt x="219" y="750" on="1"/>
      </contour>
    </TTGlyph>
    <TTGlyph name="brokenbar" xMin="75" yMin="0" xMax="145" yMax="700">
      <contour>
        <pt x="75" y="418" on="1"/>
        <pt x="75" y="700" on="1"/>
        <pt x="145" y="700" on="1"/>
        <pt x="145" y="418" on="1"/>
      </contour>
      <contour>
        <pt x="75" y="0" on="1"/>
        <pt x="75" y="282" on="1"/>
        <pt x="145" y="282" on="1"/>
        <pt x="145" y="0" on="1"/>
      </contour>
    </TTGlyph>
    <TTGlyph name="bullet" xMin="75" yMin="219" xMax="337" yMax="481">
      <contour>
        <pt x="112" y="443" on="1"/>
        <pt x="150" y="481" on="0"/>
        <pt x="206" y="481" on="1"/>
        <pt x="233" y="481" on="0"/>
        <pt x="281" y="461" on="0"/>
        <pt x="317" y="425" on="0"/>
        <pt x="337" y="377" on="0"/>
        <pt x="337" y="350" on="1"/>
        <pt x="337" y="322" on="0"/>
        <pt x="317" y="274" on="0"/>
        <pt x="282" y="239" on="0"/>
        <pt x="234" y="219" on="0"/>
        <pt x="206" y="219" on="1"/>
        <pt x="178" y="219" on="0"/>
        <pt x="130" y="239" on="0"/>
        <pt x="95" y="274" on="0"/>
        <pt x="75" y="322" on="0"/>
        <pt x="75" y="350" on="1"/>
        <pt x="75" y="406" on="0"/>
      </contour>
    </TTGlyph>
    <TTGlyph name="c" xMin="45" yMin="-10" xMax="448" yMax="490">
      <contour>
        <pt x="388" y="105" on="1"/>
        <pt x="448" y="46" on="1"/>
        <pt x="379" y="-10" on="0"/>
        <pt x="290" y="-10" on="1"/>
        <pt x="179" y="-10" on="0"/>
        <pt x="45" y="133" on="0"/>
        <pt x="45" y="240" on="1"/>
        <pt x="45" y="345" on="0"/>
        <pt x="186" y="490" on="0"/>
        <pt x="290" y="490" on="1"/>
        <pt x="379" y="490" on="0"/>
        <pt x="448" y="434" on="1"/>
        <pt x="389" y="374" on="1"/>
        <pt x="347" y="406" on="0"/>
        <pt x="290" y="406" on="1"/>
        <pt x="221" y="406" on="0"/>
        <pt x="140" y="315" on="0"/>
        <pt x="140" y="165" on="0"/>
        <pt x="221" y="74" on="0"/>
        <pt x="290" y="74" on="1"/>
        <pt x="348" y="74" on="0"/>
      </contour>
    </TTGlyph>
    <TTGlyph name="caron" xMin="31" yMin="558" xMax="352" yMax="700">
      <contour>
        <pt x="192" y="606" on="1"/>
        <pt x="271" y="700" on="1"/>
        <pt x="352" y="700" on="1"/>
        <pt x="242" y="558" on="1"/>
        <pt x="141" y="558" on="1"/>
        <pt x="31" y="700" on="1"/>
        <pt x="112" y="700" on="1"/>
      </contour>
    </TTGlyph>
    <TTGlyph name="ccedilla" xMin="45" yMin="-228" xMax="448" yMax="490">
      <contour>
        <pt x="231" y="-101" on="1"/>
        <pt x="212" y="-80" on="1"/>
        <pt x="241" y="-6" on="1"/>
        <pt x="151" y="10" on="0"/>
        <pt x="45" y="146" on="0"/>
        <pt x="45" y="240" on="1"/>
        <pt x="45" y="345" on="0"/>
        <pt x="186" y="490" on="0"/>
        <pt x="290" y="490" on="1"/>
        <pt x="379" y="490" on="0"/>
        <pt x="448" y="434" on="1"/>
        <pt x="389" y="374" on="1"/>
        <pt x="347" y="406" on="0"/>
        <pt x="290" y="406" on="1"/>
        <pt x="221" y="406" on="0"/>
        <pt x="140" y="315" on="0"/>
        <pt x="140" y="165" on="0"/>
        <pt x="221" y="74" on="0"/>
        <pt x="290" y="74" on="1"/>
        <pt x="348" y="74" on="0"/>
        <pt x="388" y="105" on="1"/>
        <pt x="448" y="46" on="1"/>
        <pt x="384" y="-5" on="0"/>
        <pt x="300" y="-10" on="1"/>
        <pt x="281" y="-56" on="1"/>
        <pt x="298" y="-53" on="0"/>
        <pt x="313" y="-53" on="1"/>
        <pt x="363" y="-53" on="0"/>
        <pt x="401" y="-101" on="0"/>
        <pt x="401" y="-131" on="1"/>
        <pt x="401" y="-173" on="0"/>
        <pt x="336" y="-228" on="0"/>
        <pt x="278" y="-228" on="1"/>
        <pt x="230" y="-228" on="0"/>
        <pt x="174" y="-204" on="1"/>
        <pt x="193" y="-163" on="1"/>
        <pt x="230" y="-179" on="0"/>
        <pt x="263" y="-179" on="1"/>
        <pt x="321" y="-179" on="0"/>
        <pt x="321" y="-135" on="1"/>
        <pt x="321" y="-118" on="0"/>
        <pt x="295" y="-93" on="0"/>
        <pt x="271" y="-93" on="1"/>
        <pt x="249" y="-93" on="0"/>
      </contour>
    </TTGlyph>
    <TTGlyph name="cedilla" xMin="35" yMin="-228" xMax="262" yMax="10">
      <contour>
        <pt x="92" y="-101" on="1"/>
        <pt x="73" y="-80" on="1"/>
        <pt x="109" y="10" on="1"/>
        <pt x="170" y="10" on="1"/>
        <pt x="142" y="-56" on="1"/>
        <pt x="158" y="-53" on="0"/>
        <pt x="174" y="-53" on="1"/>
        <pt x="224" y="-53" on="0"/>
        <pt x="262" y="-101" on="0"/>
        <pt x="262" y="-131" on="1"/>
        <pt x="262" y="-173" on="0"/>
        <pt x="197" y="-228" on="0"/>
        <pt x="139" y="-228" on="1"/>
        <pt x="91" y="-228" on="0"/>
        <pt x="35" y="-204" on="1"/>
        <pt x="54" y="-163" on="1"/>
        <pt x="91" y="-179" on="0"/>
        <pt x="124" y="-179" on="1"/>
        <pt x="182" y="-179" on="0"/>
        <pt x="182" y="-135" on="1"/>
        <pt x="182" y="-118" on="0"/>
        <pt x="156" y="-93" on="0"/>
        <pt x="132" y="-93" on="1"/>
        <pt x="110" y="-93" on="0"/>
      </contour>
    </TTGlyph>
    <TTGlyph name="cent" xMin="45" yMin="-100" xMax="448" yMax="600">
      <contour>
        <pt x="225" y="-100" on="1"/>
        <pt x="225" y="-1" on="1"/>
        <pt x="145" y="20" on="0"/>
        <pt x="45" y="153" on="0"/>
        <pt x="45" y="327" on="0"/>
        <pt x="145" y="460" on="0"/>
        <pt x="225" y="481" on="1"/>
        <pt x="225" y="600" on="1"/>
        <pt x="305" y="600" on="1"/>
        <pt x="305" y="489" on="1"/>
        <pt x="385" y="485" on="0"/>
        <pt x="448" y="434" on="1"/>
        <pt x="389" y="374" on="1"/>
        <pt x="351" y="402" on="0"/>
        <pt x="305" y="405" on="1"/>
        <pt x="305" y="74" on="1"/>
        <pt x="354" y="79" on="0"/>
        <pt x="388" y="105" on="1"/>
        <pt x="448" y="46" on="1"/>
        <pt x="385" y="-5" on="0"/>
        <pt x="305" y="-9" on="1"/>
        <pt x="305" y="-100" on="1"/>
      </contour>
      <contour>
        <pt x="225" y="87" on="1"/>
        <pt x="225" y="393" on="1"/>
        <pt x="185" y="375" on="0"/>
        <pt x="140" y="295" on="0"/>
        <pt x="140" y="185" on="0"/>
        <pt x="185" y="105" on="0"/>
      </contour>
    </TTGlyph>
    <TTGlyph name="circumflex" xMin="31" yMin="558" xMax="352" yMax="700">
      <contour>
        <pt x="191" y="652" on="1"/>
        <pt x="112" y="558" on="1"/>
        <pt x="31" y="558" on="1"/>
        <pt x="141" y="700" on="1"/>
        <pt x="242" y="700" on="1"/>
        <pt x="352" y="558" on="1"/>
        <pt x="271" y="558" on="1"/>
      </contour>
    </TTGlyph>
    <TTGlyph name="colon" xMin="10" yMin="-10" xMax="134" yMax="484">
      <contour>
        <pt x="28" y="378" on="1"/>
        <pt x="10" y="396" on="0"/>
        <pt x="10" y="448" on="0"/>
        <pt x="46" y="484" on="0"/>
        <pt x="98" y="484" on="0"/>
        <pt x="134" y="448" on="0"/>
        <pt x="134" y="396" on="0"/>
        <pt x="98" y="360" on="0"/>
        <pt x="46" y="360" on="0"/>
      </contour>
      <contour>
        <pt x="28" y="8" on="1"/>
        <pt x="10" y="26" on="0"/>
        <pt x="10" y="78" on="0"/>
        <pt x="46" y="114" on="0"/>
        <pt x="98" y="114" on="0"/>
        <pt x="134" y="78" on="0"/>
        <pt x="134" y="26" on="0"/>
        <pt x="98" y="-10" on="0"/>
        <pt x="46" y="-10" on="0"/>
      </contour>
    </TTGlyph>
    <TTGlyph name="comma" xMin="10" yMin="-155" xMax="181" yMax="84">
      <contour>
        <pt x="84" y="-155" on="1"/>
        <pt x="34" y="-123" on="1"/>
        <pt x="72" y="-49" on="0"/>
        <pt x="78" y="0" on="1"/>
        <pt x="10" y="0" on="1"/>
        <pt x="50" y="84" on="1"/>
        <pt x="181" y="84" on="1"/>
        <pt x="181" y="-56" on="0"/>
      </contour>
    </TTGlyph>
    <TTGlyph name="copyright" xMin="55" yMin="-12" xMax="763" yMax="712">
      <contour>
        <pt x="158" y="91" on="1"/>
        <pt x="55" y="194" on="0"/>
        <pt x="55" y="350" on="1"/>
        <pt x="55" y="428" on="0"/>
        <pt x="111" y="560" on="0"/>
        <pt x="207" y="657" on="0"/>
        <pt x="336" y="712" on="0"/>
        <pt x="409" y="712" on="1"/>
        <pt x="482" y="712" on="0"/>
        <pt x="611" y="657" on="0"/>
        <pt x="707" y="560" on="0"/>
        <pt x="763" y="427" on="0"/>
        <pt x="763" y="350" on="1"/>
        <pt x="763" y="273" on="0"/>
        <pt x="707" y="140" on="0"/>
        <pt x="611" y="43" on="0"/>
        <pt x="482" y="-12" on="0"/>
        <pt x="409" y="-12" on="1"/>
        <pt x="261" y="-12" on="0"/>
      </contour>
      <contour>
        <pt x="125" y="350" on="1"/>
        <pt x="125" y="289" on="0"/>
        <pt x="167" y="180" on="0"/>
        <pt x="242" y="99" on="0"/>
        <pt x="347" y="52" on="0"/>
        <pt x="409" y="52" on="1"/>
        <pt x="470" y="52" on="0"/>
        <pt x="575" y="100" on="0"/>
        <pt x="650" y="181" on="0"/>
        <pt x="693" y="289" on="0"/>
        <pt x="693" y="350" on="1"/>
        <pt x="693" y="411" on="0"/>
        <pt x="651" y="519" on="0"/>
        <pt x="575" y="600" on="0"/>
        <pt x="471" y="648" on="0"/>
        <pt x="409" y="648" on="1"/>
        <pt x="347" y="648" on="0"/>
        <pt x="243" y="600" on="0"/>
        <pt x="167" y="519" on="0"/>
        <pt x="125" y="411" on="0"/>
      </contour>
      <contour>
        <pt x="502" y="547" on="1"/>
        <pt x="502" y="473" on="1"/>
        <pt x="458" y="473" on="1"/>
        <pt x="384" y="473" on="0"/>
        <pt x="348" y="445" on="1"/>
        <pt x="298" y="408" on="0"/>
        <pt x="298" y="337" on="1"/>
        <pt x="298" y="281" on="0"/>
        <pt x="377" y="200" on="0"/>
        <pt x="448" y="200" on="1"/>
        <pt x="502" y="200" on="1"/>
        <pt x="502" y="126" on="1"/>
        <pt x="446" y="126" on="1"/>
        <pt x="337" y="126" on="0"/>
        <pt x="217" y="252" on="0"/>
        <pt x="217" y="337" on="1"/>
        <pt x="217" y="389" on="0"/>
        <pt x="264" y="481" on="0"/>
        <pt x="307" y="510" on="1"/>
        <pt x="341" y="534" on="0"/>
        <pt x="410" y="547" on="0"/>
        <pt x="458" y="547" on="1"/>
      </contour>
    </TTGlyph>
    <TTGlyph name="currency" xMin="92" yMin="145" xMax="502" yMax="555">
      <contour>
        <pt x="131" y="145" on="1"/>
        <pt x="92" y="184" on="1"/>
        <pt x="137" y="231" on="1"/>
        <pt x="96" y="281" on="0"/>
        <pt x="96" y="419" on="0"/>
        <pt x="137" y="469" on="1"/>
        <pt x="92" y="516" on="1"/>
        <pt x="131" y="555" on="1"/>
        <pt x="176" y="507" on="1"/>
        <pt x="226" y="551" on="0"/>
        <pt x="368" y="551" on="0"/>
        <pt x="418" y="507" on="1"/>
        <pt x="463" y="555" on="1"/>
        <pt x="502" y="516" on="1"/>
        <pt x="457" y="469" on="1"/>
        <pt x="498" y="419" on="0"/>
        <pt x="498" y="281" on="0"/>
        <pt x="457" y="231" on="1"/>
        <pt x="502" y="184" on="1"/>
        <pt x="463" y="145" on="1"/>
        <pt x="418" y="193" on="1"/>
        <pt x="368" y="149" on="0"/>
        <pt x="226" y="149" on="0"/>
        <pt x="176" y="193" on="1"/>
      </contour>
      <contour>
        <pt x="211" y="438" on="1"/>
        <pt x="176" y="401" on="0"/>
        <pt x="176" y="299" on="0"/>
        <pt x="247" y="225" on="0"/>
        <pt x="347" y="225" on="0"/>
        <pt x="418" y="299" on="0"/>
        <pt x="418" y="401" on="0"/>
        <pt x="347" y="475" on="0"/>
        <pt x="247" y="475" on="0"/>
      </contour>
    </TTGlyph>
    <TTGlyph name="d" xMin="45" yMin="0" xMax="525" yMax="700">
      <contour>
        <pt x="435" y="700" on="1"/>
        <pt x="525" y="700" on="1"/>
        <pt x="525" y="0" on="1"/>
        <pt x="290" y="0" on="1"/>
        <pt x="181" y="0" on="0"/>
        <pt x="45" y="139" on="0"/>
        <pt x="45" y="245" on="1"/>
        <pt x="45" y="349" on="0"/>
        <pt x="186" y="490" on="0"/>
        <pt x="283" y="490" on="1"/>
        <pt x="345" y="490" on="0"/>
        <pt x="399" y="460" on="1"/>
        <pt x="399" y="370" on="1"/>
        <pt x="349" y="406" on="0"/>
        <pt x="283" y="406" on="1"/>
        <pt x="223" y="406" on="0"/>
        <pt x="140" y="317" on="0"/>
        <pt x="140" y="245" on="1"/>
        <pt x="140" y="172" on="0"/>
        <pt x="219" y="84" on="0"/>
        <pt x="290" y="84" on="1"/>
        <pt x="435" y="84" on="1"/>
      </contour>
    </TTGlyph>
    <TTGlyph name="degree" xMin="55" yMin="493" xMax="284" yMax="722">
      <contour>
        <pt x="87" y="525" on="1"/>
        <pt x="55" y="559" on="0"/>
        <pt x="55" y="607" on="1"/>
        <pt x="55" y="657" on="0"/>
        <pt x="120" y="722" on="0"/>
        <pt x="169" y="722" on="1"/>
        <pt x="193" y="722" on="0"/>
        <pt x="235" y="704" on="0"/>
        <pt x="266" y="673" on="0"/>
        <pt x="284" y="631" on="0"/>
        <pt x="284" y="607" on="1"/>
        <pt x="284" y="558" on="0"/>
        <pt x="219" y="493" on="0"/>
        <pt x="169" y="493" on="1"/>
        <pt x="121" y="493" on="0"/>
      </contour>
      <contour>
        <pt x="120" y="607" on="1"/>
        <pt x="120" y="586" on="0"/>
        <pt x="148" y="558" on="0"/>
        <pt x="169" y="558" on="1"/>
        <pt x="191" y="558" on="0"/>
        <pt x="219" y="586" on="0"/>
        <pt x="219" y="607" on="1"/>
        <pt x="219" y="629" on="0"/>
        <pt x="191" y="657" on="0"/>
        <pt x="169" y="657" on="1"/>
        <pt x="148" y="657" on="0"/>
        <pt x="120" y="629" on="0"/>
      </contour>
    </TTGlyph>
    <TTGlyph name="dieresis" xMin="35" yMin="568" xMax="327" yMax="680">
      <contour>
        <pt x="51" y="584" on="1"/>
        <pt x="35" y="600" on="0"/>
        <pt x="35" y="648" on="0"/>
        <pt x="67" y="680" on="0"/>
        <pt x="115" y="680" on="0"/>
        <pt x="147" y="648" on="0"/>
        <pt x="147" y="600" on="0"/>
        <pt x="115" y="568" on="0"/>
        <pt x="67" y="568" on="0"/>
      </contour>
      <contour>
        <pt x="231" y="584" on="1"/>
        <pt x="215" y="600" on="0"/>
        <pt x="215" y="648" on="0"/>
        <pt x="247" y="680" on="0"/>
        <pt x="295" y="680" on="0"/>
        <pt x="327" y="648" on="0"/>
        <pt x="327" y="600" on="0"/>
        <pt x="295" y="568" on="0"/>
        <pt x="247" y="568" on="0"/>
      </contour>
    </TTGlyph>
    <TTGlyph name="divide" xMin="50" yMin="-10" xMax="530" yMax="484">
      <contour>
        <pt x="246" y="8" on="1"/>
        <pt x="228" y="26" on="0"/>
        <pt x="228" y="52" on="1"/>
        <pt x="228" y="78" on="0"/>
        <pt x="264" y="114" on="0"/>
        <pt x="290" y="114" on="1"/>
        <pt x="316" y="114" on="0"/>
        <pt x="352" y="78" on="0"/>
        <pt x="352" y="52" on="1"/>
        <pt x="352" y="26" on="0"/>
        <pt x="316" y="-10" on="0"/>
        <pt x="290" y="-10" on="1"/>
        <pt x="264" y="-10" on="0"/>
      </contour>
      <contour>
        <pt x="246" y="378" on="1"/>
        <pt x="228" y="396" on="0"/>
        <pt x="228" y="422" on="1"/>
        <pt x="228" y="448" on="0"/>
        <pt x="264" y="484" on="0"/>
        <pt x="290" y="484" on="1"/>
        <pt x="316" y="484" on="0"/>
        <pt x="352" y="448" on="0"/>
        <pt x="352" y="422" on="1"/>
        <pt x="352" y="396" on="0"/>
        <pt x="316" y="360" on="0"/>
        <pt x="290" y="360" on="1"/>
        <pt x="264" y="360" on="0"/>
      </contour>
      <contour>
        <pt x="530" y="201" on="1"/>
        <pt x="50" y="201" on="1"/>
        <pt x="50" y="279" on="1"/>
        <pt x="530" y="279" on="1"/>
      </contour>
    </TTGlyph>
    <TTGlyph name="dollar" xMin="45" yMin="-60" xMax="464" yMax="750">
      <contour>
        <pt x="231" y="750" on="1"/>
        <pt x="291" y="750" on="1"/>
        <pt x="291" y="700" on="1"/>
        <pt x="423" y="700" on="1"/>
        <pt x="423" y="612" on="1"/>
        <pt x="291" y="612" on="1"/>
        <pt x="291" y="404" on="1"/>
        <pt x="310" y="397" on="1"/>
        <pt x="344" y="384" on="0"/>
        <pt x="392" y="357" on="0"/>
        <pt x="440" y="313" on="0"/>
        <pt x="464" y="244" on="0"/>
        <pt x="464" y="199" on="1"/>
        <pt x="464" y="149" on="0"/>
        <pt x="422" y="70" on="0"/>
        <pt x="356" y="25" on="0"/>
        <pt x="321" y="13" on="1"/>
        <pt x="306" y="8" on="0"/>
        <pt x="291" y="5" on="1"/>
        <pt x="291" y="-60" on="1"/>
        <pt x="231" y="-60" on="1"/>
        <pt x="231" y="0" on="1"/>
        <pt x="58" y="0" on="1"/>
        <pt x="58" y="88" on="1"/>
        <pt x="231" y="88" on="1"/>
        <pt x="231" y="326" on="1"/>
        <pt x="224" y="329" on="0"/>
        <pt x="216" y="332" on="1"/>
        <pt x="207" y="335" on="0"/>
        <pt x="202" y="337" on="1"/>
        <pt x="45" y="397" on="0"/>
        <pt x="45" y="533" on="1"/>
        <pt x="45" y="617" on="0"/>
        <pt x="99" y="658" on="1"/>
        <pt x="150" y="698" on="0"/>
        <pt x="231" y="700" on="1"/>
      </contour>
      <contour>
        <pt x="145" y="530" on="1"/>
        <pt x="145" y="486" on="0"/>
        <pt x="189" y="455" on="1"/>
        <pt x="207" y="443" on="0"/>
        <pt x="231" y="431" on="1"/>
        <pt x="231" y="611" on="1"/>
        <pt x="145" y="605" on="0"/>
      </contour>
      <contour>
        <pt x="322" y="116" on="1"/>
        <pt x="365" y="145" on="0"/>
        <pt x="365" y="200" on="1"/>
        <pt x="365" y="227" on="0"/>
        <pt x="341" y="268" on="0"/>
        <pt x="318" y="283" on="1"/>
        <pt x="305" y="292" on="0"/>
        <pt x="291" y="299" on="1"/>
        <pt x="291" y="101" on="1"/>
        <pt x="308" y="107" on="0"/>
      </contour>
    </TTGlyph>
    <TTGlyph name="dotlessi" xMin="20" yMin="0" xMax="190" yMax="480">
      <contour>
        <pt x="190" y="0" on="1"/>
        <pt x="102" y="0" on="1"/>
        <pt x="102" y="396" on="1"/>
        <pt x="20" y="396" on="1"/>
        <pt x="60" y="480" on="1"/>
        <pt x="190" y="480" on="1"/>
      </contour>
    </TTGlyph>
    <TTGlyph name="e" xMin="45" yMin="-10" xMax="465" yMax="494">
      <contour>
        <pt x="295" y="490" on="1"/>
        <pt x="465" y="483" on="0"/>
        <pt x="465" y="349" on="1"/>
        <pt x="465" y="182" on="0"/>
        <pt x="246" y="182" on="1"/>
        <pt x="205" y="182" on="1"/>
        <pt x="205" y="259" on="1"/>
        <pt x="253" y="259" on="1"/>
        <pt x="320" y="259" on="0"/>
        <pt x="372" y="300" on="0"/>
        <pt x="372" y="348" on="1"/>
        <pt x="372" y="379" on="0"/>
        <pt x="326" y="410" on="0"/>
        <pt x="290" y="410" on="1"/>
        <pt x="219" y="410" on="0"/>
        <pt x="138" y="310" on="0"/>
        <pt x="138" y="240" on="1"/>
        <pt x="138" y="166" on="0"/>
        <pt x="225" y="74" on="0"/>
        <pt x="295" y="74" on="1"/>
        <pt x="358" y="74" on="0"/>
        <pt x="398" y="105" on="1"/>
        <pt x="458" y="46" on="1"/>
        <pt x="389" y="-10" on="0"/>
        <pt x="295" y="-10" on="1"/>
        <pt x="181" y="-10" on="0"/>
        <pt x="45" y="124" on="0"/>
        <pt x="45" y="230" on="1"/>
        <pt x="45" y="348" on="0"/>
        <pt x="179" y="494" on="0"/>
      </contour>
    </TTGlyph>
    <TTGlyph name="eacute" xMin="45" yMin="-10" xMax="465" yMax="715">
      <component glyphName="e" x="0" y="0" flags="0x204"/>
      <component glyphName="acute" x="187" y="0" flags="0x4"/>
    </TTGlyph>
    <TTGlyph name="ecircumflex" xMin="45" yMin="-10" xMax="465" yMax="700">
      <component glyphName="e" x="0" y="0" flags="0x204"/>
      <component glyphName="circumflex" x="92" y="0" flags="0x4"/>
    </TTGlyph>
    <TTGlyph name="edieresis" xMin="45" yMin="-10" xMax="465" yMax="680">
      <component glyphName="e" x="0" y="0" flags="0x204"/>
      <component glyphName="dieresis" x="81" y="0" flags="0x4"/>
    </TTGlyph>
    <TTGlyph name="egrave" xMin="45" yMin="-10" xMax="465" yMax="715">
      <component glyphName="e" x="0" y="0" flags="0x204"/>
      <component glyphName="grave" x="117" y="0" flags="0x4"/>
    </TTGlyph>
    <TTGlyph name="eight" xMin="55" yMin="-10" xMax="503" yMax="710">
      <contour>
        <pt x="488" y="522" on="1"/>
        <pt x="488" y="410" on="0"/>
        <pt x="394" y="367" on="1"/>
        <pt x="394" y="363" on="1"/>
        <pt x="503" y="326" on="0"/>
        <pt x="503" y="184" on="1"/>
        <pt x="503" y="143" on="0"/>
        <pt x="476" y="72" on="0"/>
        <pt x="420" y="20" on="0"/>
        <pt x="336" y="-10" on="0"/>
        <pt x="279" y="-10" on="1"/>
        <pt x="222" y="-10" on="0"/>
        <pt x="138" y="20" on="0"/>
        <pt x="82" y="72" on="0"/>
        <pt x="55" y="143" on="0"/>
        <pt x="55" y="184" on="1"/>
        <pt x="55" y="326" on="0"/>
        <pt x="164" y="363" on="1"/>
        <pt x="164" y="367" on="1"/>
        <pt x="70" y="410" on="0"/>
        <pt x="70" y="522" on="1"/>
        <pt x="70" y="560" on="0"/>
        <pt x="96" y="629" on="0"/>
        <pt x="149" y="680" on="0"/>
        <pt x="227" y="710" on="0"/>
        <pt x="279" y="710" on="1"/>
        <pt x="331" y="710" on="0"/>
        <pt x="409" y="680" on="0"/>
        <pt x="462" y="629" on="0"/>
        <pt x="488" y="560" on="0"/>
      </contour>
      <contour>
        <pt x="164" y="510" on="1"/>
        <pt x="164" y="455" on="0"/>
        <pt x="228" y="396" on="0"/>
        <pt x="279" y="396" on="1"/>
        <pt x="330" y="396" on="0"/>
        <pt x="394" y="455" on="0"/>
        <pt x="394" y="510" on="1"/>
        <pt x="394" y="562" on="0"/>
        <pt x="340" y="632" on="0"/>
        <pt x="279" y="632" on="1"/>
        <pt x="218" y="632" on="0"/>
        <pt x="164" y="562" on="0"/>
      </contour>
      <contour>
        <pt x="279" y="328" on="1"/>
        <pt x="217" y="328" on="0"/>
        <pt x="152" y="258" on="0"/>
        <pt x="152" y="196" on="1"/>
        <pt x="152" y="139" on="0"/>
        <pt x="215" y="68" on="0"/>
        <pt x="279" y="68" on="1"/>
        <pt x="406" y="68" on="0"/>
        <pt x="406" y="196" on="1"/>
        <pt x="406" y="258" on="0"/>
        <pt x="340" y="328" on="0"/>
      </contour>
    </TTGlyph>
    <TTGlyph name="emdash" xMin="33" yMin="208" xMax="683" yMax="282">
      <contour>
        <pt x="683" y="208" on="1"/>
        <pt x="33" y="208" on="1"/>
        <pt x="33" y="282" on="1"/>
        <pt x="683" y="282" on="1"/>
      </contour>
    </TTGlyph>
    <TTGlyph name="endash" xMin="33" yMin="208" xMax="533" yMax="282">
      <contour>
        <pt x="533" y="208" on="1"/>
        <pt x="33" y="208" on="1"/>
        <pt x="33" y="282" on="1"/>
        <pt x="533" y="282" on="1"/>
      </contour>
    </TTGlyph>
    <TTGlyph name="equal" xMin="50" yMin="102" xMax="530" yMax="378">
      <contour>
        <pt x="530" y="378" on="1"/>
        <pt x="530" y="300" on="1"/>
        <pt x="50" y="300" on="1"/>
        <pt x="50" y="378" on="1"/>
      </contour>
      <contour>
        <pt x="530" y="180" on="1"/>
        <pt x="530" y="102" on="1"/>
        <pt x="50" y="102" on="1"/>
        <pt x="50" y="180" on="1"/>
      </contour>
    </TTGlyph>
    <TTGlyph name="eth" xMin="44" yMin="-10" xMax="537" yMax="712">
      <contour>
        <pt x="165" y="656" on="1"/>
        <pt x="219" y="712" on="1"/>
        <pt x="270" y="693" on="0"/>
        <pt x="324" y="652" on="1"/>
        <pt x="427" y="707" on="1"/>
        <pt x="476" y="649" on="1"/>
        <pt x="385" y="600" on="1"/>
        <pt x="452" y="537" on="0"/>
        <pt x="537" y="360" on="0"/>
        <pt x="537" y="268" on="1"/>
        <pt x="537" y="152" on="0"/>
        <pt x="405" y="-10" on="0"/>
        <pt x="290" y="-10" on="1"/>
        <pt x="183" y="-10" on="0"/>
        <pt x="44" y="135" on="0"/>
        <pt x="44" y="240" on="1"/>
        <pt x="44" y="338" on="0"/>
        <pt x="183" y="470" on="0"/>
        <pt x="288" y="470" on="1"/>
        <pt x="321" y="470" on="0"/>
        <pt x="338" y="466" on="1"/>
        <pt x="356" y="373" on="1"/>
        <pt x="324" y="386" on="0"/>
        <pt x="289" y="386" on="1"/>
        <pt x="216" y="386" on="0"/>
        <pt x="133" y="306" on="0"/>
        <pt x="133" y="240" on="1"/>
        <pt x="133" y="166" on="0"/>
        <pt x="218" y="74" on="0"/>
        <pt x="288" y="74" on="1"/>
        <pt x="365" y="74" on="0"/>
        <pt x="449" y="164" on="0"/>
        <pt x="449" y="268" on="1"/>
        <pt x="449" y="347" on="0"/>
        <pt x="375" y="501" on="0"/>
        <pt x="311" y="561" on="1"/>
        <pt x="205" y="506" on="1"/>
        <pt x="157" y="564" on="1"/>
        <pt x="248" y="611" on="1"/>
        <pt x="203" y="640" on="0"/>
      </contour>
    </TTGlyph>
    <TTGlyph name="exclam" xMin="75" yMin="-10" xMax="199" yMax="711">
      <contour>
        <pt x="93" y="8" on="1"/>
        <pt x="75" y="26" on="0"/>
        <pt x="75" y="52" on="1"/>
        <pt x="75" y="78" on="0"/>
        <pt x="111" y="114" on="0"/>
        <pt x="137" y="114" on="1"/>
        <pt x="163" y="114" on="0"/>
        <pt x="199" y="78" on="0"/>
        <pt x="199" y="52" on="1"/>
        <pt x="199" y="26" on="0"/>
        <pt x="163" y="-10" on="0"/>
        <pt x="137" y="-10" on="1"/>
        <pt x="111" y="-10" on="0"/>
      </contour>
      <contour>
        <pt x="80" y="659" on="1"/>
        <pt x="80" y="711" on="0"/>
        <pt x="194" y="711" on="0"/>
        <pt x="194" y="659" on="1"/>
        <pt x="194" y="653" on="0"/>
        <pt x="188" y="544" on="0"/>
        <pt x="181" y="322" on="0"/>
        <pt x="181" y="181" on="1"/>
        <pt x="97" y="181" on="1"/>
        <pt x="97" y="322" on="0"/>
        <pt x="88" y="544" on="0"/>
        <pt x="80" y="653" on="0"/>
      </contour>
    </TTGlyph>
    <TTGlyph name="exclamdown" xMin="75" yMin="-240" xMax="199" yMax="481">
      <contour>
        <pt x="93" y="375" on="1"/>
        <pt x="75" y="393" on="0"/>
        <pt x="75" y="419" on="1"/>
        <pt x="75" y="445" on="0"/>
        <pt x="111" y="481" on="0"/>
        <pt x="137" y="481" on="1"/>
        <pt x="163" y="481" on="0"/>
        <pt x="199" y="445" on="0"/>
        <pt x="199" y="419" on="1"/>
        <pt x="199" y="393" on="0"/>
        <pt x="163" y="357" on="0"/>
        <pt x="137" y="357" on="1"/>
        <pt x="111" y="357" on="0"/>
      </contour>
      <contour>
        <pt x="80" y="-188" on="1"/>
        <pt x="80" y="-182" on="0"/>
        <pt x="88" y="-73" on="0"/>
        <pt x="97" y="149" on="0"/>
        <pt x="97" y="290" on="1"/>
        <pt x="181" y="290" on="1"/>
        <pt x="181" y="149" on="0"/>
        <pt x="188" y="-73" on="0"/>
        <pt x="194" y="-182" on="0"/>
        <pt x="194" y="-188" on="1"/>
        <pt x="194" y="-240" on="0"/>
        <pt x="80" y="-240" on="0"/>
      </contour>
    </TTGlyph>
    <TTGlyph name="f" xMin="23" yMin="0" xMax="336" yMax="701">
      <contour>
        <pt x="296" y="396" on="1"/>
        <pt x="181" y="396" on="1"/>
        <pt x="181" y="0" on="1"/>
        <pt x="91" y="0" on="1"/>
        <pt x="91" y="396" on="1"/>
        <pt x="23" y="396" on="1"/>
        <pt x="63" y="480" on="1"/>
        <pt x="91" y="480" on="1"/>
        <pt x="91" y="582" on="0"/>
        <pt x="229" y="701" on="0"/>
        <pt x="336" y="701" on="1"/>
        <pt x="336" y="617" on="1"/>
        <pt x="181" y="617" on="0"/>
        <pt x="181" y="480" on="1"/>
        <pt x="296" y="480" on="1"/>
      </contour>
    </TTGlyph>
    <TTGlyph name="five" xMin="32" yMin="-10" xMax="494" yMax="700">
      <contour>
        <pt x="494" y="225" on="1"/>
        <pt x="494" y="116" on="0"/>
        <pt x="364" y="-10" on="0"/>
        <pt x="258" y="-10" on="1"/>
        <pt x="165" y="-10" on="0"/>
        <pt x="48" y="60" on="0"/>
        <pt x="32" y="127" on="1"/>
        <pt x="111" y="170" on="1"/>
        <pt x="138" y="121" on="0"/>
        <pt x="199" y="78" on="0"/>
        <pt x="255" y="78" on="1"/>
        <pt x="319" y="78" on="0"/>
        <pt x="392" y="150" on="0"/>
        <pt x="392" y="225" on="1"/>
        <pt x="392" y="301" on="0"/>
        <pt x="323" y="367" on="0"/>
        <pt x="257" y="367" on="1"/>
        <pt x="82" y="367" on="1"/>
        <pt x="82" y="700" on="1"/>
        <pt x="466" y="700" on="1"/>
        <pt x="466" y="606" on="1"/>
        <pt x="170" y="606" on="1"/>
        <pt x="170" y="455" on="1"/>
        <pt x="257" y="455" on="1"/>
        <pt x="373" y="455" on="0"/>
        <pt x="494" y="336" on="0"/>
      </contour>
    </TTGlyph>
    <TTGlyph name="foundryicon" xMin="42" yMin="-182" xMax="1450" yMax="432">
      <contour>
        <pt x="1372" y="-6" on="1"/>
        <pt x="1327" y="-6" on="0"/>
        <pt x="1305" y="31" on="1"/>
        <pt x="1301" y="17" on="0"/>
        <pt x="1280" y="-6" on="0"/>
        <pt x="1264" y="-6" on="1"/>
        <pt x="1247" y="-6" on="0"/>
        <pt x="1220" y="19" on="0"/>
        <pt x="1215" y="32" on="1"/>
        <pt x="1212" y="19" on="0"/>
        <pt x="1185" y="2" on="0"/>
        <pt x="1173" y="0" on="1"/>
        <pt x="1149" y="0" on="0"/>
        <pt x="1122" y="22" on="0"/>
        <pt x="1117" y="39" on="1"/>
        <pt x="1109" y="26" on="0"/>
        <pt x="1082" y="2" on="0"/>
        <pt x="1062" y="0" on="1"/>
        <pt x="1038" y="0" on="0"/>
        <pt x="1004" y="20" on="0"/>
        <pt x="985" y="52" on="0"/>
        <pt x="977" y="94" on="0"/>
        <pt x="978" y="117" on="1"/>
        <pt x="979" y="151" on="0"/>
        <pt x="993" y="221" on="0"/>
        <pt x="1004" y="241" on="1"/>
        <pt x="1044" y="244" on="0"/>
        <pt x="1095" y="208" on="0"/>
        <pt x="1095" y="162" on="1"/>
        <pt x="1095" y="146" on="0"/>
        <pt x="1088" y="114" on="0"/>
        <pt x="1075" y="87" on="0"/>
        <pt x="1056" y="66" on="0"/>
        <pt x="1043" y="62" on="1"/>
        <pt x="1046" y="49" on="0"/>
        <pt x="1055" y="26" on="0"/>
        <pt x="1064" y="20" on="1"/>
        <pt x="1081" y="28" on="0"/>
        <pt x="1103" y="64" on="0"/>
        <pt x="1109" y="79" on="1"/>
        <pt x="1109" y="112" on="1"/>
        <pt x="1111" y="146" on="0"/>
        <pt x="1128" y="206" on="0"/>
        <pt x="1150" y="229" on="1"/>
        <pt x="1161" y="229" on="0"/>
        <pt x="1184" y="224" on="0"/>
        <pt x="1194" y="221" on="1"/>
        <pt x="1194" y="223" on="0"/>
        <pt x="1197" y="236" on="0"/>
        <pt x="1201" y="251" on="0"/>
        <pt x="1205" y="263" on="0"/>
        <pt x="1207" y="265" on="1"/>
        <pt x="1218" y="267" on="0"/>
        <pt x="1255" y="253" on="0"/>
        <pt x="1262" y="245" on="1"/>
        <pt x="1259" y="221" on="0"/>
        <pt x="1254" y="161" on="0"/>
        <pt x="1253" y="100" on="0"/>
        <pt x="1258" y="41" on="0"/>
        <pt x="1265" y="18" on="1"/>
        <pt x="1269" y="17" on="0"/>
        <pt x="1279" y="25" on="0"/>
        <pt x="1287" y="37" on="0"/>
        <pt x="1294" y="49" on="0"/>
        <pt x="1296" y="53" on="1"/>
        <pt x="1294" y="61" on="1"/>
        <pt x="1285" y="104" on="0"/>
        <pt x="1282" y="202" on="0"/>
        <pt x="1292" y="298" on="0"/>
        <pt x="1316" y="386" on="0"/>
        <pt x="1334" y="419" on="1"/>
        <pt x="1361" y="414" on="0"/>
        <pt x="1397" y="397" on="0"/>
        <pt x="1418" y="369" on="0"/>
        <pt x="1427" y="328" on="0"/>
        <pt x="1427" y="300" on="1"/>
        <pt x="1427" y="273" on="0"/>
        <pt x="1418" y="217" on="0"/>
        <pt x="1400" y="167" on="0"/>
        <pt x="1373" y="130" on="0"/>
        <pt x="1356" y="122" on="1"/>
        <pt x="1356" y="56" on="0"/>
        <pt x="1382" y="18" on="1"/>
        <pt x="1403" y="34" on="0"/>
        <pt x="1434" y="93" on="0"/>
        <pt x="1443" y="140" on="1"/>
        <pt x="1443" y="144" on="0"/>
        <pt x="1445" y="148" on="0"/>
        <pt x="1447" y="140" on="1"/>
        <pt x="1450" y="123" on="0"/>
        <pt x="1448" y="73" on="0"/>
        <pt x="1433" y="27" on="0"/>
        <pt x="1400" y="-6" on="0"/>
      </contour>
      <contour>
        <pt x="778" y="235" on="1"/>
        <pt x="787" y="161" on="0"/>
        <pt x="782" y="12" on="0"/>
        <pt x="750" y="-107" on="0"/>
        <pt x="690" y="-182" on="0"/>
        <pt x="644" y="-182" on="1"/>
        <pt x="611" y="-182" on="0"/>
        <pt x="589" y="-147" on="0"/>
        <pt x="589" y="-113" on="1"/>
        <pt x="589" y="-98" on="0"/>
        <pt x="594" y="-70" on="0"/>
        <pt x="598" y="-58" on="1"/>
        <pt x="613" y="-58" on="0"/>
        <pt x="647" y="-68" on="0"/>
        <pt x="659" y="-81" on="1"/>
        <pt x="657" y="-98" on="0"/>
        <pt x="653" y="-142" on="0"/>
        <pt x="658" y="-160" on="1"/>
        <pt x="677" y="-147" on="0"/>
        <pt x="699" y="-114" on="0"/>
        <pt x="711" y="-71" on="0"/>
        <pt x="717" y="-20" on="0"/>
        <pt x="721" y="11" on="1"/>
        <pt x="719" y="7" on="0"/>
        <pt x="708" y="0" on="0"/>
        <pt x="702" y="0" on="1"/>
        <pt x="680" y="0" on="0"/>
        <pt x="649" y="25" on="0"/>
        <pt x="639" y="45" on="1"/>
        <pt x="632" y="26" on="0"/>
        <pt x="600" y="-10" on="0"/>
        <pt x="569" y="-10" on="1"/>
        <pt x="533" y="-10" on="0"/>
        <pt x="483" y="21" on="0"/>
        <pt x="451" y="72" on="0"/>
        <pt x="436" y="136" on="0"/>
        <pt x="435" y="169" on="1"/>
        <pt x="435" y="207" on="0"/>
        <pt x="444" y="282" on="0"/>
        <pt x="465" y="351" on="0"/>
        <pt x="500" y="410" on="0"/>
        <pt x="526" y="432" on="1"/>
        <pt x="540" y="429" on="0"/>
        <pt x="573" y="419" on="0"/>
        <pt x="602" y="398" on="0"/>
        <pt x="621" y="362" on="0"/>
        <pt x="621" y="333" on="1"/>
        <pt x="621" y="310" on="0"/>
        <pt x="598" y="273" on="0"/>
        <pt x="581" y="258" on="1"/>
        <pt x="576" y="252" on="0"/>
        <pt x="574" y="258" on="0"/>
        <pt x="575" y="260" on="1"/>
        <pt x="577" y="272" on="0"/>
        <pt x="575" y="302" on="0"/>
        <pt x="569" y="331" on="0"/>
        <pt x="561" y="354" on="0"/>
        <pt x="557" y="359" on="1"/>
        <pt x="547" y="349" on="0"/>
        <pt x="529" y="298" on="0"/>
        <pt x="518" y="231" on="0"/>
        <pt x="515" y="154" on="0"/>
        <pt x="524" y="84" on="0"/>
        <pt x="546" y="27" on="0"/>
        <pt x="566" y="13" on="1"/>
        <pt x="590" y="21" on="0"/>
        <pt x="620" y="64" on="0"/>
        <pt x="627" y="80" on="1"/>
        <pt x="621" y="101" on="0"/>
        <pt x="616" y="150" on="0"/>
        <pt x="616" y="175" on="1"/>
        <pt x="616" y="198" on="0"/>
        <pt x="623" y="230" on="0"/>
        <pt x="628" y="241" on="1"/>
        <pt x="637" y="239" on="0"/>
        <pt x="675" y="229" on="0"/>
        <pt x="687" y="218" on="1"/>
        <pt x="684" y="167" on="0"/>
        <pt x="687" y="73" on="0"/>
        <pt x="701" y="30" on="1"/>
        <pt x="708" y="32" on="0"/>
        <pt x="713" y="43" on="0"/>
        <pt x="714" y="47" on="1"/>
        <pt x="720" y="76" on="0"/>
        <pt x="721" y="138" on="0"/>
        <pt x="717" y="196" on="0"/>
        <pt x="709" y="247" on="0"/>
        <pt x="706" y="265" on="1"/>
        <pt x="722" y="267" on="0"/>
        <pt x="766" y="249" on="0"/>
      </contour>
      <contour>
        <pt x="243" y="69" on="1"/>
        <pt x="232" y="69" on="0"/>
        <pt x="227" y="70" on="1"/>
        <pt x="226" y="68" on="0"/>
        <pt x="221" y="62" on="0"/>
        <pt x="218" y="63" on="1"/>
        <pt x="214" y="61" on="0"/>
        <pt x="214" y="61" on="1"/>
        <pt x="239" y="43" on="1"/>
        <pt x="243" y="42" on="0"/>
        <pt x="256" y="40" on="0"/>
        <pt x="261" y="33" on="1"/>
        <pt x="261" y="33" on="0"/>
        <pt x="259" y="31" on="1"/>
        <pt x="255" y="35" on="0"/>
        <pt x="250" y="38" on="0"/>
        <pt x="244" y="39" on="1"/>
        <pt x="250" y="35" on="0"/>
        <pt x="253" y="26" on="1"/>
        <pt x="253" y="25" on="0"/>
        <pt x="250" y="25" on="1"/>
        <pt x="247" y="30" on="0"/>
        <pt x="239" y="38" on="0"/>
        <pt x="234" y="39" on="1"/>
        <pt x="226" y="42" on="0"/>
        <pt x="213" y="38" on="1"/>
        <pt x="212" y="39" on="0"/>
        <pt x="212" y="41" on="1"/>
        <pt x="216" y="43" on="0"/>
        <pt x="225" y="43" on="0"/>
        <pt x="230" y="44" on="1"/>
        <pt x="222" y="51" on="0"/>
        <pt x="207" y="59" on="0"/>
        <pt x="207" y="61" on="1"/>
        <pt x="207" y="62" on="0"/>
        <pt x="211" y="65" on="1"/>
        <pt x="208" y="67" on="0"/>
        <pt x="209" y="73" on="0"/>
        <pt x="208" y="75" on="1"/>
        <pt x="193" y="80" on="0"/>
        <pt x="168" y="98" on="0"/>
        <pt x="147" y="117" on="0"/>
        <pt x="130" y="137" on="0"/>
        <pt x="123" y="144" on="1"/>
        <pt x="118" y="149" on="0"/>
        <pt x="98" y="154" on="0"/>
        <pt x="74" y="159" on="0"/>
        <pt x="52" y="166" on="0"/>
        <pt x="45" y="172" on="1"/>
        <pt x="42" y="174" on="0"/>
        <pt x="44" y="179" on="0"/>
        <pt x="46" y="179" on="1"/>
        <pt x="47" y="179" on="0"/>
        <pt x="74" y="175" on="0"/>
        <pt x="109" y="172" on="0"/>
        <pt x="140" y="169" on="0"/>
        <pt x="145" y="169" on="1"/>
        <pt x="171" y="174" on="0"/>
        <pt x="220" y="183" on="0"/>
        <pt x="261" y="192" on="0"/>
        <pt x="288" y="200" on="0"/>
        <pt x="293" y="204" on="1"/>
        <pt x="298" y="220" on="0"/>
        <pt x="321" y="238" on="0"/>
        <pt x="334" y="238" on="1"/>
        <pt x="345" y="238" on="0"/>
        <pt x="353" y="233" on="1"/>
        <pt x="366" y="238" on="1"/>
        <pt x="367" y="238" on="0"/>
        <pt x="367" y="237" on="1"/>
        <pt x="367" y="236" on="1"/>
        <pt x="363" y="223" on="1"/>
        <pt x="376" y="223" on="1"/>
        <pt x="377" y="222" on="0"/>
        <pt x="376" y="222" on="1"/>
        <pt x="366" y="209" on="1"/>
        <pt x="357" y="195" on="0"/>
        <pt x="342" y="153" on="0"/>
        <pt x="322" y="113" on="0"/>
        <pt x="293" y="79" on="0"/>
        <pt x="269" y="72" on="1"/>
        <pt x="269" y="71" on="0"/>
        <pt x="268" y="65" on="0"/>
        <pt x="264" y="63" on="1"/>
        <pt x="260" y="60" on="1"/>
        <pt x="275" y="55" on="0"/>
        <pt x="289" y="48" on="1"/>
        <pt x="294" y="49" on="0"/>
        <pt x="306" y="47" on="0"/>
        <pt x="314" y="42" on="1"/>
        <pt x="314" y="42" on="0"/>
        <pt x="313" y="41" on="1"/>
        <pt x="308" y="43" on="0"/>
        <pt x="301" y="45" on="0"/>
        <pt x="295" y="45" on="1"/>
        <pt x="298" y="43" on="0"/>
        <pt x="304" y="40" on="0"/>
        <pt x="306" y="36" on="1"/>
        <pt x="305" y="35" on="0"/>
        <pt x="305" y="34" on="1"/>
        <pt x="304" y="34" on="1"/>
        <pt x="294" y="44" on="0"/>
        <pt x="284" y="43" on="1"/>
        <pt x="279" y="43" on="0"/>
        <pt x="274" y="41" on="0"/>
        <pt x="269" y="39" on="1"/>
        <pt x="266" y="41" on="1"/>
        <pt x="270" y="44" on="0"/>
        <pt x="275" y="45" on="0"/>
        <pt x="279" y="47" on="1"/>
        <pt x="269" y="52" on="0"/>
        <pt x="254" y="57" on="0"/>
        <pt x="254" y="59" on="1"/>
        <pt x="254" y="61" on="0"/>
        <pt x="257" y="63" on="1"/>
        <pt x="255" y="63" on="0"/>
        <pt x="251" y="68" on="0"/>
        <pt x="251" y="69" on="1"/>
      </contour>
      <contour>
        <pt x="788" y="247" on="1"/>
        <pt x="813" y="245" on="0"/>
        <pt x="828" y="242" on="1"/>
        <pt x="844" y="239" on="0"/>
        <pt x="855" y="227" on="1"/>
        <pt x="862" y="214" on="0"/>
        <pt x="872" y="179" on="0"/>
        <pt x="874" y="153" on="1"/>
        <pt x="896" y="193" on="0"/>
        <pt x="903" y="215" on="1"/>
        <pt x="903" y="224" on="0"/>
        <pt x="909" y="247" on="0"/>
        <pt x="913" y="255" on="1"/>
        <pt x="933" y="253" on="0"/>
        <pt x="965" y="241" on="0"/>
        <pt x="972" y="230" on="1"/>
        <pt x="968" y="207" on="0"/>
        <pt x="965" y="152" on="0"/>
        <pt x="969" y="129" on="1"/>
        <pt x="918" y="115" on="0"/>
        <pt x="910" y="167" on="1"/>
        <pt x="905" y="154" on="0"/>
        <pt x="885" y="127" on="0"/>
        <pt x="881" y="110" on="1"/>
        <pt x="881" y="94" on="0"/>
        <pt x="879" y="51" on="0"/>
        <pt x="874" y="37" on="1"/>
        <pt x="869" y="17" on="0"/>
        <pt x="843" y="-7" on="0"/>
        <pt x="822" y="-4" on="1"/>
        <pt x="820" y="24" on="0"/>
        <pt x="817" y="91" on="0"/>
        <pt x="810" y="159" on="0"/>
        <pt x="798" y="222" on="0"/>
      </contour>
      <contour>
        <pt x="1172" y="23" on="1"/>
        <pt x="1180" y="29" on="0"/>
        <pt x="1199" y="53" on="0"/>
        <pt x="1201" y="66" on="1"/>
        <pt x="1196" y="83" on="0"/>
        <pt x="1192" y="120" on="0"/>
        <pt x="1190" y="155" on="0"/>
        <pt x="1191" y="183" on="0"/>
        <pt x="1192" y="192" on="1"/>
        <pt x="1185" y="183" on="0"/>
        <pt x="1172" y="143" on="0"/>
        <pt x="1165" y="94" on="0"/>
        <pt x="1166" y="42" on="0"/>
      </contour>
      <contour>
        <pt x="1355" y="151" on="1"/>
        <pt x="1365" y="166" on="0"/>
        <pt x="1379" y="215" on="0"/>
        <pt x="1386" y="269" on="0"/>
        <pt x="1386" y="322" on="0"/>
        <pt x="1383" y="341" on="1"/>
        <pt x="1373" y="303" on="0"/>
        <pt x="1357" y="199" on="0"/>
      </contour>
      <contour>
        <pt x="1058" y="195" on="1"/>
        <pt x="1042" y="146" on="0"/>
        <pt x="1042" y="84" on="1"/>
        <pt x="1049" y="85" on="0"/>
        <pt x="1059" y="99" on="0"/>
        <pt x="1066" y="118" on="0"/>
        <pt x="1069" y="142" on="0"/>
        <pt x="1069" y="153" on="1"/>
        <pt x="1069" y="167" on="0"/>
        <pt x="1062" y="189" on="0"/>
      </contour>
      <contour>
        <pt x="412" y="30" on="1"/>
        <pt x="412" y="33" on="0"/>
        <pt x="414" y="35" on="1"/>
        <pt x="415" y="36" on="1"/>
        <pt x="416" y="36" on="1"/>
        <pt x="417" y="36" on="0"/>
        <pt x="419" y="34" on="1"/>
        <pt x="419" y="32" on="0"/>
        <pt x="420" y="31" on="0"/>
        <pt x="420" y="30" on="1"/>
        <pt x="420" y="29" on="1"/>
        <pt x="420" y="26" on="0"/>
        <pt x="417" y="26" on="1"/>
        <pt x="416" y="26" on="1"/>
        <pt x="412" y="26" on="0"/>
        <pt x="412" y="29" on="1"/>
      </contour>
      <contour>
        <pt x="382" y="28" on="1"/>
        <pt x="383" y="29" on="1"/>
        <pt x="384" y="30" on="0"/>
        <pt x="385" y="30" on="1"/>
        <pt x="388" y="30" on="1"/>
        <pt x="390" y="30" on="0"/>
        <pt x="392" y="28" on="1"/>
        <pt x="392" y="26" on="1"/>
        <pt x="390" y="23" on="0"/>
        <pt x="388" y="23" on="1"/>
        <pt x="384" y="23" on="1"/>
        <pt x="383" y="23" on="0"/>
        <pt x="383" y="24" on="1"/>
        <pt x="382" y="24" on="0"/>
        <pt x="382" y="27" on="1"/>
      </contour>
      <contour>
        <pt x="361" y="34" on="1"/>
        <pt x="361" y="37" on="0"/>
        <pt x="366" y="37" on="1"/>
        <pt x="371" y="37" on="0"/>
        <pt x="371" y="34" on="1"/>
        <pt x="371" y="30" on="0"/>
        <pt x="366" y="30" on="1"/>
        <pt x="361" y="30" on="0"/>
      </contour>
    </TTGlyph>
    <TTGlyph name="four" xMin="45" yMin="0" xMax="521" yMax="700">
      <contour>
        <pt x="347" y="700" on="1"/>
        <pt x="441" y="700" on="1"/>
        <pt x="441" y="247" on="1"/>
        <pt x="521" y="247" on="1"/>
        <pt x="521" y="159" on="1"/>
        <pt x="441" y="159" on="1"/>
        <pt x="441" y="0" on="1"/>
        <pt x="347" y="0" on="1"/>
        <pt x="347" y="159" on="1"/>
        <pt x="45" y="159" on="1"/>
        <pt x="45" y="203" on="1"/>
        <pt x="45" y="330" on="0"/>
        <pt x="165" y="483" on="1"/>
      </contour>
      <contour>
        <pt x="236" y="440" on="1"/>
        <pt x="149" y="321" on="0"/>
        <pt x="139" y="247" on="1"/>
        <pt x="347" y="247" on="1"/>
        <pt x="347" y="568" on="1"/>
      </contour>
    </TTGlyph>
    <TTGlyph name="fraction" xMin="-40" yMin="0" xMax="372" yMax="700">
      <contour>
        <pt x="291" y="700" on="1"/>
        <pt x="372" y="700" on="1"/>
        <pt x="43" y="0" on="1"/>
        <pt x="-40" y="0" on="1"/>
      </contour>
    </TTGlyph>
    <TTGlyph name="g" xMin="45" yMin="-228" xMax="525" yMax="480">
      <contour>
        <pt x="283" y="0" on="1"/>
        <pt x="185" y="0" on="0"/>
        <pt x="45" y="132" on="0"/>
        <pt x="45" y="235" on="1"/>
        <pt x="45" y="339" on="0"/>
        <pt x="186" y="480" on="0"/>
        <pt x="290" y="480" on="1"/>
        <pt x="525" y="480" on="1"/>
        <pt x="525" y="14" on="1"/>
        <pt x="525" y="-31" on="0"/>
        <pt x="502" y="-103" on="0"/>
        <pt x="460" y="-153" on="0"/>
        <pt x="426" y="-181" on="0"/>
        <pt x="402" y="-196" on="1"/>
        <pt x="340" y="-228" on="0"/>
        <pt x="251" y="-228" on="1"/>
        <pt x="139" y="-228" on="1"/>
        <pt x="139" y="-144" on="1"/>
        <pt x="242" y="-144" on="1"/>
        <pt x="330" y="-144" on="0"/>
        <pt x="367" y="-122" on="1"/>
        <pt x="435" y="-84" on="0"/>
        <pt x="435" y="4" on="1"/>
        <pt x="435" y="396" on="1"/>
        <pt x="290" y="396" on="1"/>
        <pt x="219" y="396" on="0"/>
        <pt x="135" y="308" on="0"/>
        <pt x="135" y="235" on="1"/>
        <pt x="135" y="165" on="0"/>
        <pt x="222" y="84" on="0"/>
        <pt x="283" y="84" on="1"/>
        <pt x="349" y="84" on="0"/>
        <pt x="399" y="120" on="1"/>
        <pt x="399" y="30" on="1"/>
        <pt x="345" y="0" on="0"/>
      </contour>
    </TTGlyph>
    <TTGlyph name="germandbls" xMin="-1" yMin="0" xMax="476" yMax="700">
      <contour>
        <pt x="-1" y="396" on="1"/>
        <pt x="39" y="480" on="1"/>
        <pt x="67" y="480" on="1"/>
        <pt x="67" y="581" on="0"/>
        <pt x="187" y="700" on="0"/>
        <pt x="281" y="700" on="1"/>
        <pt x="353" y="700" on="0"/>
        <pt x="437" y="613" on="0"/>
        <pt x="437" y="552" on="1"/>
        <pt x="437" y="513" on="0"/>
        <pt x="397" y="446" on="0"/>
        <pt x="316" y="382" on="1"/>
        <pt x="299" y="368" on="0"/>
        <pt x="299" y="350" on="1"/>
        <pt x="299" y="336" on="0"/>
        <pt x="325" y="315" on="0"/>
        <pt x="410" y="282" on="0"/>
        <pt x="450" y="250" on="0"/>
        <pt x="476" y="193" on="0"/>
        <pt x="476" y="154" on="1"/>
        <pt x="476" y="123" on="0"/>
        <pt x="465" y="76" on="0"/>
        <pt x="433" y="27" on="0"/>
        <pt x="364" y="0" on="0"/>
        <pt x="312" y="0" on="1"/>
        <pt x="219" y="0" on="1"/>
        <pt x="219" y="84" on="1"/>
        <pt x="312" y="84" on="1"/>
        <pt x="386" y="84" on="0"/>
        <pt x="386" y="154" on="1"/>
        <pt x="386" y="180" on="0"/>
        <pt x="350" y="215" on="0"/>
        <pt x="298" y="239" on="0"/>
        <pt x="245" y="265" on="0"/>
        <pt x="209" y="314" on="0"/>
        <pt x="209" y="350" on="1"/>
        <pt x="209" y="394" on="0"/>
        <pt x="258" y="440" on="1"/>
        <pt x="267" y="448" on="0"/>
        <pt x="328" y="499" on="0"/>
        <pt x="347" y="533" on="0"/>
        <pt x="347" y="552" on="1"/>
        <pt x="347" y="578" on="0"/>
        <pt x="312" y="616" on="0"/>
        <pt x="281" y="616" on="1"/>
        <pt x="157" y="616" on="0"/>
        <pt x="157" y="448" on="1"/>
        <pt x="157" y="0" on="1"/>
        <pt x="67" y="0" on="1"/>
        <pt x="67" y="396" on="1"/>
      </contour>
    </TTGlyph>
    <TTGlyph name="grave" xMin="35" yMin="525" xMax="215" yMax="715">
      <contour>
        <pt x="215" y="567" on="1"/>
        <pt x="163" y="525" on="1"/>
        <pt x="35" y="653" on="1"/>
        <pt x="97" y="715" on="1"/>
      </contour>
    </TTGlyph>
    <TTGlyph name="greater" xMin="65" yMin="45" xMax="427" yMax="435">
      <contour>
        <pt x="65" y="125" on="1"/>
        <pt x="330" y="240" on="1"/>
        <pt x="65" y="355" on="1"/>
        <pt x="65" y="435" on="1"/>
        <pt x="427" y="275" on="1"/>
        <pt x="427" y="205" on="1"/>
        <pt x="65" y="45" on="1"/>
      </contour>
    </TTGlyph>
    <TTGlyph name="guillemotleft" xMin="55" yMin="86" xMax="466" yMax="394">
      <contour>
        <pt x="151" y="240" on="1"/>
        <pt x="276" y="86" on="1"/>
        <pt x="180" y="86" on="1"/>
        <pt x="55" y="240" on="1"/>
        <pt x="180" y="394" on="1"/>
        <pt x="276" y="394" on="1"/>
      </contour>
      <contour>
        <pt x="341" y="240" on="1"/>
        <pt x="466" y="86" on="1"/>
        <pt x="370" y="86" on="1"/>
        <pt x="245" y="240" on="1"/>
        <pt x="370" y="394" on="1"/>
        <pt x="466" y="394" on="1"/>
      </contour>
    </TTGlyph>
    <TTGlyph name="guillemotright" xMin="15" yMin="86" xMax="426" yMax="394">
      <contour>
        <pt x="140" y="240" on="1"/>
        <pt x="15" y="394" on="1"/>
        <pt x="111" y="394" on="1"/>
        <pt x="236" y="240" on="1"/>
        <pt x="111" y="86" on="1"/>
        <pt x="15" y="86" on="1"/>
      </contour>
      <contour>
        <pt x="330" y="240" on="1"/>
        <pt x="205" y="394" on="1"/>
        <pt x="301" y="394" on="1"/>
        <pt x="426" y="240" on="1"/>
        <pt x="301" y="86" on="1"/>
        <pt x="205" y="86" on="1"/>
      </contour>
    </TTGlyph>
    <TTGlyph name="guilsinglleft" xMin="55" yMin="86" xMax="276" yMax="394">
      <contour>
        <pt x="151" y="240" on="1"/>
        <pt x="276" y="86" on="1"/>
        <pt x="180" y="86" on="1"/>
        <pt x="55" y="240" on="1"/>
        <pt x="180" y="394" on="1"/>
        <pt x="276" y="394" on="1"/>
      </contour>
    </TTGlyph>
    <TTGlyph name="guilsinglright" xMin="15" yMin="86" xMax="236" yMax="394">
      <contour>
        <pt x="140" y="240" on="1"/>
        <pt x="15" y="394" on="1"/>
        <pt x="111" y="394" on="1"/>
        <pt x="236" y="240" on="1"/>
        <pt x="111" y="86" on="1"/>
        <pt x="15" y="86" on="1"/>
      </contour>
    </TTGlyph>
    <TTGlyph name="h" xMin="60" yMin="0" xMax="458" yMax="700">
      <contour>
        <pt x="148" y="700" on="1"/>
        <pt x="148" y="480" on="1"/>
        <pt x="233" y="480" on="1"/>
        <pt x="344" y="480" on="0"/>
        <pt x="392" y="447" on="1"/>
        <pt x="435" y="418" on="0"/>
        <pt x="458" y="337" on="0"/>
        <pt x="458" y="271" on="1"/>
        <pt x="458" y="0" on="1"/>
        <pt x="370" y="0" on="1"/>
        <pt x="370" y="270" on="1"/>
        <pt x="370" y="288" on="0"/>
        <pt x="368" y="313" on="0"/>
        <pt x="356" y="352" on="0"/>
        <pt x="334" y="377" on="0"/>
        <pt x="292" y="396" on="0"/>
        <pt x="262" y="396" on="1"/>
        <pt x="148" y="396" on="1"/>
        <pt x="148" y="0" on="1"/>
        <pt x="60" y="0" on="1"/>
        <pt x="60" y="700" on="1"/>
      </contour>
    </TTGlyph>
    <TTGlyph name="hyphen" xMin="33" yMin="200" xMax="257" yMax="280">
      <contour>
        <pt x="257" y="200" on="1"/>
        <pt x="33" y="200" on="1"/>
        <pt x="33" y="280" on="1"/>
        <pt x="257" y="280" on="1"/>
      </contour>
    </TTGlyph>
    <TTGlyph name="i" xMin="20" yMin="0" xMax="191" yMax="670">
      <contour>
        <pt x="190" y="0" on="1"/>
        <pt x="102" y="0" on="1"/>
        <pt x="102" y="396" on="1"/>
        <pt x="20" y="396" on="1"/>
        <pt x="60" y="480" on="1"/>
        <pt x="190" y="480" on="1"/>
      </contour>
      <contour>
        <pt x="98" y="580" on="1"/>
        <pt x="85" y="597" on="0"/>
        <pt x="85" y="637" on="0"/>
        <pt x="111" y="670" on="0"/>
        <pt x="165" y="670" on="0"/>
        <pt x="191" y="637" on="0"/>
        <pt x="191" y="597" on="0"/>
        <pt x="165" y="564" on="0"/>
        <pt x="111" y="564" on="0"/>
      </contour>
    </TTGlyph>
    <TTGlyph name="iacute" xMin="20" yMin="0" xMax="252" yMax="715">
      <component glyphName="dotlessi" x="0" y="0" flags="0x204"/>
      <component glyphName="acute" x="37" y="0" flags="0x4"/>
    </TTGlyph>
    <TTGlyph name="icircumflex" xMin="-27" yMin="0" xMax="294" yMax="700">
      <component glyphName="dotlessi" x="0" y="0" flags="0x204"/>
      <component glyphName="circumflex" x="-58" y="0" flags="0x4"/>
    </TTGlyph>
    <TTGlyph name="idieresis" xMin="-13" yMin="0" xMax="279" yMax="680">
      <component glyphName="dotlessi" x="0" y="0" flags="0x204"/>
      <component glyphName="dieresis" x="-48" y="0" flags="0x4"/>
    </TTGlyph>
    <TTGlyph name="igrave" xMin="3" yMin="0" xMax="190" yMax="715">
      <component glyphName="dotlessi" x="0" y="0" flags="0x204"/>
      <component glyphName="grave" x="-32" y="0" flags="0x4"/>
    </TTGlyph>
    <TTGlyph name="j" xMin="-40" yMin="-228" xMax="165" yMax="670">
      <contour>
        <pt x="164" y="480" on="1"/>
        <pt x="164" y="-38" on="1"/>
        <pt x="164" y="-142" on="0"/>
        <pt x="72" y="-228" on="0"/>
        <pt x="-40" y="-228" on="1"/>
        <pt x="-40" y="-144" on="1"/>
        <pt x="-12" y="-144" on="0"/>
        <pt x="23" y="-138" on="0"/>
        <pt x="59" y="-119" on="0"/>
        <pt x="76" y="-74" on="0"/>
        <pt x="76" y="-38" on="1"/>
        <pt x="76" y="396" on="1"/>
        <pt x="-6" y="396" on="1"/>
        <pt x="34" y="480" on="1"/>
      </contour>
      <contour>
        <pt x="72" y="580" on="1"/>
        <pt x="59" y="597" on="0"/>
        <pt x="59" y="637" on="0"/>
        <pt x="85" y="670" on="0"/>
        <pt x="139" y="670" on="0"/>
        <pt x="165" y="637" on="0"/>
        <pt x="165" y="597" on="0"/>
        <pt x="139" y="564" on="0"/>
        <pt x="85" y="564" on="0"/>
      </contour>
    </TTGlyph>
    <TTGlyph name="k" xMin="60" yMin="0" xMax="435" yMax="700">
      <contour>
        <pt x="336" y="480" on="1"/>
        <pt x="433" y="480" on="1"/>
        <pt x="312" y="271" on="1"/>
        <pt x="435" y="238" on="0"/>
        <pt x="435" y="72" on="1"/>
        <pt x="435" y="0" on="1"/>
        <pt x="347" y="0" on="1"/>
        <pt x="347" y="73" on="1"/>
        <pt x="347" y="140" on="0"/>
        <pt x="268" y="213" on="0"/>
        <pt x="195" y="213" on="1"/>
        <pt x="172" y="213" on="0"/>
        <pt x="148" y="210" on="1"/>
        <pt x="148" y="0" on="1"/>
        <pt x="60" y="0" on="1"/>
        <pt x="60" y="700" on="1"/>
        <pt x="148" y="700" on="1"/>
        <pt x="148" y="289" on="1"/>
        <pt x="190" y="295" on="0"/>
        <pt x="232" y="289" on="1"/>
      </contour>
    </TTGlyph>
    <TTGlyph name="l" xMin="60" yMin="0" xMax="265" yMax="700">
      <contour>
        <pt x="60" y="190" on="1"/>
        <pt x="60" y="700" on="1"/>
        <pt x="150" y="700" on="1"/>
        <pt x="150" y="190" on="1"/>
        <pt x="150" y="154" on="0"/>
        <pt x="167" y="109" on="0"/>
        <pt x="203" y="90" on="0"/>
        <pt x="237" y="84" on="0"/>
        <pt x="265" y="84" on="1"/>
        <pt x="265" y="0" on="1"/>
        <pt x="153" y="0" on="0"/>
        <pt x="60" y="86" on="0"/>
      </contour>
    </TTGlyph>
    <TTGlyph name="less" xMin="35" yMin="45" xMax="397" yMax="435">
      <contour>
        <pt x="132" y="240" on="1"/>
        <pt x="397" y="125" on="1"/>
        <pt x="397" y="45" on="1"/>
        <pt x="35" y="205" on="1"/>
        <pt x="35" y="275" on="1"/>
        <pt x="397" y="435" on="1"/>
        <pt x="397" y="355" on="1"/>
      </contour>
    </TTGlyph>
    <TTGlyph name="logicalnot" xMin="50" yMin="112" xMax="530" yMax="328">
      <contour>
        <pt x="452" y="112" on="1"/>
        <pt x="452" y="250" on="1"/>
        <pt x="50" y="250" on="1"/>
        <pt x="50" y="328" on="1"/>
        <pt x="530" y="328" on="1"/>
        <pt x="530" y="112" on="1"/>
      </contour>
    </TTGlyph>
    <TTGlyph name="m" xMin="65" yMin="0" xMax="689" yMax="480">
      <contour>
        <pt x="65" y="480" on="1"/>
        <pt x="506" y="480" on="1"/>
        <pt x="577" y="480" on="0"/>
        <pt x="619" y="453" on="1"/>
        <pt x="662" y="426" on="0"/>
        <pt x="689" y="340" on="0"/>
        <pt x="689" y="280" on="1"/>
        <pt x="689" y="0" on="1"/>
        <pt x="601" y="0" on="1"/>
        <pt x="601" y="280" on="1"/>
        <pt x="601" y="358" on="0"/>
        <pt x="554" y="383" on="1"/>
        <pt x="530" y="396" on="0"/>
        <pt x="457" y="396" on="1"/>
        <pt x="416" y="396" on="1"/>
        <pt x="416" y="0" on="1"/>
        <pt x="328" y="0" on="1"/>
        <pt x="328" y="396" on="1"/>
        <pt x="153" y="396" on="1"/>
        <pt x="153" y="0" on="1"/>
        <pt x="65" y="0" on="1"/>
      </contour>
    </TTGlyph>
    <TTGlyph name="macron" xMin="-10" yMin="572" xMax="300" yMax="640">
      <contour>
        <pt x="-10" y="572" on="1"/>
        <pt x="-10" y="640" on="1"/>
        <pt x="300" y="640" on="1"/>
        <pt x="300" y="572" on="1"/>
      </contour>
    </TTGlyph>
    <TTGlyph name="minus" xMin="50" yMin="201" xMax="530" yMax="279">
      <contour>
        <pt x="50" y="201" on="1"/>
        <pt x="50" y="279" on="1"/>
        <pt x="530" y="279" on="1"/>
        <pt x="530" y="201" on="1"/>
      </contour>
    </TTGlyph>
    <TTGlyph name="mu" xMin="47" yMin="-227" xMax="439" yMax="480">
      <contour>
        <pt x="243" y="84" on="1"/>
        <pt x="277" y="84" on="0"/>
        <pt x="320" y="112" on="0"/>
        <pt x="343" y="152" on="0"/>
        <pt x="351" y="198" on="0"/>
        <pt x="351" y="216" on="1"/>
        <pt x="351" y="480" on="1"/>
        <pt x="439" y="480" on="1"/>
        <pt x="439" y="-1" on="1"/>
        <pt x="351" y="-1" on="1"/>
        <pt x="351" y="57" on="1"/>
        <pt x="309" y="0" on="0"/>
        <pt x="243" y="0" on="1"/>
        <pt x="177" y="0" on="0"/>
        <pt x="135" y="57" on="1"/>
        <pt x="135" y="-227" on="1"/>
        <pt x="47" y="-227" on="1"/>
        <pt x="47" y="480" on="1"/>
        <pt x="135" y="480" on="1"/>
        <pt x="135" y="230" on="1"/>
        <pt x="135" y="84" on="0"/>
      </contour>
    </TTGlyph>
    <TTGlyph name="multiply" xMin="50" yMin="0" xMax="530" yMax="480">
      <contour>
        <pt x="290" y="185" on="1"/>
        <pt x="105" y="0" on="1"/>
        <pt x="50" y="55" on="1"/>
        <pt x="235" y="240" on="1"/>
        <pt x="50" y="425" on="1"/>
        <pt x="105" y="480" on="1"/>
        <pt x="290" y="295" on="1"/>
        <pt x="475" y="480" on="1"/>
        <pt x="530" y="425" on="1"/>
        <pt x="345" y="240" on="1"/>
        <pt x="530" y="55" on="1"/>
        <pt x="475" y="0" on="1"/>
      </contour>
    </TTGlyph>
    <TTGlyph name="n" xMin="65" yMin="0" xMax="463" yMax="480">
      <contour>
        <pt x="65" y="480" on="1"/>
        <pt x="238" y="480" on="1"/>
        <pt x="349" y="480" on="0"/>
        <pt x="397" y="447" on="1"/>
        <pt x="440" y="418" on="0"/>
        <pt x="463" y="337" on="0"/>
        <pt x="463" y="271" on="1"/>
        <pt x="463" y="0" on="1"/>
        <pt x="375" y="0" on="1"/>
        <pt x="375" y="270" on="1"/>
        <pt x="375" y="288" on="0"/>
        <pt x="373" y="313" on="0"/>
        <pt x="361" y="352" on="0"/>
        <pt x="339" y="377" on="0"/>
        <pt x="297" y="396" on="0"/>
        <pt x="267" y="396" on="1"/>
        <pt x="153" y="396" on="1"/>
        <pt x="153" y="0" on="1"/>
        <pt x="65" y="0" on="1"/>
      </contour>
    </TTGlyph>
    <TTGlyph name="nine" xMin="45" yMin="0" xMax="514" yMax="710">
      <contour>
        <pt x="144" y="475" on="1"/>
        <pt x="144" y="343" on="0"/>
        <pt x="257" y="343" on="1"/>
        <pt x="305" y="343" on="0"/>
        <pt x="349" y="355" on="1"/>
        <pt x="349" y="274" on="1"/>
        <pt x="301" y="256" on="0"/>
        <pt x="251" y="256" on="1"/>
        <pt x="156" y="256" on="0"/>
        <pt x="45" y="373" on="0"/>
        <pt x="45" y="475" on="1"/>
        <pt x="45" y="584" on="0"/>
        <pt x="163" y="710" on="0"/>
        <pt x="260" y="710" on="1"/>
        <pt x="393" y="710" on="0"/>
        <pt x="514" y="538" on="0"/>
        <pt x="514" y="350" on="1"/>
        <pt x="514" y="190" on="0"/>
        <pt x="329" y="0" on="0"/>
        <pt x="169" y="0" on="1"/>
        <pt x="111" y="0" on="1"/>
        <pt x="111" y="88" on="1"/>
        <pt x="181" y="88" on="1"/>
        <pt x="295" y="88" on="0"/>
        <pt x="419" y="220" on="0"/>
        <pt x="419" y="350" on="1"/>
        <pt x="419" y="497" on="0"/>
        <pt x="344" y="626" on="0"/>
        <pt x="263" y="626" on="1"/>
        <pt x="208" y="626" on="0"/>
        <pt x="144" y="550" on="0"/>
      </contour>
    </TTGlyph>
    <TTGlyph name="nonbreakingspace" xMin="0" yMin="0" xMax="0" yMax="0">
      <component glyphName="space" x="0" y="0" flags="0x204"/>
    </TTGlyph>
    <TTGlyph name="ntilde" xMin="65" yMin="0" xMax="463" yMax="676">
      <component glyphName="n" x="0" y="0" flags="0x204"/>
      <component glyphName="tilde" x="47" y="0" flags="0x4"/>
    </TTGlyph>
    <TTGlyph name="numbersign" xMin="55" yMin="0" xMax="547" yMax="700">
      <contour>
        <pt x="518" y="278" on="1"/>
        <pt x="515" y="214" on="1"/>
        <pt x="418" y="214" on="1"/>
        <pt x="388" y="0" on="1"/>
        <pt x="316" y="0" on="1"/>
        <pt x="346" y="214" on="1"/>
        <pt x="227" y="214" on="1"/>
        <pt x="197" y="0" on="1"/>
        <pt x="125" y="0" on="1"/>
        <pt x="155" y="214" on="1"/>
        <pt x="55" y="214" on="1"/>
        <pt x="58" y="278" on="1"/>
        <pt x="164" y="278" on="1"/>
        <pt x="184" y="422" on="1"/>
        <pt x="84" y="422" on="1"/>
        <pt x="87" y="486" on="1"/>
        <pt x="193" y="486" on="1"/>
        <pt x="223" y="700" on="1"/>
        <pt x="295" y="700" on="1"/>
        <pt x="265" y="486" on="1"/>
        <pt x="384" y="486" on="1"/>
        <pt x="414" y="700" on="1"/>
        <pt x="486" y="700" on="1"/>
        <pt x="456" y="486" on="1"/>
        <pt x="547" y="486" on="1"/>
        <pt x="544" y="422" on="1"/>
        <pt x="447" y="422" on="1"/>
        <pt x="427" y="278" on="1"/>
      </contour>
      <contour>
        <pt x="375" y="422" on="1"/>
        <pt x="256" y="422" on="1"/>
        <pt x="236" y="278" on="1"/>
        <pt x="355" y="278" on="1"/>
      </contour>
    </TTGlyph>
    <TTGlyph name="o" xMin="45" yMin="-10" xMax="535" yMax="490">
      <contour>
        <pt x="115" y="417" on="1"/>
        <pt x="185" y="490" on="0"/>
        <pt x="290" y="490" on="1"/>
        <pt x="341" y="490" on="0"/>
        <pt x="430" y="451" on="0"/>
        <pt x="497" y="383" on="0"/>
        <pt x="535" y="292" on="0"/>
        <pt x="535" y="240" on="1"/>
        <pt x="535" y="188" on="0"/>
        <pt x="498" y="97" on="0"/>
        <pt x="432" y="29" on="0"/>
        <pt x="342" y="-10" on="0"/>
        <pt x="290" y="-10" on="1"/>
        <pt x="237" y="-10" on="0"/>
        <pt x="148" y="29" on="0"/>
        <pt x="82" y="97" on="0"/>
        <pt x="45" y="188" on="0"/>
        <pt x="45" y="240" on="1"/>
        <pt x="45" y="346" on="0"/>
      </contour>
      <contour>
        <pt x="290" y="406" on="1"/>
        <pt x="220" y="406" on="0"/>
        <pt x="135" y="314" on="0"/>
        <pt x="135" y="166" on="0"/>
        <pt x="220" y="74" on="0"/>
        <pt x="290" y="74" on="1"/>
        <pt x="361" y="74" on="0"/>
        <pt x="445" y="167" on="0"/>
        <pt x="445" y="313" on="0"/>
        <pt x="361" y="406" on="0"/>
      </contour>
    </TTGlyph>
    <TTGlyph name="oacute" xMin="45" yMin="-10" xMax="535" yMax="715">
      <component glyphName="o" x="0" y="0" flags="0x204"/>
      <component glyphName="acute" x="215" y="0" flags="0x4"/>
    </TTGlyph>
    <TTGlyph name="ocircumflex" xMin="45" yMin="-10" xMax="535" yMax="700">
      <component glyphName="o" x="0" y="0" flags="0x204"/>
      <component glyphName="circumflex" x="98" y="0" flags="0x4"/>
    </TTGlyph>
    <TTGlyph name="odieresis" xMin="45" yMin="-10" xMax="535" yMax="680">
      <component glyphName="o" x="0" y="0" flags="0x204"/>
      <component glyphName="dieresis" x="109" y="0" flags="0x4"/>
    </TTGlyph>
    <TTGlyph name="oe" xMin="38" yMin="-10" xMax="848" yMax="494">
      <contour>
        <pt x="678" y="490" on="1"/>
        <pt x="848" y="483" on="0"/>
        <pt x="848" y="349" on="1"/>
        <pt x="848" y="182" on="0"/>
        <pt x="629" y="182" on="1"/>
        <pt x="588" y="182" on="1"/>
        <pt x="588" y="259" on="1"/>
        <pt x="636" y="259" on="1"/>
        <pt x="703" y="259" on="0"/>
        <pt x="755" y="300" on="0"/>
        <pt x="755" y="348" on="1"/>
        <pt x="755" y="379" on="0"/>
        <pt x="709" y="410" on="0"/>
        <pt x="673" y="410" on="1"/>
        <pt x="602" y="410" on="0"/>
        <pt x="521" y="310" on="0"/>
        <pt x="521" y="240" on="1"/>
        <pt x="521" y="166" on="0"/>
        <pt x="608" y="74" on="0"/>
        <pt x="678" y="74" on="1"/>
        <pt x="741" y="74" on="0"/>
        <pt x="781" y="105" on="1"/>
        <pt x="841" y="46" on="1"/>
        <pt x="772" y="-10" on="0"/>
        <pt x="678" y="-10" on="1"/>
        <pt x="542" y="-10" on="0"/>
        <pt x="474" y="82" on="1"/>
        <pt x="402" y="-10" on="0"/>
        <pt x="283" y="-10" on="1"/>
        <pt x="179" y="-10" on="0"/>
        <pt x="38" y="135" on="0"/>
        <pt x="38" y="345" on="0"/>
        <pt x="179" y="490" on="0"/>
        <pt x="283" y="490" on="1"/>
        <pt x="402" y="490" on="0"/>
        <pt x="475" y="396" on="1"/>
        <pt x="544" y="494" on="0"/>
      </contour>
      <contour>
        <pt x="283" y="406" on="1"/>
        <pt x="213" y="406" on="0"/>
        <pt x="128" y="314" on="0"/>
        <pt x="128" y="166" on="0"/>
        <pt x="213" y="74" on="0"/>
        <pt x="283" y="74" on="1"/>
        <pt x="354" y="74" on="0"/>
        <pt x="438" y="167" on="0"/>
        <pt x="438" y="313" on="0"/>
        <pt x="354" y="406" on="0"/>
      </contour>
    </TTGlyph>
    <TTGlyph name="ograve" xMin="45" yMin="-10" xMax="535" yMax="715">
      <component glyphName="o" x="0" y="0" flags="0x204"/>
      <component glyphName="grave" x="125" y="0" flags="0x4"/>
    </TTGlyph>
    <TTGlyph name="one" xMin="25" yMin="0" xMax="248" yMax="700">
      <contour>
        <pt x="248" y="0" on="1"/>
        <pt x="154" y="0" on="1"/>
        <pt x="154" y="606" on="1"/>
        <pt x="25" y="606" on="1"/>
        <pt x="67" y="700" on="1"/>
        <pt x="248" y="700" on="1"/>
      </contour>
    </TTGlyph>
    <TTGlyph name="onehalf" xMin="55" yMin="0" xMax="619" yMax="700">
      <component glyphName="onesuperior" x="0" y="0" flags="0x4"/>
      <component glyphName="twosuperior" x="361" y="-379" flags="0x4"/>
      <component glyphName="fraction" x="158" y="0" flags="0x4"/>
    </TTGlyph>
    <TTGlyph name="onequarter" xMin="55" yMin="0" xMax="614" yMax="700">
      <component glyphName="fraction" x="158" y="0" flags="0x4"/>
      <component glyphName="onesuperior" x="0" y="0" flags="0x4"/>
      <component glyphName="uni2074" x="333" y="-377" flags="0x4"/>
    </TTGlyph>
    <TTGlyph name="onesuperior" xMin="55" yMin="380" xMax="185" yMax="700">
      <contour>
        <pt x="114" y="380" on="1"/>
        <pt x="114" y="637" on="1"/>
        <pt x="55" y="637" on="1"/>
        <pt x="74" y="700" on="1"/>
        <pt x="185" y="700" on="1"/>
        <pt x="185" y="380" on="1"/>
      </contour>
    </TTGlyph>
    <TTGlyph name="ordfeminine" xMin="39" yMin="380" xMax="311" yMax="700">
      <contour>
        <pt x="206" y="571" on="1"/>
        <pt x="206" y="516" on="1"/>
        <pt x="182" y="524" on="0"/>
        <pt x="163" y="524" on="1"/>
        <pt x="105" y="524" on="0"/>
        <pt x="105" y="479" on="1"/>
        <pt x="105" y="446" on="0"/>
        <pt x="163" y="446" on="1"/>
        <pt x="245" y="446" on="1"/>
        <pt x="245" y="576" on="1"/>
        <pt x="245" y="634" on="0"/>
        <pt x="177" y="634" on="1"/>
        <pt x="67" y="634" on="1"/>
        <pt x="67" y="700" on="1"/>
        <pt x="177" y="700" on="1"/>
        <pt x="242" y="700" on="0"/>
        <pt x="311" y="636" on="0"/>
        <pt x="311" y="576" on="1"/>
        <pt x="311" y="380" on="1"/>
        <pt x="163" y="380" on="1"/>
        <pt x="106" y="380" on="0"/>
        <pt x="39" y="431" on="0"/>
        <pt x="39" y="479" on="1"/>
        <pt x="39" y="528" on="0"/>
        <pt x="110" y="579" on="0"/>
        <pt x="163" y="579" on="1"/>
        <pt x="187" y="579" on="0"/>
      </contour>
    </TTGlyph>
    <TTGlyph name="ordmasculine" xMin="55" yMin="370" xMax="387" yMax="709">
      <contour>
        <pt x="103" y="659" on="1"/>
        <pt x="151" y="709" on="0"/>
        <pt x="221" y="709" on="1"/>
        <pt x="256" y="709" on="0"/>
        <pt x="316" y="682" on="0"/>
        <pt x="361" y="635" on="0"/>
        <pt x="387" y="573" on="0"/>
        <pt x="387" y="539" on="1"/>
        <pt x="387" y="504" on="0"/>
        <pt x="362" y="443" on="0"/>
        <pt x="317" y="397" on="0"/>
        <pt x="256" y="370" on="0"/>
        <pt x="221" y="370" on="1"/>
        <pt x="186" y="370" on="0"/>
        <pt x="125" y="397" on="0"/>
        <pt x="80" y="443" on="0"/>
        <pt x="55" y="504" on="0"/>
        <pt x="55" y="539" on="1"/>
        <pt x="55" y="609" on="0"/>
      </contour>
      <contour>
        <pt x="286" y="606" on="1"/>
        <pt x="260" y="635" on="0"/>
        <pt x="221" y="635" on="1"/>
        <pt x="201" y="635" on="0"/>
        <pt x="168" y="619" on="0"/>
        <pt x="143" y="592" on="0"/>
        <pt x="129" y="558" on="0"/>
        <pt x="129" y="539" on="1"/>
        <pt x="129" y="520" on="0"/>
        <pt x="143" y="485" on="0"/>
        <pt x="168" y="459" on="0"/>
        <pt x="201" y="444" on="0"/>
        <pt x="221" y="444" on="1"/>
        <pt x="241" y="444" on="0"/>
        <pt x="275" y="460" on="0"/>
        <pt x="299" y="486" on="0"/>
        <pt x="313" y="521" on="0"/>
        <pt x="313" y="539" on="1"/>
        <pt x="313" y="577" on="0"/>
      </contour>
    </TTGlyph>
    <TTGlyph name="oslash" xMin="29" yMin="-15" xMax="537" yMax="507">
      <contour>
        <pt x="283" y="490" on="1"/>
        <pt x="352" y="490" on="0"/>
        <pt x="408" y="456" on="1"/>
        <pt x="448" y="507" on="1"/>
        <pt x="537" y="507" on="1"/>
        <pt x="463" y="410" on="1"/>
        <pt x="528" y="340" on="0"/>
        <pt x="528" y="240" on="1"/>
        <pt x="528" y="135" on="0"/>
        <pt x="387" y="-10" on="0"/>
        <pt x="283" y="-10" on="1"/>
        <pt x="210" y="-10" on="0"/>
        <pt x="151" y="27" on="1"/>
        <pt x="119" y="-15" on="1"/>
        <pt x="29" y="-15" on="1"/>
        <pt x="97" y="75" on="1"/>
        <pt x="38" y="145" on="0"/>
        <pt x="38" y="240" on="1"/>
        <pt x="38" y="345" on="0"/>
        <pt x="179" y="490" on="0"/>
      </contour>
      <contour>
        <pt x="438" y="240" on="1"/>
        <pt x="438" y="303" on="0"/>
        <pt x="405" y="347" on="1"/>
        <pt x="209" y="90" on="1"/>
        <pt x="240" y="74" on="0"/>
        <pt x="283" y="74" on="1"/>
        <pt x="354" y="74" on="0"/>
        <pt x="438" y="167" on="0"/>
      </contour>
      <contour>
        <pt x="283" y="406" on="1"/>
        <pt x="213" y="406" on="0"/>
        <pt x="128" y="314" on="0"/>
        <pt x="128" y="240" on="1"/>
        <pt x="128" y="181" on="0"/>
        <pt x="156" y="139" on="1"/>
        <pt x="350" y="392" on="1"/>
        <pt x="319" y="406" on="0"/>
      </contour>
    </TTGlyph>
    <TTGlyph name="otilde" xMin="45" yMin="-10" xMax="535" yMax="676">
      <component glyphName="o" x="0" y="0" flags="0x204"/>
      <component glyphName="tilde" x="76" y="0" flags="0x4"/>
    </TTGlyph>
    <TTGlyph name="p" xMin="60" yMin="-228" xMax="550" yMax="490">
      <contour>
        <pt x="60" y="-228" on="1"/>
        <pt x="60" y="240" on="1"/>
        <pt x="60" y="292" on="0"/>
        <pt x="98" y="384" on="0"/>
        <pt x="164" y="451" on="0"/>
        <pt x="254" y="490" on="0"/>
        <pt x="305" y="490" on="1"/>
        <pt x="356" y="490" on="0"/>
        <pt x="445" y="451" on="0"/>
        <pt x="512" y="383" on="0"/>
        <pt x="550" y="292" on="0"/>
        <pt x="550" y="240" on="1"/>
        <pt x="550" y="188" on="0"/>
        <pt x="513" y="97" on="0"/>
        <pt x="447" y="29" on="0"/>
        <pt x="357" y="-10" on="0"/>
        <pt x="305" y="-10" on="1"/>
        <pt x="241" y="-10" on="0"/>
        <pt x="186" y="20" on="1"/>
        <pt x="186" y="110" on="1"/>
        <pt x="235" y="74" on="0"/>
        <pt x="302" y="74" on="1"/>
        <pt x="338" y="74" on="0"/>
        <pt x="397" y="99" on="0"/>
        <pt x="438" y="143" on="0"/>
        <pt x="460" y="204" on="0"/>
        <pt x="460" y="240" on="1"/>
        <pt x="460" y="276" on="0"/>
        <pt x="438" y="337" on="0"/>
        <pt x="398" y="381" on="0"/>
        <pt x="341" y="406" on="0"/>
        <pt x="305" y="406" on="1"/>
        <pt x="270" y="406" on="0"/>
        <pt x="213" y="382" on="0"/>
        <pt x="172" y="338" on="0"/>
        <pt x="150" y="277" on="0"/>
        <pt x="150" y="240" on="1"/>
        <pt x="150" y="-228" on="1"/>
      </contour>
    </TTGlyph>
    <TTGlyph name="paragraph" xMin="45" yMin="0" xMax="521" yMax="700">
      <contour>
        <pt x="521" y="700" on="1"/>
        <pt x="521" y="0" on="1"/>
        <pt x="437" y="0" on="1"/>
        <pt x="437" y="612" on="1"/>
        <pt x="370" y="612" on="1"/>
        <pt x="370" y="0" on="1"/>
        <pt x="286" y="0" on="1"/>
        <pt x="286" y="346" on="1"/>
        <pt x="271" y="346" on="1"/>
        <pt x="213" y="346" on="0"/>
        <pt x="126" y="374" on="0"/>
        <pt x="80" y="412" on="0"/>
        <pt x="52" y="465" on="0"/>
        <pt x="45" y="503" on="0"/>
        <pt x="45" y="522" on="1"/>
        <pt x="45" y="700" on="0"/>
        <pt x="284" y="700" on="1"/>
      </contour>
    </TTGlyph>
    <TTGlyph name="parenleft" xMin="75" yMin="-138" xMax="341" yMax="762">
      <contour>
        <pt x="341" y="-78" on="1"/>
        <pt x="295" y="-138" on="1"/>
        <pt x="178" y="-51" on="0"/>
        <pt x="75" y="191" on="0"/>
        <pt x="75" y="315" on="1"/>
        <pt x="75" y="436" on="0"/>
        <pt x="177" y="677" on="0"/>
        <pt x="291" y="762" on="1"/>
        <pt x="341" y="708" on="1"/>
        <pt x="163" y="572" on="0"/>
        <pt x="163" y="320" on="1"/>
        <pt x="163" y="64" on="0"/>
      </contour>
    </TTGlyph>
    <TTGlyph name="parenright" xMin="45" yMin="-138" xMax="311" yMax="762">
      <contour>
        <pt x="45" y="702" on="1"/>
        <pt x="91" y="762" on="1"/>
        <pt x="207" y="675" on="0"/>
        <pt x="311" y="432" on="0"/>
        <pt x="311" y="309" on="1"/>
        <pt x="311" y="188" on="0"/>
        <pt x="209" y="-53" on="0"/>
        <pt x="95" y="-138" on="1"/>
        <pt x="45" y="-84" on="1"/>
        <pt x="223" y="58" on="0"/>
        <pt x="223" y="304" on="1"/>
        <pt x="223" y="560" on="0"/>
      </contour>
    </TTGlyph>
    <TTGlyph name="percent" xMin="75" yMin="0" xMax="823" yMax="712">
      <contour>
        <pt x="543" y="51" on="1"/>
        <pt x="495" y="99" on="0"/>
        <pt x="495" y="168" on="1"/>
        <pt x="495" y="203" on="0"/>
        <pt x="522" y="263" on="0"/>
        <pt x="567" y="307" on="0"/>
        <pt x="626" y="332" on="0"/>
        <pt x="659" y="332" on="1"/>
        <pt x="692" y="332" on="0"/>
        <pt x="751" y="306" on="0"/>
        <pt x="796" y="261" on="0"/>
        <pt x="823" y="202" on="0"/>
        <pt x="823" y="168" on="1"/>
        <pt x="823" y="134" on="0"/>
        <pt x="797" y="75" on="0"/>
        <pt x="752" y="30" on="0"/>
        <pt x="693" y="4" on="0"/>
        <pt x="659" y="4" on="1"/>
        <pt x="593" y="4" on="0"/>
      </contour>
      <contour>
        <pt x="573" y="168" on="1"/>
        <pt x="573" y="130" on="0"/>
        <pt x="623" y="82" on="0"/>
        <pt x="659" y="82" on="1"/>
        <pt x="695" y="82" on="0"/>
        <pt x="745" y="130" on="0"/>
        <pt x="745" y="168" on="1"/>
        <pt x="745" y="205" on="0"/>
        <pt x="694" y="254" on="0"/>
        <pt x="658" y="254" on="1"/>
        <pt x="623" y="254" on="0"/>
        <pt x="573" y="205" on="0"/>
      </contour>
      <contour>
        <pt x="123" y="431" on="1"/>
        <pt x="75" y="479" on="0"/>
        <pt x="75" y="548" on="1"/>
        <pt x="75" y="583" on="0"/>
        <pt x="102" y="643" on="0"/>
        <pt x="147" y="687" on="0"/>
        <pt x="206" y="712" on="0"/>
        <pt x="239" y="712" on="1"/>
        <pt x="272" y="712" on="0"/>
        <pt x="331" y="686" on="0"/>
        <pt x="376" y="641" on="0"/>
        <pt x="403" y="582" on="0"/>
        <pt x="403" y="548" on="1"/>
        <pt x="403" y="514" on="0"/>
        <pt x="377" y="455" on="0"/>
        <pt x="332" y="410" on="0"/>
        <pt x="273" y="384" on="0"/>
        <pt x="239" y="384" on="1"/>
        <pt x="173" y="384" on="0"/>
      </contour>
      <contour>
        <pt x="153" y="548" on="1"/>
        <pt x="153" y="510" on="0"/>
        <pt x="203" y="462" on="0"/>
        <pt x="239" y="462" on="1"/>
        <pt x="275" y="462" on="0"/>
        <pt x="325" y="510" on="0"/>
        <pt x="325" y="548" on="1"/>
        <pt x="325" y="585" on="0"/>
        <pt x="274" y="634" on="0"/>
        <pt x="238" y="634" on="1"/>
        <pt x="203" y="634" on="0"/>
        <pt x="153" y="585" on="0"/>
      </contour>
      <contour>
        <pt x="561" y="700" on="1"/>
        <pt x="642" y="700" on="1"/>
        <pt x="313" y="0" on="1"/>
        <pt x="230" y="0" on="1"/>
      </contour>
    </TTGlyph>
    <TTGlyph name="period" xMin="10" yMin="-10" xMax="134" yMax="114">
      <contour>
        <pt x="28" y="8" on="1"/>
        <pt x="10" y="26" on="0"/>
        <pt x="10" y="52" on="1"/>
        <pt x="10" y="78" on="0"/>
        <pt x="46" y="114" on="0"/>
        <pt x="72" y="114" on="1"/>
        <pt x="98" y="114" on="0"/>
        <pt x="134" y="78" on="0"/>
        <pt x="134" y="52" on="1"/>
        <pt x="134" y="26" on="0"/>
        <pt x="98" y="-10" on="0"/>
        <pt x="72" y="-10" on="1"/>
        <pt x="46" y="-10" on="0"/>
      </contour>
    </TTGlyph>
    <TTGlyph name="periodcentered" xMin="35" yMin="300" xMax="159" yMax="424">
      <component glyphName="period" x="25" y="310" flags="0x4"/>
    </TTGlyph>
    <TTGlyph name="plus" xMin="50" yMin="0" xMax="530" yMax="480">
      <contour>
        <pt x="251" y="279" on="1"/>
        <pt x="251" y="480" on="1"/>
        <pt x="329" y="480" on="1"/>
        <pt x="329" y="279" on="1"/>
        <pt x="530" y="279" on="1"/>
        <pt x="530" y="201" on="1"/>
        <pt x="329" y="201" on="1"/>
        <pt x="329" y="0" on="1"/>
        <pt x="251" y="0" on="1"/>
        <pt x="251" y="201" on="1"/>
        <pt x="50" y="201" on="1"/>
        <pt x="50" y="279" on="1"/>
      </contour>
    </TTGlyph>
    <TTGlyph name="plusminus" xMin="50" yMin="0" xMax="530" yMax="480">
      <contour>
        <pt x="251" y="335" on="1"/>
        <pt x="251" y="480" on="1"/>
        <pt x="329" y="480" on="1"/>
        <pt x="329" y="335" on="1"/>
        <pt x="530" y="335" on="1"/>
        <pt x="530" y="257" on="1"/>
        <pt x="329" y="257" on="1"/>
        <pt x="329" y="112" on="1"/>
        <pt x="251" y="112" on="1"/>
        <pt x="251" y="257" on="1"/>
        <pt x="50" y="257" on="1"/>
        <pt x="50" y="335" on="1"/>
      </contour>
      <contour>
        <pt x="50" y="0" on="1"/>
        <pt x="50" y="78" on="1"/>
        <pt x="530" y="78" on="1"/>
        <pt x="530" y="0" on="1"/>
      </contour>
    </TTGlyph>
    <TTGlyph name="q" xMin="45" yMin="-228" xMax="535" yMax="490">
      <contour>
        <pt x="535" y="240" on="1"/>
        <pt x="535" y="-228" on="1"/>
        <pt x="445" y="-228" on="1"/>
        <pt x="445" y="240" on="1"/>
        <pt x="445" y="406" on="0"/>
        <pt x="290" y="406" on="1"/>
        <pt x="254" y="406" on="0"/>
        <pt x="197" y="381" on="0"/>
        <pt x="157" y="337" on="0"/>
        <pt x="135" y="276" on="0"/>
        <pt x="135" y="240" on="1"/>
        <pt x="135" y="204" on="0"/>
        <pt x="157" y="143" on="0"/>
        <pt x="197" y="99" on="0"/>
        <pt x="254" y="74" on="0"/>
        <pt x="290" y="74" on="1"/>
        <pt x="356" y="74" on="0"/>
        <pt x="406" y="110" on="1"/>
        <pt x="406" y="20" on="1"/>
        <pt x="352" y="-10" on="0"/>
        <pt x="290" y="-10" on="1"/>
        <pt x="237" y="-10" on="0"/>
        <pt x="148" y="29" on="0"/>
        <pt x="82" y="97" on="0"/>
        <pt x="45" y="188" on="0"/>
        <pt x="45" y="240" on="1"/>
        <pt x="45" y="292" on="0"/>
        <pt x="83" y="384" on="0"/>
        <pt x="149" y="451" on="0"/>
        <pt x="239" y="490" on="0"/>
        <pt x="290" y="490" on="1"/>
        <pt x="344" y="490" on="0"/>
        <pt x="434" y="459" on="0"/>
        <pt x="499" y="396" on="0"/>
        <pt x="535" y="302" on="0"/>
      </contour>
    </TTGlyph>
    <TTGlyph name="question" xMin="75" yMin="-10" xMax="453" yMax="679">
      <contour>
        <pt x="214" y="8" on="1"/>
        <pt x="196" y="26" on="0"/>
        <pt x="196" y="52" on="1"/>
        <pt x="196" y="78" on="0"/>
        <pt x="232" y="114" on="0"/>
        <pt x="258" y="114" on="1"/>
        <pt x="284" y="114" on="0"/>
        <pt x="320" y="78" on="0"/>
        <pt x="320" y="52" on="1"/>
        <pt x="320" y="26" on="0"/>
        <pt x="284" y="-10" on="0"/>
        <pt x="258" y="-10" on="1"/>
        <pt x="232" y="-10" on="0"/>
      </contour>
      <contour>
        <pt x="193" y="430" on="1"/>
        <pt x="135" y="371" on="1"/>
        <pt x="75" y="414" on="0"/>
        <pt x="75" y="503" on="1"/>
        <pt x="75" y="543" on="0"/>
        <pt x="105" y="608" on="0"/>
        <pt x="157" y="654" on="0"/>
        <pt x="225" y="679" on="0"/>
        <pt x="264" y="679" on="1"/>
        <pt x="302" y="679" on="0"/>
        <pt x="370" y="655" on="0"/>
        <pt x="422" y="609" on="0"/>
        <pt x="453" y="541" on="0"/>
        <pt x="453" y="497" on="1"/>
        <pt x="453" y="465" on="0"/>
        <pt x="431" y="408" on="0"/>
        <pt x="398" y="356" on="0"/>
        <pt x="359" y="309" on="0"/>
        <pt x="326" y="265" on="0"/>
        <pt x="304" y="222" on="0"/>
        <pt x="304" y="201" on="1"/>
        <pt x="207" y="201" on="1"/>
        <pt x="207" y="221" on="0"/>
        <pt x="213" y="248" on="0"/>
        <pt x="228" y="275" on="0"/>
        <pt x="255" y="307" on="0"/>
        <pt x="275" y="332" on="1"/>
        <pt x="308" y="373" on="1"/>
        <pt x="361" y="439" on="0"/>
        <pt x="361" y="486" on="1"/>
        <pt x="361" y="511" on="0"/>
        <pt x="344" y="551" on="0"/>
        <pt x="316" y="578" on="0"/>
        <pt x="279" y="593" on="0"/>
        <pt x="258" y="593" on="1"/>
        <pt x="219" y="593" on="0"/>
        <pt x="162" y="544" on="0"/>
        <pt x="162" y="499" on="1"/>
        <pt x="162" y="460" on="0"/>
      </contour>
    </TTGlyph>
    <TTGlyph name="questiondown" xMin="75" yMin="-210" xMax="453" yMax="489">
      <contour>
        <pt x="214" y="383" on="1"/>
        <pt x="196" y="401" on="0"/>
        <pt x="196" y="427" on="1"/>
        <pt x="196" y="453" on="0"/>
        <pt x="232" y="489" on="0"/>
        <pt x="258" y="489" on="1"/>
        <pt x="284" y="489" on="0"/>
        <pt x="320" y="453" on="0"/>
        <pt x="320" y="427" on="1"/>
        <pt x="320" y="401" on="0"/>
        <pt x="284" y="365" on="0"/>
        <pt x="258" y="365" on="1"/>
        <pt x="232" y="365" on="0"/>
      </contour>
      <contour>
        <pt x="135" y="98" on="1"/>
        <pt x="193" y="39" on="1"/>
        <pt x="162" y="9" on="0"/>
        <pt x="162" y="-30" on="1"/>
        <pt x="162" y="-75" on="0"/>
        <pt x="219" y="-124" on="0"/>
        <pt x="258" y="-124" on="1"/>
        <pt x="279" y="-124" on="0"/>
        <pt x="316" y="-109" on="0"/>
        <pt x="344" y="-82" on="0"/>
        <pt x="361" y="-42" on="0"/>
        <pt x="361" y="-17" on="1"/>
        <pt x="361" y="7" on="0"/>
        <pt x="333" y="63" on="0"/>
        <pt x="308" y="95" on="1"/>
        <pt x="275" y="137" on="1"/>
        <pt x="264" y="151" on="0"/>
        <pt x="248" y="170" on="0"/>
        <pt x="244" y="175" on="1"/>
        <pt x="223" y="203" on="1"/>
        <pt x="216" y="212" on="0"/>
        <pt x="208" y="248" on="0"/>
        <pt x="207" y="268" on="1"/>
        <pt x="304" y="268" on="1"/>
        <pt x="304" y="247" on="0"/>
        <pt x="326" y="204" on="0"/>
        <pt x="359" y="159" on="0"/>
        <pt x="398" y="111" on="0"/>
        <pt x="431" y="60" on="0"/>
        <pt x="453" y="3" on="0"/>
        <pt x="453" y="-28" on="1"/>
        <pt x="453" y="-72" on="0"/>
        <pt x="422" y="-140" on="0"/>
        <pt x="370" y="-186" on="0"/>
        <pt x="302" y="-210" on="0"/>
        <pt x="264" y="-210" on="1"/>
        <pt x="225" y="-210" on="0"/>
        <pt x="157" y="-185" on="0"/>
        <pt x="105" y="-139" on="0"/>
        <pt x="75" y="-74" on="0"/>
        <pt x="75" y="-34" on="1"/>
        <pt x="75" y="54" on="0"/>
      </contour>
    </TTGlyph>
    <TTGlyph name="quotedbl" xMin="35" yMin="480" xMax="263" yMax="700">
      <contour>
        <pt x="35" y="700" on="1"/>
        <pt x="123" y="700" on="1"/>
        <pt x="113" y="480" on="1"/>
        <pt x="45" y="480" on="1"/>
      </contour>
      <contour>
        <pt x="175" y="700" on="1"/>
        <pt x="263" y="700" on="1"/>
        <pt x="253" y="480" on="1"/>
        <pt x="185" y="480" on="1"/>
      </contour>
    </TTGlyph>
    <TTGlyph name="quotedblbase" xMin="10" yMin="-155" xMax="391" yMax="84">
      <contour>
        <pt x="84" y="-155" on="1"/>
        <pt x="34" y="-123" on="1"/>
        <pt x="72" y="-49" on="0"/>
        <pt x="78" y="0" on="1"/>
        <pt x="10" y="0" on="1"/>
        <pt x="50" y="84" on="1"/>
        <pt x="181" y="84" on="1"/>
        <pt x="181" y="-56" on="0"/>
      </contour>
      <contour>
        <pt x="294" y="-155" on="1"/>
        <pt x="244" y="-123" on="1"/>
        <pt x="282" y="-49" on="0"/>
        <pt x="288" y="0" on="1"/>
        <pt x="220" y="0" on="1"/>
        <pt x="260" y="84" on="1"/>
        <pt x="391" y="84" on="1"/>
        <pt x="391" y="-56" on="0"/>
      </contour>
    </TTGlyph>
    <TTGlyph name="quotedblleft" xMin="55" yMin="616" xMax="436" yMax="855">
      <contour>
        <pt x="152" y="855" on="1"/>
        <pt x="202" y="823" on="1"/>
        <pt x="164" y="749" on="0"/>
        <pt x="158" y="700" on="1"/>
        <pt x="226" y="700" on="1"/>
        <pt x="186" y="616" on="1"/>
        <pt x="55" y="616" on="1"/>
        <pt x="55" y="756" on="0"/>
      </contour>
      <contour>
        <pt x="362" y="855" on="1"/>
        <pt x="412" y="823" on="1"/>
        <pt x="374" y="749" on="0"/>
        <pt x="368" y="700" on="1"/>
        <pt x="436" y="700" on="1"/>
        <pt x="396" y="616" on="1"/>
        <pt x="265" y="616" on="1"/>
        <pt x="265" y="756" on="0"/>
      </contour>
    </TTGlyph>
    <TTGlyph name="quotedblright" xMin="55" yMin="545" xMax="436" yMax="784">
      <contour>
        <pt x="129" y="545" on="1"/>
        <pt x="79" y="577" on="1"/>
        <pt x="117" y="651" on="0"/>
        <pt x="123" y="700" on="1"/>
        <pt x="55" y="700" on="1"/>
        <pt x="95" y="784" on="1"/>
        <pt x="226" y="784" on="1"/>
        <pt x="226" y="644" on="0"/>
      </contour>
      <contour>
        <pt x="339" y="545" on="1"/>
        <pt x="289" y="577" on="1"/>
        <pt x="327" y="651" on="0"/>
        <pt x="333" y="700" on="1"/>
        <pt x="265" y="700" on="1"/>
        <pt x="305" y="784" on="1"/>
        <pt x="436" y="784" on="1"/>
        <pt x="436" y="644" on="0"/>
      </contour>
    </TTGlyph>
    <TTGlyph name="quoteleft" xMin="55" yMin="616" xMax="226" yMax="855">
      <contour>
        <pt x="152" y="855" on="1"/>
        <pt x="202" y="823" on="1"/>
        <pt x="164" y="749" on="0"/>
        <pt x="158" y="700" on="1"/>
        <pt x="226" y="700" on="1"/>
        <pt x="186" y="616" on="1"/>
        <pt x="55" y="616" on="1"/>
        <pt x="55" y="756" on="0"/>
      </contour>
    </TTGlyph>
    <TTGlyph name="quoteright" xMin="55" yMin="545" xMax="226" yMax="784">
      <contour>
        <pt x="129" y="545" on="1"/>
        <pt x="79" y="577" on="1"/>
        <pt x="117" y="651" on="0"/>
        <pt x="123" y="700" on="1"/>
        <pt x="55" y="700" on="1"/>
        <pt x="95" y="784" on="1"/>
        <pt x="226" y="784" on="1"/>
        <pt x="226" y="644" on="0"/>
      </contour>
    </TTGlyph>
    <TTGlyph name="quotesinglbase" xMin="10" yMin="-155" xMax="181" yMax="84">
      <contour>
        <pt x="84" y="-155" on="1"/>
        <pt x="34" y="-123" on="1"/>
        <pt x="72" y="-49" on="0"/>
        <pt x="78" y="0" on="1"/>
        <pt x="10" y="0" on="1"/>
        <pt x="50" y="84" on="1"/>
        <pt x="181" y="84" on="1"/>
        <pt x="181" y="-56" on="0"/>
      </contour>
    </TTGlyph>
    <TTGlyph name="quotesingle" xMin="35" yMin="480" xMax="123" yMax="700">
      <contour>
        <pt x="35" y="700" on="1"/>
        <pt x="123" y="700" on="1"/>
        <pt x="113" y="480" on="1"/>
        <pt x="45" y="480" on="1"/>
      </contour>
    </TTGlyph>
    <TTGlyph name="r" xMin="45" yMin="0" xMax="341" yMax="480">
      <contour>
        <pt x="45" y="0" on="1"/>
        <pt x="45" y="273" on="1"/>
        <pt x="45" y="388" on="0"/>
        <pt x="88" y="432" on="1"/>
        <pt x="109" y="454" on="0"/>
        <pt x="169" y="476" on="0"/>
        <pt x="214" y="480" on="0"/>
        <pt x="253" y="480" on="1"/>
        <pt x="341" y="480" on="1"/>
        <pt x="341" y="396" on="1"/>
        <pt x="235" y="396" on="1"/>
        <pt x="215" y="396" on="0"/>
        <pt x="193" y="394" on="0"/>
        <pt x="163" y="382" on="0"/>
        <pt x="152" y="369" on="1"/>
        <pt x="133" y="345" on="0"/>
        <pt x="133" y="273" on="1"/>
        <pt x="133" y="0" on="1"/>
      </contour>
    </TTGlyph>
    <TTGlyph name="registered" xMin="55" yMin="-12" xMax="763" yMax="712">
      <contour>
        <pt x="158" y="91" on="1"/>
        <pt x="55" y="194" on="0"/>
        <pt x="55" y="350" on="1"/>
        <pt x="55" y="428" on="0"/>
        <pt x="111" y="560" on="0"/>
        <pt x="207" y="657" on="0"/>
        <pt x="336" y="712" on="0"/>
        <pt x="409" y="712" on="1"/>
        <pt x="482" y="712" on="0"/>
        <pt x="611" y="657" on="0"/>
        <pt x="707" y="560" on="0"/>
        <pt x="763" y="427" on="0"/>
        <pt x="763" y="350" on="1"/>
        <pt x="763" y="273" on="0"/>
        <pt x="707" y="140" on="0"/>
        <pt x="611" y="43" on="0"/>
        <pt x="482" y="-12" on="0"/>
        <pt x="409" y="-12" on="1"/>
        <pt x="261" y="-12" on="0"/>
      </contour>
      <contour>
        <pt x="125" y="350" on="1"/>
        <pt x="125" y="289" on="0"/>
        <pt x="167" y="180" on="0"/>
        <pt x="242" y="99" on="0"/>
        <pt x="347" y="52" on="0"/>
        <pt x="409" y="52" on="1"/>
        <pt x="470" y="52" on="0"/>
        <pt x="575" y="100" on="0"/>
        <pt x="650" y="181" on="0"/>
        <pt x="693" y="289" on="0"/>
        <pt x="693" y="350" on="1"/>
        <pt x="693" y="411" on="0"/>
        <pt x="651" y="519" on="0"/>
        <pt x="575" y="600" on="0"/>
        <pt x="471" y="648" on="0"/>
        <pt x="409" y="648" on="1"/>
        <pt x="347" y="648" on="0"/>
        <pt x="243" y="600" on="0"/>
        <pt x="167" y="519" on="0"/>
        <pt x="125" y="411" on="0"/>
      </contour>
      <contour>
        <pt x="339" y="141" on="1"/>
        <pt x="266" y="141" on="1"/>
        <pt x="266" y="403" on="1"/>
        <pt x="266" y="425" on="0"/>
        <pt x="270" y="457" on="0"/>
        <pt x="281" y="499" on="0"/>
        <pt x="309" y="534" on="0"/>
        <pt x="331" y="546" on="1"/>
        <pt x="371" y="564" on="0"/>
        <pt x="404" y="564" on="1"/>
        <pt x="455" y="564" on="0"/>
        <pt x="488" y="541" on="1"/>
        <pt x="540" y="505" on="0"/>
        <pt x="540" y="437" on="1"/>
        <pt x="540" y="387" on="0"/>
        <pt x="502" y="355" on="1"/>
        <pt x="547" y="332" on="0"/>
        <pt x="547" y="269" on="1"/>
        <pt x="547" y="141" on="1"/>
        <pt x="474" y="141" on="1"/>
        <pt x="474" y="253" on="1"/>
        <pt x="474" y="273" on="0"/>
        <pt x="463" y="300" on="0"/>
        <pt x="442" y="311" on="0"/>
        <pt x="424" y="315" on="0"/>
        <pt x="411" y="315" on="1"/>
        <pt x="370" y="315" on="1"/>
        <pt x="370" y="384" on="1"/>
        <pt x="395" y="384" on="1"/>
        <pt x="433" y="384" on="0"/>
        <pt x="467" y="417" on="0"/>
        <pt x="467" y="465" on="0"/>
        <pt x="432" y="495" on="0"/>
        <pt x="403" y="495" on="1"/>
        <pt x="339" y="495" on="0"/>
        <pt x="339" y="413" on="1"/>
      </contour>
    </TTGlyph>
    <TTGlyph name="ring" xMin="35" yMin="526" xMax="231" yMax="722">
      <contour>
        <pt x="63" y="554" on="1"/>
        <pt x="35" y="582" on="0"/>
        <pt x="35" y="666" on="0"/>
        <pt x="91" y="722" on="0"/>
        <pt x="175" y="722" on="0"/>
        <pt x="231" y="666" on="0"/>
        <pt x="231" y="582" on="0"/>
        <pt x="175" y="526" on="0"/>
        <pt x="91" y="526" on="0"/>
      </contour>
      <contour>
        <pt x="99" y="657" on="1"/>
        <pt x="85" y="644" on="0"/>
        <pt x="85" y="604" on="0"/>
        <pt x="113" y="576" on="0"/>
        <pt x="153" y="576" on="0"/>
        <pt x="180" y="604" on="0"/>
        <pt x="180" y="644" on="0"/>
        <pt x="153" y="671" on="0"/>
        <pt x="113" y="671" on="0"/>
      </contour>
    </TTGlyph>
    <TTGlyph name="s" xMin="55" yMin="0" xMax="413" yMax="480">
      <contour>
        <pt x="393" y="480" on="1"/>
        <pt x="393" y="396" on="1"/>
        <pt x="216" y="396" on="1"/>
        <pt x="187" y="396" on="0"/>
        <pt x="145" y="374" on="0"/>
        <pt x="145" y="354" on="1"/>
        <pt x="145" y="342" on="0"/>
        <pt x="155" y="323" on="0"/>
        <pt x="168" y="311" on="0"/>
        <pt x="195" y="298" on="0"/>
        <pt x="210" y="293" on="0"/>
        <pt x="322" y="257" on="0"/>
        <pt x="376" y="233" on="0"/>
        <pt x="405" y="192" on="0"/>
        <pt x="413" y="153" on="0"/>
        <pt x="413" y="134" on="1"/>
        <pt x="413" y="0" on="0"/>
        <pt x="229" y="0" on="1"/>
        <pt x="56" y="0" on="1"/>
        <pt x="56" y="84" on="1"/>
        <pt x="229" y="84" on="1"/>
        <pt x="323" y="84" on="0"/>
        <pt x="323" y="134" on="1"/>
        <pt x="323" y="158" on="0"/>
        <pt x="268" y="190" on="0"/>
        <pt x="189" y="212" on="0"/>
        <pt x="110" y="241" on="0"/>
        <pt x="55" y="306" on="0"/>
        <pt x="55" y="354" on="1"/>
        <pt x="55" y="415" on="0"/>
        <pt x="149" y="480" on="0"/>
        <pt x="216" y="480" on="1"/>
      </contour>
    </TTGlyph>
    <TTGlyph name="section" xMin="55" yMin="-55" xMax="438" yMax="712">
      <contour>
        <pt x="421" y="712" on="1"/>
        <pt x="421" y="628" on="1"/>
        <pt x="236" y="628" on="1"/>
        <pt x="181" y="628" on="0"/>
        <pt x="181" y="591" on="1"/>
        <pt x="181" y="578" on="0"/>
        <pt x="193" y="556" on="0"/>
        <pt x="220" y="535" on="0"/>
        <pt x="244" y="521" on="0"/>
        <pt x="287" y="499" on="0"/>
        <pt x="299" y="492" on="1"/>
        <pt x="366" y="454" on="0"/>
        <pt x="438" y="369" on="0"/>
        <pt x="438" y="309" on="1"/>
        <pt x="438" y="262" on="0"/>
        <pt x="387" y="194" on="0"/>
        <pt x="340" y="186" on="1"/>
        <pt x="376" y="166" on="0"/>
        <pt x="417" y="103" on="0"/>
        <pt x="417" y="67" on="1"/>
        <pt x="417" y="46" on="0"/>
        <pt x="404" y="8" on="0"/>
        <pt x="372" y="-31" on="0"/>
        <pt x="305" y="-55" on="0"/>
        <pt x="259" y="-55" on="1"/>
        <pt x="55" y="-55" on="1"/>
        <pt x="55" y="29" on="1"/>
        <pt x="273" y="29" on="1"/>
        <pt x="327" y="29" on="0"/>
        <pt x="327" y="69" on="1"/>
        <pt x="327" y="83" on="0"/>
        <pt x="315" y="105" on="0"/>
        <pt x="288" y="126" on="0"/>
        <pt x="265" y="139" on="0"/>
        <pt x="221" y="161" on="0"/>
        <pt x="209" y="167" on="1"/>
        <pt x="181" y="183" on="0"/>
        <pt x="140" y="212" on="0"/>
        <pt x="93" y="257" on="0"/>
        <pt x="68" y="313" on="0"/>
        <pt x="68" y="345" on="1"/>
        <pt x="68" y="396" on="0"/>
        <pt x="131" y="462" on="0"/>
        <pt x="180" y="463" on="1"/>
        <pt x="134" y="490" on="0"/>
        <pt x="91" y="550" on="0"/>
        <pt x="91" y="592" on="1"/>
        <pt x="91" y="643" on="0"/>
        <pt x="167" y="712" on="0"/>
        <pt x="248" y="712" on="1"/>
      </contour>
      <contour>
        <pt x="251" y="417" on="1"/>
        <pt x="233" y="422" on="0"/>
        <pt x="221" y="422" on="1"/>
        <pt x="189" y="422" on="0"/>
        <pt x="151" y="382" on="0"/>
        <pt x="151" y="351" on="1"/>
        <pt x="151" y="308" on="0"/>
        <pt x="246" y="233" on="0"/>
        <pt x="283" y="233" on="1"/>
        <pt x="310" y="233" on="0"/>
        <pt x="353" y="269" on="0"/>
        <pt x="353" y="303" on="1"/>
        <pt x="353" y="340" on="0"/>
        <pt x="288" y="406" on="0"/>
      </contour>
    </TTGlyph>
    <TTGlyph name="semicolon" xMin="10" yMin="-155" xMax="181" yMax="484">
      <contour>
        <pt x="84" y="-155" on="1"/>
        <pt x="34" y="-123" on="1"/>
        <pt x="72" y="-49" on="0"/>
        <pt x="78" y="0" on="1"/>
        <pt x="10" y="0" on="1"/>
        <pt x="50" y="84" on="1"/>
        <pt x="181" y="84" on="1"/>
        <pt x="181" y="-56" on="0"/>
      </contour>
      <contour>
        <pt x="65" y="378" on="1"/>
        <pt x="47" y="396" on="0"/>
        <pt x="47" y="448" on="0"/>
        <pt x="83" y="484" on="0"/>
        <pt x="135" y="484" on="0"/>
        <pt x="171" y="448" on="0"/>
        <pt x="171" y="396" on="0"/>
        <pt x="135" y="360" on="0"/>
        <pt x="83" y="360" on="0"/>
      </contour>
    </TTGlyph>
    <TTGlyph name="seven" xMin="15" yMin="0" xMax="414" yMax="700">
      <contour>
        <pt x="414" y="700" on="1"/>
        <pt x="414" y="679" on="1"/>
        <pt x="414" y="603" on="0"/>
        <pt x="373" y="471" on="0"/>
        <pt x="314" y="369" on="0"/>
        <pt x="254" y="265" on="0"/>
        <pt x="213" y="125" on="0"/>
        <pt x="213" y="44" on="1"/>
        <pt x="213" y="0" on="1"/>
        <pt x="115" y="0" on="1"/>
        <pt x="115" y="44" on="1"/>
        <pt x="115" y="122" on="0"/>
        <pt x="150" y="258" on="0"/>
        <pt x="203" y="360" on="0"/>
        <pt x="258" y="451" on="0"/>
        <pt x="308" y="559" on="0"/>
        <pt x="317" y="612" on="1"/>
        <pt x="15" y="612" on="1"/>
        <pt x="15" y="700" on="1"/>
      </contour>
    </TTGlyph>
    <TTGlyph name="six" xMin="45" yMin="-10" xMax="514" yMax="700">
      <contour>
        <pt x="415" y="225" on="1"/>
        <pt x="415" y="357" on="0"/>
        <pt x="302" y="357" on="1"/>
        <pt x="254" y="357" on="0"/>
        <pt x="210" y="345" on="1"/>
        <pt x="210" y="426" on="1"/>
        <pt x="258" y="444" on="0"/>
        <pt x="308" y="444" on="1"/>
        <pt x="403" y="444" on="0"/>
        <pt x="514" y="327" on="0"/>
        <pt x="514" y="225" on="1"/>
        <pt x="514" y="116" on="0"/>
        <pt x="396" y="-10" on="0"/>
        <pt x="299" y="-10" on="1"/>
        <pt x="166" y="-10" on="0"/>
        <pt x="45" y="162" on="0"/>
        <pt x="45" y="350" on="1"/>
        <pt x="45" y="510" on="0"/>
        <pt x="230" y="700" on="0"/>
        <pt x="390" y="700" on="1"/>
        <pt x="448" y="700" on="1"/>
        <pt x="448" y="612" on="1"/>
        <pt x="378" y="612" on="1"/>
        <pt x="264" y="612" on="0"/>
        <pt x="140" y="480" on="0"/>
        <pt x="140" y="350" on="1"/>
        <pt x="140" y="203" on="0"/>
        <pt x="215" y="74" on="0"/>
        <pt x="296" y="74" on="1"/>
        <pt x="351" y="74" on="0"/>
        <pt x="415" y="150" on="0"/>
      </contour>
    </TTGlyph>
    <TTGlyph name="slash" xMin="-30" yMin="-10" xMax="382" yMax="710">
      <contour>
        <pt x="382" y="710" on="1"/>
        <pt x="58" y="-10" on="1"/>
        <pt x="-30" y="-10" on="1"/>
        <pt x="294" y="710" on="1"/>
      </contour>
    </TTGlyph>
    <TTGlyph name="sterling" xMin="44" yMin="0" xMax="544" yMax="712">
      <contour>
        <pt x="385" y="410" on="1"/>
        <pt x="385" y="322" on="1"/>
        <pt x="217" y="322" on="1"/>
        <pt x="217" y="197" on="1"/>
        <pt x="217" y="171" on="0"/>
        <pt x="216" y="148" on="0"/>
        <pt x="200" y="104" on="0"/>
        <pt x="183" y="88" on="1"/>
        <pt x="326" y="88" on="1"/>
        <pt x="381" y="88" on="0"/>
        <pt x="450" y="154" on="0"/>
        <pt x="450" y="207" on="1"/>
        <pt x="450" y="281" on="1"/>
        <pt x="544" y="281" on="1"/>
        <pt x="544" y="214" on="1"/>
        <pt x="544" y="118" on="0"/>
        <pt x="440" y="0" on="0"/>
        <pt x="354" y="0" on="1"/>
        <pt x="44" y="0" on="1"/>
        <pt x="44" y="88" on="1"/>
        <pt x="59" y="88" on="1"/>
        <pt x="96" y="88" on="0"/>
        <pt x="123" y="139" on="0"/>
        <pt x="123" y="189" on="1"/>
        <pt x="123" y="322" on="1"/>
        <pt x="57" y="322" on="1"/>
        <pt x="57" y="410" on="1"/>
        <pt x="123" y="410" on="1"/>
        <pt x="123" y="489" on="1"/>
        <pt x="123" y="589" on="0"/>
        <pt x="235" y="712" on="0"/>
        <pt x="332" y="712" on="1"/>
        <pt x="398" y="712" on="0"/>
        <pt x="453" y="688" on="1"/>
        <pt x="422" y="603" on="1"/>
        <pt x="371" y="624" on="0"/>
        <pt x="334" y="624" on="1"/>
        <pt x="283" y="624" on="0"/>
        <pt x="217" y="560" on="0"/>
        <pt x="217" y="497" on="1"/>
        <pt x="217" y="410" on="1"/>
      </contour>
    </TTGlyph>
    <TTGlyph name="t" xMin="10" yMin="0" xMax="324" yMax="575">
      <contour>
        <pt x="10" y="396" on="1"/>
        <pt x="189" y="575" on="1"/>
        <pt x="189" y="480" on="1"/>
        <pt x="324" y="480" on="1"/>
        <pt x="324" y="396" on="1"/>
        <pt x="189" y="396" on="1"/>
        <pt x="189" y="190" on="1"/>
        <pt x="189" y="155" on="0"/>
        <pt x="212" y="109" on="0"/>
        <pt x="256" y="90" on="0"/>
        <pt x="295" y="84" on="0"/>
        <pt x="324" y="84" on="1"/>
        <pt x="324" y="0" on="1"/>
        <pt x="209" y="0" on="0"/>
        <pt x="99" y="88" on="0"/>
        <pt x="99" y="190" on="1"/>
        <pt x="99" y="396" on="1"/>
      </contour>
    </TTGlyph>
    <TTGlyph name="thorn" xMin="55" yMin="-229" xMax="546" yMax="701">
      <contour>
        <pt x="145" y="-229" on="1"/>
        <pt x="55" y="-229" on="1"/>
        <pt x="55" y="701" on="1"/>
        <pt x="145" y="701" on="1"/>
        <pt x="145" y="490" on="1"/>
        <pt x="290" y="490" on="1"/>
        <pt x="405" y="490" on="0"/>
        <pt x="546" y="351" on="0"/>
        <pt x="546" y="240" on="1"/>
        <pt x="546" y="134" on="0"/>
        <pt x="402" y="-10" on="0"/>
        <pt x="297" y="-10" on="1"/>
        <pt x="235" y="-10" on="0"/>
        <pt x="181" y="20" on="1"/>
        <pt x="181" y="110" on="1"/>
        <pt x="231" y="74" on="0"/>
        <pt x="297" y="74" on="1"/>
        <pt x="367" y="74" on="0"/>
        <pt x="457" y="167" on="0"/>
        <pt x="457" y="240" on="1"/>
        <pt x="457" y="314" on="0"/>
        <pt x="370" y="406" on="0"/>
        <pt x="290" y="406" on="1"/>
        <pt x="145" y="406" on="1"/>
      </contour>
    </TTGlyph>
    <TTGlyph name="three" xMin="32" yMin="-10" xMax="494" yMax="700">
      <contour>
        <pt x="494" y="220" on="1"/>
        <pt x="494" y="112" on="0"/>
        <pt x="365" y="-10" on="0"/>
        <pt x="258" y="-10" on="1"/>
        <pt x="165" y="-10" on="0"/>
        <pt x="48" y="60" on="0"/>
        <pt x="32" y="127" on="1"/>
        <pt x="106" y="200" on="1"/>
        <pt x="117" y="143" on="0"/>
        <pt x="194" y="78" on="0"/>
        <pt x="255" y="78" on="1"/>
        <pt x="392" y="78" on="0"/>
        <pt x="392" y="220" on="1"/>
        <pt x="392" y="347" on="0"/>
        <pt x="237" y="347" on="1"/>
        <pt x="181" y="347" on="1"/>
        <pt x="181" y="441" on="1"/>
        <pt x="242" y="460" on="0"/>
        <pt x="336" y="547" on="0"/>
        <pt x="357" y="606" on="1"/>
        <pt x="65" y="606" on="1"/>
        <pt x="65" y="700" on="1"/>
        <pt x="451" y="700" on="1"/>
        <pt x="451" y="679" on="1"/>
        <pt x="451" y="511" on="0"/>
        <pt x="322" y="432" on="1"/>
        <pt x="406" y="413" on="0"/>
        <pt x="494" y="303" on="0"/>
      </contour>
    </TTGlyph>
    <TTGlyph name="threequarters" xMin="55" yMin="0" xMax="621" yMax="700">
      <component glyphName="threesuperior" x="33" y="0" flags="0x4"/>
      <component glyphName="uni2074" x="340" y="-377" flags="0x4"/>
      <component glyphName="fraction" x="174" y="0" flags="0x4"/>
    </TTGlyph>
    <TTGlyph name="threesuperior" xMin="22" yMin="369" xMax="254" yMax="700">
      <contour>
        <pt x="254" y="476" on="1"/>
        <pt x="254" y="427" on="0"/>
        <pt x="185" y="369" on="0"/>
        <pt x="134" y="369" on="1"/>
        <pt x="92" y="369" on="0"/>
        <pt x="30" y="409" on="0"/>
        <pt x="22" y="441" on="1"/>
        <pt x="75" y="467" on="1"/>
        <pt x="80" y="449" on="0"/>
        <pt x="112" y="426" on="0"/>
        <pt x="133" y="426" on="1"/>
        <pt x="190" y="426" on="0"/>
        <pt x="190" y="476" on="1"/>
        <pt x="190" y="528" on="0"/>
        <pt x="125" y="528" on="1"/>
        <pt x="99" y="528" on="1"/>
        <pt x="99" y="579" on="1"/>
        <pt x="147" y="595" on="0"/>
        <pt x="171" y="637" on="1"/>
        <pt x="44" y="637" on="1"/>
        <pt x="44" y="700" on="1"/>
        <pt x="239" y="700" on="1"/>
        <pt x="239" y="690" on="1"/>
        <pt x="239" y="618" on="0"/>
        <pt x="181" y="572" on="1"/>
        <pt x="254" y="552" on="0"/>
      </contour>
    </TTGlyph>
    <TTGlyph name="tilde" xMin="35" yMin="554" xMax="393" yMax="676">
      <contour>
        <pt x="342" y="676" on="1"/>
        <pt x="393" y="676" on="1"/>
        <pt x="391" y="628" on="0"/>
        <pt x="328" y="561" on="0"/>
        <pt x="285" y="561" on="1"/>
        <pt x="243" y="561" on="0"/>
        <pt x="192" y="585" on="1"/>
        <pt x="148" y="601" on="0"/>
        <pt x="134" y="601" on="1"/>
        <pt x="94" y="601" on="0"/>
        <pt x="86" y="554" on="1"/>
        <pt x="35" y="554" on="1"/>
        <pt x="38" y="599" on="0"/>
        <pt x="88" y="669" on="0"/>
        <pt x="140" y="669" on="1"/>
        <pt x="170" y="669" on="0"/>
        <pt x="221" y="650" on="1"/>
        <pt x="270" y="629" on="0"/>
        <pt x="293" y="629" on="1"/>
        <pt x="315" y="629" on="0"/>
        <pt x="342" y="657" on="0"/>
      </contour>
    </TTGlyph>
    <TTGlyph name="two" xMin="32" yMin="0" xMax="472" yMax="709">
      <contour>
        <pt x="472" y="511" on="1"/>
        <pt x="472" y="444" on="0"/>
        <pt x="424" y="357" on="0"/>
        <pt x="313" y="267" on="0"/>
        <pt x="268" y="231" on="0"/>
        <pt x="202" y="174" on="0"/>
        <pt x="150" y="114" on="0"/>
        <pt x="143" y="94" on="1"/>
        <pt x="466" y="94" on="1"/>
        <pt x="466" y="0" on="1"/>
        <pt x="42" y="0" on="1"/>
        <pt x="42" y="44" on="1"/>
        <pt x="42" y="65" on="0"/>
        <pt x="51" y="107" on="0"/>
        <pt x="82" y="172" on="0"/>
        <pt x="150" y="259" on="0"/>
        <pt x="292" y="367" on="1"/>
        <pt x="371" y="428" on="0"/>
        <pt x="371" y="516" on="1"/>
        <pt x="371" y="559" on="0"/>
        <pt x="309" y="618" on="0"/>
        <pt x="251" y="618" on="1"/>
        <pt x="158" y="618" on="0"/>
        <pt x="106" y="510" on="1"/>
        <pt x="32" y="572" on="1"/>
        <pt x="107" y="709" on="0"/>
        <pt x="248" y="709" on="1"/>
        <pt x="353" y="709" on="0"/>
        <pt x="472" y="605" on="0"/>
      </contour>
    </TTGlyph>
    <TTGlyph name="twosuperior" xMin="32" yMin="380" xMax="258" yMax="710">
      <contour>
        <pt x="258" y="380" on="1"/>
        <pt x="45" y="380" on="1"/>
        <pt x="45" y="400" on="1"/>
        <pt x="45" y="425" on="0"/>
        <pt x="78" y="477" on="0"/>
        <pt x="108" y="505" on="0"/>
        <pt x="156" y="548" on="1"/>
        <pt x="176" y="566" on="0"/>
        <pt x="186" y="589" on="0"/>
        <pt x="186" y="609" on="1"/>
        <pt x="186" y="627" on="0"/>
        <pt x="166" y="651" on="0"/>
        <pt x="145" y="651" on="1"/>
        <pt x="106" y="651" on="0"/>
        <pt x="88" y="614" on="1"/>
        <pt x="32" y="647" on="1"/>
        <pt x="72" y="710" on="0"/>
        <pt x="149" y="710" on="1"/>
        <pt x="197" y="710" on="0"/>
        <pt x="251" y="653" on="0"/>
        <pt x="251" y="607" on="1"/>
        <pt x="251" y="581" on="0"/>
        <pt x="229" y="543" on="0"/>
        <pt x="198" y="512" on="1"/>
        <pt x="178" y="492" on="0"/>
        <pt x="129" y="448" on="0"/>
        <pt x="124" y="443" on="1"/>
        <pt x="258" y="443" on="1"/>
      </contour>
    </TTGlyph>
    <TTGlyph name="u" xMin="60" yMin="0" xMax="458" yMax="480">
      <contour>
        <pt x="458" y="0" on="1"/>
        <pt x="285" y="0" on="1"/>
        <pt x="174" y="0" on="0"/>
        <pt x="126" y="33" on="1"/>
        <pt x="83" y="62" on="0"/>
        <pt x="60" y="143" on="0"/>
        <pt x="60" y="209" on="1"/>
        <pt x="60" y="480" on="1"/>
        <pt x="148" y="480" on="1"/>
        <pt x="148" y="210" on="1"/>
        <pt x="148" y="192" on="0"/>
        <pt x="150" y="167" on="0"/>
        <pt x="162" y="128" on="0"/>
        <pt x="184" y="103" on="0"/>
        <pt x="226" y="84" on="0"/>
        <pt x="256" y="84" on="1"/>
        <pt x="370" y="84" on="1"/>
        <pt x="370" y="480" on="1"/>
        <pt x="458" y="480" on="1"/>
      </contour>
    </TTGlyph>
    <TTGlyph name="uacute" xMin="60" yMin="0" xMax="458" yMax="715">
      <component glyphName="u" x="0" y="0" flags="0x204"/>
      <component glyphName="acute" x="176" y="0" flags="0x4"/>
    </TTGlyph>
    <TTGlyph name="ucircumflex" xMin="60" yMin="0" xMax="458" yMax="700">
      <component glyphName="u" x="0" y="0" flags="0x204"/>
      <component glyphName="circumflex" x="70" y="0" flags="0x4"/>
    </TTGlyph>
    <TTGlyph name="udieresis" xMin="60" yMin="0" xMax="458" yMax="680">
      <component glyphName="u" x="0" y="0" flags="0x204"/>
      <component glyphName="dieresis" x="80" y="0" flags="0x4"/>
    </TTGlyph>
    <TTGlyph name="ugrave" xMin="60" yMin="0" xMax="458" yMax="715">
      <component glyphName="u" x="0" y="0" flags="0x204"/>
      <component glyphName="grave" x="86" y="0" flags="0x4"/>
    </TTGlyph>
    <TTGlyph name="underscore" xMin="33" yMin="-125" xMax="533" yMax="-55">
      <contour>
        <pt x="533" y="-125" on="1"/>
        <pt x="33" y="-125" on="1"/>
        <pt x="33" y="-55" on="1"/>
        <pt x="533" y="-55" on="1"/>
      </contour>
    </TTGlyph>
    <TTGlyph name="uni00AD" xMin="33" yMin="200" xMax="257" yMax="280">
      <contour>
        <pt x="257" y="200" on="1"/>
        <pt x="33" y="200" on="1"/>
        <pt x="33" y="280" on="1"/>
        <pt x="257" y="280" on="1"/>
      </contour>
    </TTGlyph>
    <TTGlyph name="uni2074" xMin="21" yMin="380" xMax="281" yMax="700">
      <contour>
        <pt x="174" y="700" on="1"/>
        <pt x="240" y="700" on="1"/>
        <pt x="240" y="503" on="1"/>
        <pt x="281" y="503" on="1"/>
        <pt x="281" y="452" on="1"/>
        <pt x="240" y="452" on="1"/>
        <pt x="240" y="380" on="1"/>
        <pt x="174" y="380" on="1"/>
        <pt x="174" y="452" on="1"/>
        <pt x="21" y="452" on="1"/>
        <pt x="21" y="472" on="1"/>
        <pt x="21" y="492" on="0"/>
        <pt x="42" y="536" on="0"/>
        <pt x="64" y="567" on="0"/>
        <pt x="88" y="596" on="1"/>
      </contour>
      <contour>
        <pt x="139" y="573" on="1"/>
        <pt x="101" y="529" on="0"/>
        <pt x="92" y="503" on="1"/>
        <pt x="174" y="503" on="1"/>
        <pt x="174" y="615" on="1"/>
      </contour>
    </TTGlyph>
    <TTGlyph name="uni20B4" xMin="56" yMin="0" xMax="476" yMax="700">
      <contour>
        <pt x="314" y="458" on="1"/>
        <pt x="323" y="476" on="0"/>
        <pt x="323" y="500" on="1"/>
        <pt x="323" y="529" on="0"/>
        <pt x="299" y="571" on="0"/>
        <pt x="257" y="599" on="0"/>
        <pt x="201" y="612" on="0"/>
        <pt x="169" y="612" on="1"/>
        <pt x="96" y="612" on="1"/>
        <pt x="96" y="700" on="1"/>
        <pt x="172" y="700" on="1"/>
        <pt x="182" y="700" on="0"/>
        <pt x="201" y="700" on="0"/>
        <pt x="212" y="699" on="1"/>
        <pt x="243" y="698" on="0"/>
        <pt x="316" y="676" on="0"/>
        <pt x="379" y="629" on="0"/>
        <pt x="422" y="554" on="0"/>
        <pt x="422" y="501" on="1"/>
        <pt x="422" y="477" on="0"/>
        <pt x="419" y="458" on="1"/>
        <pt x="476" y="458" on="1"/>
        <pt x="476" y="380" on="1"/>
        <pt x="56" y="380" on="1"/>
        <pt x="56" y="458" on="1"/>
      </contour>
      <contour>
        <pt x="218" y="242" on="1"/>
        <pt x="209" y="224" on="0"/>
        <pt x="209" y="200" on="1"/>
        <pt x="209" y="171" on="0"/>
        <pt x="233" y="129" on="0"/>
        <pt x="275" y="101" on="0"/>
        <pt x="331" y="88" on="0"/>
        <pt x="363" y="88" on="1"/>
        <pt x="436" y="88" on="1"/>
        <pt x="436" y="0" on="1"/>
        <pt x="360" y="0" on="1"/>
        <pt x="350" y="0" on="0"/>
        <pt x="331" y="0" on="0"/>
        <pt x="320" y="1" on="1"/>
        <pt x="289" y="2" on="0"/>
        <pt x="216" y="24" on="0"/>
        <pt x="153" y="71" on="0"/>
        <pt x="110" y="146" on="0"/>
        <pt x="110" y="199" on="1"/>
        <pt x="110" y="222" on="0"/>
        <pt x="113" y="242" on="1"/>
        <pt x="56" y="242" on="1"/>
        <pt x="56" y="320" on="1"/>
        <pt x="476" y="320" on="1"/>
        <pt x="476" y="242" on="1"/>
      </contour>
    </TTGlyph>
    <TTGlyph name="uni20B6" xMin="0" yMin="0" xMax="532" yMax="710">
      <contour>
        <pt x="65" y="0" on="1"/>
        <pt x="65" y="126" on="1"/>
        <pt x="0" y="126" on="1"/>
        <pt x="0" y="204" on="1"/>
        <pt x="65" y="204" on="1"/>
        <pt x="65" y="255" on="1"/>
        <pt x="0" y="255" on="1"/>
        <pt x="0" y="343" on="1"/>
        <pt x="65" y="343" on="1"/>
        <pt x="65" y="460" on="1"/>
        <pt x="65" y="520" on="0"/>
        <pt x="99" y="613" on="0"/>
        <pt x="160" y="677" on="0"/>
        <pt x="245" y="710" on="0"/>
        <pt x="297" y="710" on="1"/>
        <pt x="355" y="710" on="0"/>
        <pt x="443" y="674" on="0"/>
        <pt x="502" y="613" on="0"/>
        <pt x="532" y="530" on="0"/>
        <pt x="532" y="483" on="1"/>
        <pt x="532" y="418" on="0"/>
        <pt x="486" y="331" on="0"/>
        <pt x="413" y="278" on="0"/>
        <pt x="322" y="255" on="0"/>
        <pt x="278" y="255" on="1"/>
        <pt x="159" y="255" on="1"/>
        <pt x="159" y="204" on="1"/>
        <pt x="420" y="204" on="1"/>
        <pt x="420" y="126" on="1"/>
        <pt x="159" y="126" on="1"/>
        <pt x="159" y="0" on="1"/>
      </contour>
      <contour>
        <pt x="289" y="343" on="1"/>
        <pt x="323" y="343" on="0"/>
        <pt x="377" y="365" on="0"/>
        <pt x="414" y="404" on="0"/>
        <pt x="433" y="455" on="0"/>
        <pt x="433" y="485" on="1"/>
        <pt x="433" y="513" on="0"/>
        <pt x="416" y="563" on="0"/>
        <pt x="382" y="601" on="0"/>
        <pt x="330" y="622" on="0"/>
        <pt x="296" y="622" on="1"/>
        <pt x="230" y="622" on="0"/>
        <pt x="159" y="533" on="0"/>
        <pt x="159" y="464" on="1"/>
        <pt x="159" y="343" on="1"/>
      </contour>
    </TTGlyph>
    <TTGlyph name="v" xMin="25" yMin="-11" xMax="439" yMax="480">
      <contour>
        <pt x="232" y="-11" on="1"/>
        <pt x="146" y="70" on="0"/>
        <pt x="65" y="266" on="0"/>
        <pt x="25" y="480" on="1"/>
        <pt x="117" y="480" on="1"/>
        <pt x="156" y="239" on="0"/>
        <pt x="232" y="115" on="1"/>
        <pt x="308" y="239" on="0"/>
        <pt x="347" y="480" on="1"/>
        <pt x="439" y="480" on="1"/>
        <pt x="399" y="266" on="0"/>
        <pt x="318" y="70" on="0"/>
      </contour>
    </TTGlyph>
    <TTGlyph name="w" xMin="35" yMin="-10" xMax="645" yMax="480">
      <contour>
        <pt x="481" y="-10" on="1"/>
        <pt x="407" y="47" on="0"/>
        <pt x="357" y="163" on="0"/>
        <pt x="345" y="276" on="1"/>
        <pt x="335" y="276" on="1"/>
        <pt x="323" y="163" on="0"/>
        <pt x="273" y="47" on="0"/>
        <pt x="199" y="-10" on="1"/>
        <pt x="130" y="24" on="0"/>
        <pt x="49" y="202" on="0"/>
        <pt x="42" y="333" on="1"/>
        <pt x="35" y="480" on="1"/>
        <pt x="124" y="480" on="1"/>
        <pt x="132" y="337" on="1"/>
        <pt x="141" y="173" on="0"/>
        <pt x="197" y="99" on="1"/>
        <pt x="212" y="116" on="0"/>
        <pt x="238" y="158" on="0"/>
        <pt x="256" y="209" on="0"/>
        <pt x="269" y="248" on="0"/>
        <pt x="280" y="309" on="0"/>
        <pt x="284" y="337" on="0"/>
        <pt x="291" y="399" on="0"/>
        <pt x="292" y="403" on="1"/>
        <pt x="388" y="403" on="1"/>
        <pt x="389" y="399" on="0"/>
        <pt x="396" y="337" on="0"/>
        <pt x="400" y="309" on="0"/>
        <pt x="411" y="248" on="0"/>
        <pt x="424" y="209" on="0"/>
        <pt x="442" y="158" on="0"/>
        <pt x="468" y="116" on="0"/>
        <pt x="483" y="99" on="1"/>
        <pt x="539" y="173" on="0"/>
        <pt x="548" y="337" on="1"/>
        <pt x="556" y="480" on="1"/>
        <pt x="645" y="480" on="1"/>
        <pt x="638" y="333" on="1"/>
        <pt x="631" y="202" on="0"/>
        <pt x="550" y="24" on="0"/>
      </contour>
    </TTGlyph>
    <TTGlyph name="x" xMin="35" yMin="0" xMax="425" yMax="480">
      <contour>
        <pt x="337" y="480" on="1"/>
        <pt x="425" y="480" on="1"/>
        <pt x="425" y="466" on="1"/>
        <pt x="425" y="331" on="0"/>
        <pt x="317" y="250" on="1"/>
        <pt x="369" y="212" on="0"/>
        <pt x="425" y="99" on="0"/>
        <pt x="425" y="36" on="1"/>
        <pt x="425" y="0" on="1"/>
        <pt x="337" y="0" on="1"/>
        <pt x="337" y="36" on="1"/>
        <pt x="337" y="92" on="0"/>
        <pt x="283" y="182" on="0"/>
        <pt x="230" y="206" on="1"/>
        <pt x="178" y="181" on="0"/>
        <pt x="123" y="87" on="0"/>
        <pt x="123" y="30" on="1"/>
        <pt x="123" y="0" on="1"/>
        <pt x="35" y="0" on="1"/>
        <pt x="35" y="30" on="1"/>
        <pt x="35" y="170" on="0"/>
        <pt x="143" y="250" on="1"/>
        <pt x="35" y="331" on="0"/>
        <pt x="35" y="472" on="1"/>
        <pt x="35" y="480" on="1"/>
        <pt x="123" y="480" on="1"/>
        <pt x="123" y="472" on="1"/>
        <pt x="123" y="415" on="0"/>
        <pt x="178" y="321" on="0"/>
        <pt x="230" y="295" on="1"/>
        <pt x="337" y="345" on="0"/>
        <pt x="337" y="466" on="1"/>
      </contour>
    </TTGlyph>
    <TTGlyph name="y" xMin="45" yMin="-228" xMax="443" yMax="480">
      <contour>
        <pt x="45" y="480" on="1"/>
        <pt x="133" y="480" on="1"/>
        <pt x="133" y="229" on="1"/>
        <pt x="133" y="148" on="0"/>
        <pt x="183" y="84" on="0"/>
        <pt x="250" y="84" on="1"/>
        <pt x="355" y="84" on="1"/>
        <pt x="355" y="480" on="1"/>
        <pt x="443" y="480" on="1"/>
        <pt x="443" y="24" on="1"/>
        <pt x="443" y="-101" on="0"/>
        <pt x="312" y="-228" on="0"/>
        <pt x="172" y="-228" on="1"/>
        <pt x="100" y="-228" on="1"/>
        <pt x="100" y="-144" on="1"/>
        <pt x="163" y="-144" on="1"/>
        <pt x="346" y="-144" on="0"/>
        <pt x="355" y="0" on="1"/>
        <pt x="271" y="0" on="1"/>
        <pt x="140" y="0" on="0"/>
        <pt x="45" y="92" on="0"/>
        <pt x="45" y="233" on="1"/>
      </contour>
    </TTGlyph>
    <TTGlyph name="yacute" xMin="45" yMin="-228" xMax="443" yMax="715">
      <component glyphName="y" x="0" y="0" flags="0x204"/>
      <component glyphName="acute" x="164" y="0" flags="0x4"/>
    </TTGlyph>
    <TTGlyph name="ydieresis" xMin="45" yMin="-228" xMax="443" yMax="680">
      <component glyphName="y" x="0" y="0" flags="0x204"/>
      <component glyphName="dieresis" x="71" y="0" flags="0x4"/>
    </TTGlyph>
    <TTGlyph name="yen" xMin="45" yMin="0" xMax="498" yMax="700">
      <contour>
        <pt x="491" y="210" on="1"/>
        <pt x="491" y="132" on="1"/>
        <pt x="320" y="132" on="1"/>
        <pt x="320" y="0" on="1"/>
        <pt x="226" y="0" on="1"/>
        <pt x="226" y="132" on="1"/>
        <pt x="51" y="132" on="1"/>
        <pt x="51" y="210" on="1"/>
        <pt x="226" y="210" on="1"/>
        <pt x="226" y="260" on="1"/>
        <pt x="51" y="260" on="1"/>
        <pt x="51" y="338" on="1"/>
        <pt x="146" y="338" on="1"/>
        <pt x="45" y="456" on="0"/>
        <pt x="45" y="641" on="1"/>
        <pt x="45" y="700" on="1"/>
        <pt x="141" y="700" on="1"/>
        <pt x="141" y="650" on="1"/>
        <pt x="141" y="547" on="0"/>
        <pt x="200" y="400" on="0"/>
        <pt x="273" y="353" on="1"/>
        <pt x="404" y="440" on="0"/>
        <pt x="404" y="650" on="1"/>
        <pt x="404" y="700" on="1"/>
        <pt x="498" y="700" on="1"/>
        <pt x="498" y="650" on="1"/>
        <pt x="498" y="458" on="0"/>
        <pt x="396" y="338" on="1"/>
        <pt x="491" y="338" on="1"/>
        <pt x="491" y="260" on="1"/>
        <pt x="320" y="260" on="1"/>
        <pt x="320" y="210" on="1"/>
      </contour>
    </TTGlyph>
    <TTGlyph name="z" xMin="35" yMin="0" xMax="391" yMax="480">
      <contour>
        <pt x="35" y="0" on="1"/>
        <pt x="35" y="40" on="1"/>
        <pt x="35" y="88" on="0"/>
        <pt x="78" y="175" on="0"/>
        <pt x="143" y="241" on="0"/>
        <pt x="210" y="299" on="0"/>
        <pt x="271" y="363" on="0"/>
        <pt x="282" y="392" on="1"/>
        <pt x="36" y="392" on="1"/>
        <pt x="36" y="480" on="1"/>
        <pt x="384" y="480" on="1"/>
        <pt x="384" y="431" on="1"/>
        <pt x="384" y="387" on="0"/>
        <pt x="341" y="307" on="0"/>
        <pt x="275" y="243" on="0"/>
        <pt x="206" y="185" on="0"/>
        <pt x="143" y="119" on="0"/>
        <pt x="130" y="88" on="1"/>
        <pt x="391" y="88" on="1"/>
        <pt x="391" y="0" on="1"/>
      </contour>
    </TTGlyph>
    <TTGlyph name="zero" xMin="55" yMin="-10" xMax="537" yMax="710">
      <contour>
        <pt x="59" y="247" on="1"/>
        <pt x="57" y="270" on="0"/>
        <pt x="55" y="324" on="0"/>
        <pt x="55" y="353" on="1"/>
        <pt x="55" y="419" on="0"/>
        <pt x="72" y="548" on="0"/>
        <pt x="123" y="648" on="0"/>
        <pt x="218" y="710" on="0"/>
        <pt x="296" y="710" on="1"/>
        <pt x="377" y="710" on="0"/>
        <pt x="473" y="646" on="0"/>
        <pt x="522" y="544" on="0"/>
        <pt x="537" y="416" on="0"/>
        <pt x="537" y="353" on="1"/>
        <pt x="537" y="287" on="0"/>
        <pt x="521" y="157" on="0"/>
        <pt x="470" y="54" on="0"/>
        <pt x="375" y="-10" on="0"/>
        <pt x="296" y="-10" on="1"/>
        <pt x="230" y="-10" on="0"/>
        <pt x="144" y="33" on="0"/>
        <pt x="91" y="105" on="0"/>
        <pt x="65" y="198" on="0"/>
      </contour>
      <contour>
        <pt x="181" y="134" on="1"/>
        <pt x="213" y="78" on="0"/>
        <pt x="296" y="78" on="1"/>
        <pt x="338" y="78" on="0"/>
        <pt x="393" y="102" on="0"/>
        <pt x="427" y="163" on="0"/>
        <pt x="441" y="270" on="0"/>
        <pt x="441" y="353" on="1"/>
        <pt x="441" y="435" on="0"/>
        <pt x="427" y="542" on="0"/>
        <pt x="393" y="604" on="0"/>
        <pt x="338" y="628" on="0"/>
        <pt x="296" y="628" on="1"/>
        <pt x="254" y="628" on="0"/>
        <pt x="199" y="605" on="0"/>
        <pt x="165" y="543" on="0"/>
        <pt x="151" y="437" on="0"/>
        <pt x="151" y="353" on="1"/>
        <pt x="151" y="189" on="0"/>
      </contour>
    </TTGlyph>
</ttFont>
